<?xml version="1.0" encoding="UTF-8"?>
<svg version="1.1" xmlns="http://www.w3.org/2000/svg" width="250" height="250">
<path d="M0 0 C82.5 0 165 0 250 0 C250 82.5 250 165 250 250 C167.5 250 85 250 0 250 C0 167.5 0 85 0 0 Z " fill="#FEFEFE" transform="translate(0,0)"/>
<path d="M0 0 C2.73941194 2.19525664 5.38288621 4.45732416 7.99609375 6.80078125 C8.6303125 7.3525 9.26453125 7.90421875 9.91796875 8.47265625 C24.60436733 22.08115402 35.04522003 44.11756678 36.1184082 64.07543945 C36.71338465 82.30041272 34.15966909 97.43018418 25.99609375 113.80078125 C25.47144531 114.86296875 24.94679687 115.92515625 24.40625 117.01953125 C17.9529152 129.01105802 8.05963902 138.96786339 -3.00390625 146.80078125 C-3.72191406 147.31898438 -4.43992188 147.8371875 -5.1796875 148.37109375 C-16.59654284 155.90345772 -31.38828368 160.96105122 -45.00390625 161.80078125 C-46.13602539 161.87232422 -46.13602539 161.87232422 -47.29101562 161.9453125 C-74.18939901 163.41059409 -95.97838034 154.45452743 -116.08203125 136.99609375 C-127.3568212 126.38153925 -136.16859886 110.83518622 -140.00390625 95.80078125 C-140.27976563 94.8159375 -140.555625 93.83109375 -140.83984375 92.81640625 C-146.54392953 70.10472524 -142.33645704 46.86143149 -130.78515625 26.6171875 C-117.22126234 5.17076753 -96.80736194 -10.26500725 -71.87524414 -16.06982422 C-46.989149 -21.07859017 -20.4460624 -14.96896376 0 0 Z " fill="#FCFDFD" transform="translate(181.00390625,52.19921875)"/>
<path d="M0 0 C2.73941194 2.19525664 5.38288621 4.45732416 7.99609375 6.80078125 C8.6303125 7.3525 9.26453125 7.90421875 9.91796875 8.47265625 C24.60436733 22.08115402 35.04522003 44.11756678 36.1184082 64.07543945 C36.71338465 82.30041272 34.15966909 97.43018418 25.99609375 113.80078125 C25.47144531 114.86296875 24.94679687 115.92515625 24.40625 117.01953125 C17.9529152 129.01105802 8.05963902 138.96786339 -3.00390625 146.80078125 C-3.72191406 147.31898438 -4.43992188 147.8371875 -5.1796875 148.37109375 C-16.59654284 155.90345772 -31.38828368 160.96105122 -45.00390625 161.80078125 C-46.13602539 161.87232422 -46.13602539 161.87232422 -47.29101562 161.9453125 C-74.18939901 163.41059409 -95.97838034 154.45452743 -116.08203125 136.99609375 C-127.3568212 126.38153925 -136.16859886 110.83518622 -140.00390625 95.80078125 C-140.27976563 94.8159375 -140.555625 93.83109375 -140.83984375 92.81640625 C-146.54392953 70.10472524 -142.33645704 46.86143149 -130.78515625 26.6171875 C-117.22126234 5.17076753 -96.80736194 -10.26500725 -71.87524414 -16.06982422 C-46.989149 -21.07859017 -20.4460624 -14.96896376 0 0 Z M-112.00390625 9.80078125 C-112.638125 10.3525 -113.27234375 10.90421875 -113.92578125 11.47265625 C-128.36366306 24.85087701 -137.67295775 45.08117916 -138.4375 64.6328125 C-138.46118145 66.95951527 -138.46202531 69.28654933 -138.44140625 71.61328125 C-138.43238281 72.84014648 -138.42335938 74.06701172 -138.4140625 75.33105469 C-137.98100323 98.07268127 -128.96695948 117.31124516 -113.44140625 133.86328125 C-96.6866863 149.97753026 -75.3479492 158.37399567 -52.10913086 158.15234375 C-29.02935253 157.48544537 -9.54824181 148.63566846 6.99609375 132.80078125 C7.63417969 132.22585937 8.27226562 131.6509375 8.9296875 131.05859375 C22.29971917 118.61166003 30.05840479 98.67691172 31.99609375 80.80078125 C32.10282213 77.65315211 32.09158013 74.5122123 32.05859375 71.36328125 C32.05182617 70.12288086 32.05182617 70.12288086 32.04492188 68.85742188 C32.03325186 66.83850979 32.01532093 64.81963551 31.99609375 62.80078125 C28.4125703 65.80899899 24.97248225 68.78308844 21.80859375 72.23828125 C20.88046875 73.08390625 19.95234375 73.92953125 18.99609375 74.80078125 C15.62742211 74.54729705 14.00018588 73.14606148 11.74609375 70.73828125 C10.96492188 69.91650391 10.96492188 69.91650391 10.16796875 69.078125 C9.78125 68.65660156 9.39453125 68.23507813 8.99609375 67.80078125 C4.67104539 69.4594163 1.9019055 72.67182225 -1.25390625 75.92578125 C-2.08535156 76.77076172 -2.08535156 76.77076172 -2.93359375 77.6328125 C-4.2949511 79.01764153 -5.65005484 80.40861329 -7.00390625 81.80078125 C-6.35550781 82.72761719 -5.70710937 83.65445313 -5.0390625 84.609375 C-2.75968962 88.18374667 -2.21119971 89.66109153 -3.00390625 93.80078125 C-5.44140625 96.55078125 -5.44140625 96.55078125 -8.00390625 98.80078125 C-9.30936311 101.01555445 -9.30936311 101.01555445 -8.87890625 104.73828125 C-8.86515457 108.54062184 -8.86515457 108.54062184 -10.00390625 110.67578125 C-12.09509571 111.85207532 -13.72869281 112.20060175 -16.06640625 112.67578125 C-18.19309495 113.07816389 -18.19309495 113.07816389 -20.00390625 113.80078125 C-20.46796875 115.00734375 -20.46796875 115.00734375 -20.94140625 116.23828125 C-21.29203125 117.08390625 -21.64265625 117.92953125 -22.00390625 118.80078125 C-24.25727005 119.72061139 -26.53561997 120.32705238 -28.87890625 120.98046875 C-31.88418929 122.14059639 -32.72223964 123.93587942 -34.00390625 126.80078125 C-37.15302104 128.37533864 -39.52399441 128.14877243 -43.00390625 127.80078125 C-45.33860819 126.34604322 -47.01560878 124.74058366 -49.00390625 122.80078125 C-51.22697867 123.83292202 -52.94656917 124.74753967 -54.75390625 126.42578125 C-58.29112889 128.58741731 -60.89247267 128.19234635 -65.00390625 127.80078125 C-67.67822114 125.98914858 -67.96310984 124.92317048 -69.00390625 121.80078125 C-71.00951606 121.37335621 -73.0153907 120.94707562 -75.0234375 120.53125 C-78.16821018 119.37134371 -79.18908144 116.52301847 -81.00390625 113.80078125 C-83.04405794 113.05814935 -85.03525412 112.68181444 -87.1640625 112.26953125 C-89.00390625 111.80078125 -89.00390625 111.80078125 -91.00390625 110.17578125 C-92.23086245 107.26176027 -91.92651976 104.85583974 -91.77734375 101.74609375 C-92.15206809 98.528633 -94.76024784 96.9883482 -97.00390625 94.80078125 C-97.5553831 90.87150868 -97.5970224 88.764595 -95.50390625 85.36328125 C-95.00890625 84.84765625 -94.51390625 84.33203125 -94.00390625 83.80078125 C-95.6625413 79.47573289 -98.87494725 76.706593 -102.12890625 73.55078125 C-102.69222656 72.99648437 -103.25554687 72.4421875 -103.8359375 71.87109375 C-105.22076653 70.5097364 -106.61173829 69.15463266 -108.00390625 67.80078125 C-108.4628125 68.22230469 -108.92171875 68.64382812 -109.39453125 69.078125 C-110.008125 69.62597656 -110.62171875 70.17382812 -111.25390625 70.73828125 C-111.8571875 71.28355469 -112.46046875 71.82882813 -113.08203125 72.390625 C-116.39947161 74.82476315 -116.39947161 74.82476315 -119.00390625 74.80078125 C-121.12655922 73.10746262 -122.85316109 71.51319926 -124.69140625 69.55078125 C-125.18962891 69.04675781 -125.68785156 68.54273437 -126.20117188 68.0234375 C-128.50236697 65.64418287 -129.9450669 63.97729931 -131.00390625 60.80078125 C-126.14423601 63.30424774 -122.72533921 66.88630566 -119.00390625 70.80078125 C-115.77645101 69.38176463 -113.63132518 67.6722236 -111.15332031 65.17724609 C-110.41285461 64.43662933 -109.67238892 63.69601257 -108.90948486 62.93295288 C-108.12080017 62.13394562 -107.33211548 61.33493835 -106.51953125 60.51171875 C-105.70393738 59.69329498 -104.88834351 58.87487122 -104.04803467 58.03164673 C-101.44526063 55.41768152 -98.84952863 52.7968462 -96.25390625 50.17578125 C-94.49004285 48.40188671 -92.72572535 46.62844359 -90.9609375 44.85546875 C-86.63664489 40.50912983 -82.31811295 36.15713044 -78.00390625 31.80078125 C-79.49801532 28.64899835 -81.00802282 26.62574971 -83.56640625 24.23828125 C-86.0001692 21.96643185 -86.92650419 21.03298743 -88.00390625 17.80078125 C-84.29043129 19.87848038 -81.26033866 22.1664954 -78.19140625 25.11328125 C-77.40121094 25.85191406 -76.61101562 26.59054688 -75.796875 27.3515625 C-74.00390625 29.80078125 -74.00390625 29.80078125 -74.0546875 32.84375 C-74.32950196 35.92523591 -74.32950196 35.92523591 -72.02392578 37.95019531 C-68.20015262 40.29329964 -64.9870983 40.3954295 -60.6328125 40.3671875 C-59.83286362 40.37338608 -59.03291473 40.37958466 -58.20872498 40.38597107 C-56.52189344 40.39305441 -54.83499178 40.38992113 -53.14819336 40.37719727 C-50.57729429 40.36333994 -48.01004457 40.39740754 -45.43945312 40.43554688 C-43.79557203 40.43649828 -42.15168641 40.43463809 -40.5078125 40.4296875 C-39.36379723 40.44957481 -39.36379723 40.44957481 -38.19667053 40.46986389 C-32.50121051 40.37129418 -30.03001994 38.81415281 -26.00390625 34.80078125 C-26.27589844 34.094375 -26.54789062 33.38796875 -26.828125 32.66015625 C-27.00390625 29.80078125 -27.00390625 29.80078125 -24.8359375 26.94140625 C-23.84472412 25.9621352 -22.8374121 24.99894939 -21.81640625 24.05078125 C-21.32076172 23.55707031 -20.82511719 23.06335938 -20.31445312 22.5546875 C-17.71408064 20.04706278 -15.67665427 18.18646362 -12.00390625 17.80078125 C-14.50737274 22.66045149 -18.08943066 26.07934829 -22.00390625 29.80078125 C-20.58488963 33.02823649 -18.8753486 35.17336232 -16.38037109 37.65136719 C-15.63975433 38.39183289 -14.89913757 39.13229858 -14.13607788 39.89520264 C-13.33707062 40.68388733 -12.53806335 41.47257202 -11.71484375 42.28515625 C-10.89641998 43.10075012 -10.07799622 43.91634399 -9.23477173 44.75665283 C-6.62080652 47.35942687 -3.9999712 49.95515887 -1.37890625 52.55078125 C0.39498829 54.31464465 2.16843141 56.07896215 3.94140625 57.84375 C8.28774517 62.16804261 12.63974456 66.48657455 16.99609375 70.80078125 C20.10540287 68.98009463 22.67830926 67.33214253 25.12109375 64.67578125 C27.20582457 62.41074938 27.944607 61.8179435 30.99609375 60.80078125 C29.38094728 40.20766382 18.40289892 22.29442692 3.79296875 8.18359375 C-30.36291448 -20.91569224 -78.61185233 -20.14435097 -112.00390625 9.80078125 Z " fill="#66B839" transform="translate(181.00390625,52.19921875)"/>
<path d="M0 0 C0.77923828 0.63446045 0.77923828 0.63446045 1.57421875 1.28173828 C6.69424392 5.45855242 6.69424392 5.45855242 13 6.875 C13.763125 6.91367188 14.52625 6.95234375 15.3125 6.9921875 C15.869375 6.99476562 16.42625 6.99734375 17 7 C13.72359194 10.93168968 10.4265143 14.56601636 6.6875 18.0625 C4.12269251 20.59782694 3.0531288 21.85179861 1.8125 25.3125 C1.76131247 27.97142223 1.76131247 27.97142223 3.1796875 29.640625 C6.84207048 32.37562345 11.66084222 31.56570682 16 31 C19.34237086 29.29842938 21.34898239 27.81491016 23.67578125 24.90234375 C26.88111018 22.27882242 29.7789999 22.30142844 33.75 22.3125 C34.42804688 22.27189453 35.10609375 22.23128906 35.8046875 22.18945312 C41.24957292 22.1532229 43.93838406 24.0556803 47.78173828 27.76928711 C48.51376465 28.50542236 49.24579102 29.24155762 50 30 C51.38358803 31.30708258 52.76726785 32.6140702 54.15292358 33.91896057 C56.14295188 35.80836623 58.10168031 37.72847713 60.05786133 39.65283203 C61.07099522 40.64410209 62.0903577 41.62904145 63.11547852 42.60791016 C64.61372325 44.03952935 66.09156694 45.48964047 67.56640625 46.9453125 C68.44240479 47.79625488 69.31840332 48.64719727 70.22094727 49.52392578 C72 52 72 52 71.90209961 54.69091797 C71 57 71 57 69 59 C64.87595496 58.95922554 63.23543326 58.20175498 60.078125 55.49609375 C59.12226327 54.48888408 58.17969058 53.46891573 57.25 52.4375 C55.53327644 50.58040093 53.79705776 48.78237591 52 47 C51.34 47 50.68 47 50 47 C51.34697885 50.03999336 52.81164992 52.00266578 55.2578125 54.2421875 C56.19560547 55.12970703 56.19560547 55.12970703 57.15234375 56.03515625 C58.467754 57.26200422 59.79072425 58.48079604 61.12109375 59.69140625 C65.87043232 64.22441884 65.87043232 64.22441884 66.5546875 68.3203125 C66 71 66 71 64 73 C60.9399542 73.43871737 59.53475296 73.39065982 57.01123047 71.54711914 C56.38619629 70.88317139 55.76116211 70.21922363 55.1171875 69.53515625 C54.07884766 68.45911133 54.07884766 68.45911133 53.01953125 67.36132812 C52.31183594 66.60271484 51.60414063 65.84410156 50.875 65.0625 C49.46020913 63.56995936 48.04112212 62.08147597 46.6171875 60.59765625 C45.99440918 59.93258057 45.37163086 59.26750488 44.72998047 58.58227539 C42.98177897 56.76785768 42.98177897 56.76785768 40 56 C42.52571838 61.96745434 46.2331798 65.38507207 50.96875 69.58789062 C52.578125 71.09765625 52.578125 71.09765625 55 74 C54.92741232 76.609527 54.87867755 78.12132245 53 80 C50.390625 80.5 50.390625 80.5 47 80 C44.26393972 77.96680856 42.04069474 75.51394041 39.75 73 C38.51990226 71.68349043 37.28572931 70.37077287 36.046875 69.0625 C35.50901367 68.47597656 34.97115234 67.88945312 34.41699219 67.28515625 C33.07192173 65.77606386 33.07192173 65.77606386 31 66 C31.45883878 71.00016614 35.63375789 73.71429918 39.13867188 76.84570312 C41.52004869 79.08351069 42.90558415 80.44699286 43.46484375 83.72265625 C43 86 43 86 41 88 C38.75 88.5 38.75 88.5 36 88 C32.17843229 85.36152205 30.23892768 82.86611286 29 78.375 C28.31801729 74.73628343 28.31801729 74.73628343 24.9375 73 C23.968125 72.34 22.99875 71.68 22 71 C21.66073053 68.66752239 21.32759934 66.33414529 21 64 C19.01739574 62.31267723 17.0167658 60.64633943 15 59 C13.8125 55.375 13.8125 55.375 13 52 C11.23182482 49.47403546 10.32885503 49.08412571 7.3125 48.3125 C6.549375 48.209375 5.78625 48.10625 5 48 C4.731875 46.88625 4.46375 45.7725 4.1875 44.625 C3.34190981 40.78159049 3.34190981 40.78159049 0 39 C-6.30373234 38.28636992 -7.27593782 39.18395855 -13 43 C-17.62 38.38 -22.24 33.76 -27 29 C-24.95538352 24.91076705 -22.53996717 22.2830098 -19.3359375 19.140625 C-18.78386627 18.59138367 -18.23179504 18.04214233 -17.66299438 17.47625732 C-15.90498185 15.72940707 -14.1401311 13.98965399 -12.375 12.25 C-11.1792292 11.06426409 -9.98391135 9.8780712 -8.7890625 8.69140625 C-5.86459747 5.78894915 -2.93398126 2.8928359 0 0 Z " fill="#FBFCFC" transform="translate(103,89)"/>
<path d="M0 0 C2.73941194 2.19525664 5.38288621 4.45732416 7.99609375 6.80078125 C8.6303125 7.3525 9.26453125 7.90421875 9.91796875 8.47265625 C24.60436733 22.08115402 35.04522003 44.11756678 36.1184082 64.07543945 C36.71338465 82.30041272 34.15966909 97.43018418 25.99609375 113.80078125 C25.47144531 114.86296875 24.94679687 115.92515625 24.40625 117.01953125 C17.9529152 129.01105802 8.05963902 138.96786339 -3.00390625 146.80078125 C-3.72191406 147.31898438 -4.43992188 147.8371875 -5.1796875 148.37109375 C-16.59654284 155.90345772 -31.38828368 160.96105122 -45.00390625 161.80078125 C-46.13602539 161.87232422 -46.13602539 161.87232422 -47.29101562 161.9453125 C-74.18939901 163.41059409 -95.97838034 154.45452743 -116.08203125 136.99609375 C-127.3568212 126.38153925 -136.16859886 110.83518622 -140.00390625 95.80078125 C-140.27976563 94.8159375 -140.555625 93.83109375 -140.83984375 92.81640625 C-146.54392953 70.10472524 -142.33645704 46.86143149 -130.78515625 26.6171875 C-117.22126234 5.17076753 -96.80736194 -10.26500725 -71.87524414 -16.06982422 C-46.989149 -21.07859017 -20.4460624 -14.96896376 0 0 Z M-112.00390625 9.80078125 C-112.638125 10.3525 -113.27234375 10.90421875 -113.92578125 11.47265625 C-128.36366306 24.85087701 -137.67295775 45.08117916 -138.4375 64.6328125 C-138.46118145 66.95951527 -138.46202531 69.28654933 -138.44140625 71.61328125 C-138.43238281 72.84014648 -138.42335938 74.06701172 -138.4140625 75.33105469 C-137.98100323 98.07268127 -128.96695948 117.31124516 -113.44140625 133.86328125 C-96.6866863 149.97753026 -75.3479492 158.37399567 -52.10913086 158.15234375 C-29.02935253 157.48544537 -9.54824181 148.63566846 6.99609375 132.80078125 C7.63417969 132.22585937 8.27226562 131.6509375 8.9296875 131.05859375 C23.30442676 117.67631979 31.08465961 96.05609686 32.234375 76.8125 C32.85920603 52.34513488 25.15982182 31.0956261 8.26171875 13.10546875 C7.5140625 12.34492187 6.76640625 11.584375 5.99609375 10.80078125 C5.3103125 10.10210937 4.62453125 9.4034375 3.91796875 8.68359375 C-12.29190275 -6.74580246 -34.78717259 -13.87414415 -56.796875 -13.3828125 C-77.8264219 -12.61801533 -96.43545221 -4.16060656 -112.00390625 9.80078125 Z " fill="#294783" transform="translate(181.00390625,52.19921875)"/>
<path d="M0 0 C2.9375 2.1875 2.9375 2.1875 5 5 C5.3125 7.8125 5.3125 7.8125 5 10 C5.721875 9.87625 6.44375 9.7525 7.1875 9.625 C10 10 10 10 12.75 12.6875 C14.38127117 14.82572006 14.97629877 15.8611785 15.4375 18.5625 C15.81577668 21.37387349 15.81577668 21.37387349 19.0625 23.375 C22 26 22 26 22.375 29.8125 C22.189375 31.3903125 22.189375 31.3903125 22 33 C22.763125 33.2475 23.52625 33.495 24.3125 33.75 C27.37480696 35.17432882 28.52390425 35.96580319 30 39 C30.10767131 44.70657924 28.15333966 47.58380961 24.47265625 51.6171875 C21.5843423 54.32929132 18.86343509 54.33146475 14.9765625 54.2890625 C13 54 13 54 10.5 52.1875 C9 50 9 50 9 47 C8.113125 47.0825 7.22625 47.165 6.3125 47.25 C2.23993739 46.94263678 0.81692104 45.8974045 -2 43 C-2.8125 40.75 -2.8125 40.75 -3 39 C-3.886875 39.0825 -4.77375 39.165 -5.6875 39.25 C-9.72466718 38.94530814 -11.13864711 37.77959995 -14 35 C-15 33 -15 33 -14.75 29.1875 C-14.64304004 27.03434133 -14.64304004 27.03434133 -15 25 C-16.6459651 23.31288577 -18.31237149 21.6454378 -20 20 C-20.66749489 15.92086456 -20.3464105 13.72294365 -18.5625 10 C-13.65544215 4.25515178 -8.1208465 -1.8740415 0 0 Z " fill="#66B839" transform="translate(103,127)"/>
<path d="M0 0 C6.36590304 5.24458586 12.13570612 11.02097322 17.9375 16.875 C18.91708237 17.85960919 19.89689837 18.843986 20.87695312 19.828125 C23.25360252 22.21648203 25.62787356 24.60715212 28 27 C26.71825282 29.81878012 25.38992385 31.85241496 23.1796875 34.015625 C22.64472656 34.54414062 22.10976562 35.07265625 21.55859375 35.6171875 C21.00300781 36.15601563 20.44742188 36.69484375 19.875 37.25 C19.31167969 37.80429688 18.74835938 38.35859375 18.16796875 38.9296875 C16.78313972 40.29104485 15.39216796 41.64614859 14 43 C12.87105124 42.06725891 11.74699124 41.12859878 10.625 40.1875 C9.99851563 39.66542969 9.37203125 39.14335937 8.7265625 38.60546875 C7 37 7 37 5 34 C5.32355469 33.44183594 5.64710938 32.88367188 5.98046875 32.30859375 C7.73879164 28.32710398 7.44916112 24.27048572 7 20 C5.9550894 16.94374767 5.9550894 16.94374767 4 15 C1.91466367 14.12177688 1.91466367 14.12177688 0 14 C0.66 14.99 1.32 15.98 2 17 C4.41202873 21.18482722 4.40415321 24.23099217 4 29 C3.67 29.66 3.34 30.32 3 31 C-0.96528893 29.26083819 -3.30439938 26.78255339 -6.21875 23.65625 C-11.65500872 18.60148312 -18.57316772 19.30410617 -25.609375 19.46875 C-30.61335679 19.83972759 -33.39137111 21.5942794 -36.6875 25.37109375 C-37.120625 25.90863281 -37.55375 26.44617188 -38 27 C-40.40545638 28.20272819 -41.94996953 28.10071472 -44.625 28.0625 C-45.85089844 28.04896484 -45.85089844 28.04896484 -47.1015625 28.03515625 C-47.72804688 28.02355469 -48.35453125 28.01195313 -49 28 C-49 24 -49 24 -47.56298828 22.09301758 C-46.90540527 21.45001709 -46.24782227 20.8070166 -45.5703125 20.14453125 C-44.85746094 19.44005859 -44.14460938 18.73558594 -43.41015625 18.00976562 C-42.65605469 17.28466797 -41.90195313 16.55957031 -41.125 15.8125 C-40.37863281 15.07580078 -39.63226563 14.33910156 -38.86328125 13.58007812 C-32.04866309 6.90666376 -32.04866309 6.90666376 -26.203125 6.7890625 C-25.2440625 6.76070313 -24.285 6.73234375 -23.296875 6.703125 C-21.28142631 6.65144683 -19.26577622 6.60705842 -17.25 6.5703125 C-10.03234664 6.33873004 -5.15276571 5.35296394 0 0 Z " fill="#FAFCF9" transform="translate(158,89)"/>
<path d="M0 0 C3.16842693 0.25689948 4.60962957 0.58270747 6.8125 2.9375 C8.82785089 8.13498387 8.88354578 13.56263232 6.98046875 18.8125 C6.65691406 19.534375 6.33335937 20.25625 6 21 C6.91523438 21.90363281 7.83046875 22.80726562 8.7734375 23.73828125 C9.97409058 24.92955423 11.17460415 26.12096783 12.375 27.3125 C12.97828125 27.90740234 13.5815625 28.50230469 14.203125 29.11523438 C15.07324219 29.98051758 15.07324219 29.98051758 15.9609375 30.86328125 C16.76217041 31.65665894 16.76217041 31.65665894 17.57958984 32.46606445 C19.8205079 34.88608647 20.9454433 36.58173197 21.375 39.875 C20.81297092 44.55857565 18.22740647 46.77259353 15 50 C15.04125 51.27875 15.0825 52.5575 15.125 53.875 C15.21946678 57.1281998 15.20565404 57.73264974 13.125 60.4375 C9.56200114 63.05735211 7.39290498 63.09549793 3 63 C2.9071875 64.1446875 2.9071875 64.1446875 2.8125 65.3125 C2 68 2 68 -0.25 69.8125 C-3.10589601 71.04572782 -4.92964256 71.26317349 -8 71 C-8.268125 71.78375 -8.53625 72.5675 -8.8125 73.375 C-10 76 -10 76 -13 78 C-16.56700771 78.54877042 -18.94287786 78.70611653 -22.01171875 76.65625 C-23.74771042 75.16322674 -25.39843252 73.63564338 -27 72 C-26.67 70.68 -26.34 69.36 -26 68 C-23.76787927 69.00060584 -22.19744831 69.77679757 -20.5625 71.625 C-19.01540631 73.25744398 -19.01540631 73.25744398 -16.375 73.25 C-14.04703565 73.25676839 -14.04703565 73.25676839 -13 72 C-12.40696193 69.71751095 -12.40696193 69.71751095 -13 67 C-14.97171561 64.79665848 -16.86747253 62.887273 -19.0625 60.9375 C-21.21199836 59.02656972 -23.07601246 57.161884 -25 55 C-24.65795898 52.82250977 -24.65795898 52.82250977 -24 51 C-19.11746205 52.84555262 -15.9906822 57.03982578 -12.59765625 60.83203125 C-9.9258282 63.65419233 -8.54892648 64.94041676 -4.6171875 65.3671875 C-3.32167969 65.18542969 -3.32167969 65.18542969 -2 65 C-0.9237028 62.84035037 -0.9237028 62.84035037 -1 60 C-2.80385341 57.50259877 -5.08124626 55.54257823 -7.375 53.5 C-13.76889586 47.73479264 -13.76889586 47.73479264 -14.9140625 44.09375 C-14.94242188 43.4028125 -14.97078125 42.711875 -15 42 C-11.46133527 42.57369335 -9.91436567 43.76940259 -7.50390625 46.37890625 C-6.86259766 47.05244141 -6.22128906 47.72597656 -5.56054688 48.41992188 C-4.22837887 49.84845394 -2.90024413 51.28075784 -1.57617188 52.71679688 C-0.93357422 53.38904297 -0.29097656 54.06128906 0.37109375 54.75390625 C0.94786865 55.37595947 1.52464355 55.9980127 2.11889648 56.63891602 C4.55013033 58.39805018 6.06404597 58.33358232 9 58 C10.25550542 56.9236363 10.25550542 56.9236363 10.5625 54.4609375 C9.67387221 48.99340821 5.93690247 46.30254572 2 42.625 C1.236875 41.88894531 0.47375 41.15289062 -0.3125 40.39453125 C-2.19554387 38.58210152 -4.09111959 36.78513318 -6 35 C-5.67 34.01 -5.34 33.02 -5 32 C-0.39139239 33.90808867 2.29660648 37.37169444 5.5859375 41.00390625 C8.45653337 43.37748957 10.30301064 43.8726932 14 44 C14.66 43.34 15.32 42.68 16 42 C15.93535918 36.96623323 12.83083348 34.23356623 9.4609375 30.89453125 C8.90185699 30.32925217 8.34277649 29.76397308 7.76675415 29.18156433 C6.58307599 27.99079551 5.39425098 26.80512374 4.20068359 25.62426758 C2.38620893 23.82362349 0.59695784 22.00036303 -1.19140625 20.17382812 C-2.34750628 19.01677648 -3.50501447 17.86112979 -4.6640625 16.70703125 C-5.19351471 16.16432083 -5.72296692 15.62161041 -6.26846313 15.06245422 C-9.976515 11.44433065 -12.91898178 10.05305042 -18 9 C-18 7.68 -18 6.36 -18 5 C-12.63262463 4.48882139 -10.18477878 5.6692577 -6 9 C-4.12669724 10.79868483 -2.3050463 12.62960221 -0.515625 14.51171875 C0.94925826 16.10278722 0.94925826 16.10278722 3 17 C3.08153933 15.41753293 3.13943557 13.83383727 3.1875 12.25 C3.22230469 11.36828125 3.25710937 10.4865625 3.29296875 9.578125 C2.94608156 6.52551769 1.88665282 5.35707806 0 3 C0 2.01 0 1.02 0 0 Z " fill="#274682" transform="translate(158,103)"/>
<path d="M0 0 C0 0.33 0 0.66 0 1 C-6.27 1.33 -12.54 1.66 -19 2 C-18.01 3.485 -18.01 3.485 -17 5 C-17.77601562 5.08636719 -18.55203125 5.17273437 -19.3515625 5.26171875 C-42.94426831 8.33045972 -63.39245561 20.22579287 -78 39 C-81.00500515 43.48510143 -83.53535256 48.20222924 -86 53 C-86.42152344 53.80308594 -86.84304687 54.60617188 -87.27734375 55.43359375 C-93.95295643 69.16268399 -93.66962843 84.0712205 -94 99 C-94.66 99 -95.32 99 -96 99 C-96.99 99.99 -96.99 99.99 -98 101 C-103.1320768 90.7358464 -98.15750309 71.7173323 -94.8984375 61.5703125 C-85.63641151 36.17443477 -68.83249066 18.76121729 -44.75 6.75 C-29.99101809 0.28853184 -15.9478008 -0.56121293 0 0 Z " fill="#274682" transform="translate(137,35)"/>
<path d="M0 0 C4.33092333 0.4640275 6.80911857 3.25819685 9.75 6.1875 C10.25660156 6.65736328 10.76320312 7.12722656 11.28515625 7.61132812 C13.89796741 10.1924475 14.98618349 11.43835879 15.078125 15.17578125 C15.03945312 16.57376953 15.03945312 16.57376953 15 18 C17.30360251 20.72825651 18.91385457 20.9872341 22.453125 21.51171875 C23.70609375 21.56972656 24.9590625 21.62773438 26.25 21.6875 C28.14492187 21.78611328 28.14492187 21.78611328 30.078125 21.88671875 C31.04234375 21.92410156 32.0065625 21.96148437 33 22 C29.72878283 24.91678689 27.63051461 26.58193362 23.1875 26.625 C22.00220703 26.67527344 22.00220703 26.67527344 20.79296875 26.7265625 C18 26 18 26 10 20 C1.42 28.58 -7.16 37.16 -16 46 C-13.96986589 50.06026821 -11.57604446 52.65457376 -8.375 55.75 C-7.859375 56.25660156 -7.34375 56.76320312 -6.8125 57.28515625 C-5.54616661 58.52803902 -4.2736856 59.76465276 -3 61 C-3.33 61.99 -3.66 62.98 -4 64 C-7.16854747 63.42308522 -8.78226459 62.58353113 -11.015625 60.27734375 C-11.54414062 59.73916016 -12.07265625 59.20097656 -12.6171875 58.64648438 C-13.15601562 58.08251953 -13.69484375 57.51855469 -14.25 56.9375 C-14.80429688 56.36966797 -15.35859375 55.80183594 -15.9296875 55.21679688 C-17.29334214 53.81787531 -18.64760417 52.40980886 -20 51 C-20.45890625 51.42152344 -20.9178125 51.84304687 -21.390625 52.27734375 C-22.00421875 52.82519531 -22.6178125 53.37304688 -23.25 53.9375 C-23.85328125 54.48277344 -24.4565625 55.02804688 -25.078125 55.58984375 C-27.16566086 57.12155197 -28.44262602 57.67791336 -31 58 C-33.30764589 56.14670926 -35.22871136 54.37767226 -37.25 52.25 C-37.80429687 51.69828125 -38.35859375 51.1465625 -38.9296875 50.578125 C-43 46.4075585 -43 46.4075585 -43 43 C-39.12488273 43.54984772 -37.40423494 45.27555331 -34.75 48.0625 C-33.69039062 49.16271484 -33.69039062 49.16271484 -32.609375 50.28515625 C-32.07828125 50.85105469 -31.5471875 51.41695312 -31 52 C-27.81740149 50.59490901 -25.68651534 48.93078658 -23.24121094 46.46826172 C-22.52076599 45.74766571 -21.80032104 45.0270697 -21.05804443 44.28463745 C-20.29123352 43.50750397 -19.52442261 42.73037048 -18.734375 41.9296875 C-17.94097717 41.13345978 -17.14757935 40.33723206 -16.33013916 39.51687622 C-13.79869297 36.97424052 -11.27429197 34.42473652 -8.75 31.875 C-7.03431383 30.14928247 -5.31817338 28.42401645 -3.6015625 26.69921875 C0.60424248 22.47136968 4.80428507 18.23786131 9 14 C7.10938564 10.0019767 4.70075295 7.6523226 1.4609375 4.68359375 C0 3 0 3 0 0 Z " fill="#264481" transform="translate(93,70)"/>
<path d="M0 0 C3.16842693 0.25689948 4.60962957 0.58270747 6.8125 2.9375 C8.82785089 8.13498387 8.88354578 13.56263232 6.98046875 18.8125 C6.65691406 19.534375 6.33335937 20.25625 6 21 C6.91523438 21.90363281 7.83046875 22.80726562 8.7734375 23.73828125 C9.97409058 24.92955423 11.17460415 26.12096783 12.375 27.3125 C12.97828125 27.90740234 13.5815625 28.50230469 14.203125 29.11523438 C15.07324219 29.98051758 15.07324219 29.98051758 15.9609375 30.86328125 C16.76217041 31.65665894 16.76217041 31.65665894 17.57958984 32.46606445 C20.01491752 35.09603416 20.98286273 36.56299955 21.125 40.1875 C21.08375 41.115625 21.0425 42.04375 21 43 C20.34 43 19.68 43 19 43 C18.90517334 42.40340576 18.81034668 41.80681152 18.71264648 41.19213867 C17.83582759 38.49499688 16.80285731 37.68038222 14.59765625 35.92578125 C11.15100952 33.04755854 7.99164198 30.02298946 4.87109375 26.79296875 C3.53594727 25.41915039 3.53594727 25.41915039 2.17382812 24.01757812 C0.33794668 22.1187971 -1.49011008 20.2124216 -3.31054688 18.29882812 C-4.19935547 17.38939453 -5.08816406 16.47996094 -6.00390625 15.54296875 C-6.79611572 14.71821045 -7.5883252 13.89345215 -8.40454102 13.04370117 C-11.60685098 10.52215694 -14.05282949 9.88665475 -18 9 C-18 7.68 -18 6.36 -18 5 C-12.63262463 4.48882139 -10.18477878 5.6692577 -6 9 C-4.12669724 10.79868483 -2.3050463 12.62960221 -0.515625 14.51171875 C0.94925826 16.10278722 0.94925826 16.10278722 3 17 C3.08153933 15.41753293 3.13943557 13.83383727 3.1875 12.25 C3.22230469 11.36828125 3.25710937 10.4865625 3.29296875 9.578125 C2.94608156 6.52551769 1.88665282 5.35707806 0 3 C0 2.01 0 1.02 0 0 Z " fill="#2C4B82" transform="translate(158,103)"/>
<path d="M0 0 C-1.31523124 3.57281889 -2.96454402 6.84163177 -4.81811523 10.16430664 C-10.79356327 20.89637144 -14.84940515 31.42705122 -15.31640625 43.8359375 C-15.35830078 44.89941406 -15.40019531 45.96289062 -15.44335938 47.05859375 C-15.48267578 48.15300781 -15.52199219 49.24742188 -15.5625 50.375 C-15.60568359 51.49261719 -15.64886719 52.61023438 -15.69335938 53.76171875 C-15.79897411 56.50770199 -15.9010797 59.25376881 -16 62 C-16.66 62 -17.32 62 -18 62 C-18.66 62.66 -19.32 63.32 -20 64 C-25.1320768 53.7358464 -20.15750309 34.7173323 -16.8984375 24.5703125 C-7.9375 0 -7.9375 0 0 0 Z " fill="#254481" transform="translate(59,72)"/>
<path d="M0 0 C2.69921875 0.57421875 2.69921875 0.57421875 4.69921875 3.57421875 C4.11206368 9.93081057 -2.53197147 15.00306876 -6.92578125 19.13671875 C-9.34267663 21.14084099 -9.87267546 21.57421875 -13.11328125 21.57421875 C-15.30078125 20.57421875 -15.30078125 20.57421875 -17.30078125 18.57421875 C-17.32510617 14.00924157 -14.89954551 11.60530594 -11.88476562 8.51367188 C-11.30017578 7.93552734 -10.71558594 7.35738281 -10.11328125 6.76171875 C-9.26540039 5.86549805 -9.26540039 5.86549805 -8.40039062 4.95117188 C-5.55940504 2.10367774 -4.04770709 0.70415733 0 0 Z " fill="#F6FBF4" transform="translate(109.30078125,140.42578125)"/>
<path d="M0 0 C4.88106404 1.86112514 8.0333916 6.00031468 11.49023438 9.74414062 C14.50733056 12.8915815 16.55982101 14.73015487 21 15 C20.67 15.99 20.34 16.98 20 18 C20.33 18.66 20.66 19.32 21 20 C19.35 20 17.7 20 16 20 C15.731875 20.78375 15.46375 21.5675 15.1875 22.375 C14 25 14 25 11 27 C7.43299229 27.54877042 5.05712214 27.70611653 1.98828125 25.65625 C0.25228958 24.16322674 -1.39843252 22.63564338 -3 21 C-2.67 19.68 -2.34 18.36 -2 17 C0.23212073 18.00060584 1.80255169 18.77679757 3.4375 20.625 C4.98459369 22.25744398 4.98459369 22.25744398 7.625 22.25 C9.95296435 22.25676839 9.95296435 22.25676839 11 21 C11.59303807 18.71751095 11.59303807 18.71751095 11 16 C9.02828439 13.79665848 7.13252747 11.887273 4.9375 9.9375 C2.78800164 8.02656972 0.92398754 6.161884 -1 4 C-0.65795898 1.82250977 -0.65795898 1.82250977 0 0 Z " fill="#2E4C86" transform="translate(134,154)"/>
<path d="M0 0 C2.7265625 0.8515625 2.7265625 0.8515625 3.7265625 1.8515625 C4.16184689 5.5593464 4.12836454 7.28693871 1.93359375 10.37109375 C1.14339844 11.12777344 0.35320312 11.88445312 -0.4609375 12.6640625 C-1.23824219 13.43363281 -2.01554687 14.20320312 -2.81640625 14.99609375 C-5.42693729 16.96748047 -7.03399704 17.6162653 -10.2734375 17.8515625 C-12.0859375 16.7265625 -12.0859375 16.7265625 -13.2734375 14.8515625 C-13.63671875 12.5703125 -13.63671875 12.5703125 -13.2734375 9.8515625 C-11.296875 7.140625 -11.296875 7.140625 -8.6484375 4.4765625 C-7.78992188 3.58195313 -6.93140625 2.68734375 -6.046875 1.765625 C-3.2734375 -0.1484375 -3.2734375 -0.1484375 0 0 Z " fill="#F6FBF3" transform="translate(117.2734375,152.1484375)"/>
<path d="M0 0 C2.29296875 0.41796875 2.29296875 0.41796875 4.29296875 2.41796875 C4.7109375 4.7109375 4.7109375 4.7109375 4.29296875 7.41796875 C2.28125 10.09375 2.28125 10.09375 -0.39453125 12.73046875 C-1.26464844 13.61347656 -2.13476562 14.49648437 -3.03125 15.40625 C-5.70703125 17.41796875 -5.70703125 17.41796875 -8.4140625 17.8359375 C-10.70703125 17.41796875 -10.70703125 17.41796875 -12.70703125 15.41796875 C-13.125 13.125 -13.125 13.125 -12.70703125 10.41796875 C-10.6953125 7.7421875 -10.6953125 7.7421875 -8.01953125 5.10546875 C-7.14941406 4.22246094 -6.27929688 3.33945313 -5.3828125 2.4296875 C-2.70703125 0.41796875 -2.70703125 0.41796875 0 0 Z " fill="#FCFDFB" transform="translate(99.70703125,130.58203125)"/>
<path d="M0 0 C0.66773437 0.268125 1.33546875 0.53625 2.0234375 0.8125 C3.00570312 1.204375 3.98796875 1.59625 5 2 C6.18851562 2.474375 7.37703125 2.94875 8.6015625 3.4375 C16.32989724 6.46104821 23.70649265 8.98088257 32 10 C31.67 11.32 31.34 12.64 31 14 C37.6 14 44.2 14 51 14 C51 14.33 51 14.66 51 15 C32.63902538 15.82213319 16.45335705 13.68885147 0 5 C0 3.35 0 1.7 0 0 Z " fill="#2C4A85" transform="translate(85,199)"/>
<path d="M0 0 C4.60860761 1.90808867 7.29660648 5.37169444 10.5859375 9.00390625 C13.45653337 11.37748957 15.30301064 11.8726932 19 12 C20.95216435 10.04783565 21.84826645 8.46800047 23 6 C23.66 8.31 24.32 10.62 25 13 C24.175 13.70125 23.35 14.4025 22.5 15.125 C19.69576604 17.78627227 19.69576604 17.78627227 19.6875 21.3125 C19.790625 22.199375 19.89375 23.08625 20 24 C19.01 24 18.02 24 17 24 C16.66355469 23.17242187 16.32710937 22.34484375 15.98046875 21.4921875 C13.68777241 16.90679482 9.96321388 13.64277472 6.3125 10.125 C5.61060547 9.43664062 4.90871094 8.74828125 4.18554688 8.0390625 C2.46367145 6.35232739 0.73517426 4.67303303 -1 3 C-0.67 2.01 -0.34 1.02 0 0 Z " fill="#1F3F7D" transform="translate(153,135)"/>
<path d="M0 0 C3.9791034 -0.05868218 7.95809353 -0.0938239 11.9375 -0.125 C13.05447266 -0.14175781 14.17144531 -0.15851562 15.32226562 -0.17578125 C23.73899389 -0.22514623 31.26430568 0.50646063 39 4 C39 4.99 39 5.98 39 7 C34.68680362 6.51171362 30.49614637 5.89886827 26.25 5 C17.61848854 3.35940066 8.75908055 3.32599908 0 3 C0 2.01 0 1.02 0 0 Z " fill="#22427F" transform="translate(117,36)"/>
<path d="M0 0 C2 2 2 2 2.5 4.25 C1.75037691 8.372927 -0.62422584 10.62504359 -4 13 C-6.75 13.5 -6.75 13.5 -9 13 C-11 11 -11 11 -11.5 8.1875 C-11 5 -11 5 -8.3125 2.125 C-5.03155529 0.02024302 -3.76684024 -0.73244116 0 0 Z " fill="#F6FBF4" transform="translate(127,164)"/>
<path d="M0 0 C0.95648438 0.00902344 1.91296875 0.01804688 2.8984375 0.02734375 C5.22423525 0.05060173 7.54947294 0.08327787 9.875 0.125 C9.875 0.455 9.875 0.785 9.875 1.125 C3.605 1.455 -2.665 1.785 -9.125 2.125 C-8.135 3.61 -8.135 3.61 -7.125 5.125 C-7.93582031 5.23457031 -8.74664062 5.34414063 -9.58203125 5.45703125 C-16.94942899 6.51196713 -23.99776855 7.98254566 -31.125 10.125 C-31.785 8.805 -32.445 7.485 -33.125 6.125 C-31.33619723 5.49184988 -29.54374802 4.86900121 -27.75 4.25 C-26.75226563 3.90195312 -25.75453125 3.55390625 -24.7265625 3.1953125 C-16.39592054 0.71961196 -8.67901062 -0.15846508 0 0 Z " fill="#3C588E" transform="translate(127.125,34.875)"/>
<path d="M0 0 C0.99 0 1.98 0 3 0 C3 2.31 3 4.62 3 7 C3.66 7 4.32 7 5 7 C5 7.66 5 8.32 5 9 C4.154375 9.185625 3.30875 9.37125 2.4375 9.5625 C-1.53088945 11.22200832 -3.47937491 13.26896557 -6.2890625 16.44140625 C-8.22355869 18.20365278 -9.5127002 18.38578923 -12 19 C-12.66 19.99 -13.32 20.98 -14 22 C-17.625 22.1875 -17.625 22.1875 -21 22 C-20.505 20.515 -20.505 20.515 -20 19 C-19.030625 18.814375 -18.06125 18.62875 -17.0625 18.4375 C-10.96862453 16.94872711 -6.86370119 11.64613531 -3 7 C-1.60007113 4.62347405 -0.80671052 2.65062028 0 0 Z " fill="#5EB52E" transform="translate(114,143)"/>
<path d="M0 0 C0 7.26 0 14.52 0 22 C-0.66 22 -1.32 22 -2 22 C-2.66 22.66 -3.32 23.32 -4 24 C-5.76279117 20.47441767 -5.22713881 16.44604409 -5.25 12.5625 C-5.270625 11.69044922 -5.29125 10.81839844 -5.3125 9.91992188 C-5.31765625 9.08138672 -5.3228125 8.24285156 -5.328125 7.37890625 C-5.3374707 6.6113501 -5.34681641 5.84379395 -5.35644531 5.05297852 C-4.80529575 1.87858351 -3.30886583 0 0 0 Z " fill="#4C6698" transform="translate(43,112)"/>
<path d="M0 0 C2.625 -0.5 2.625 -0.5 6 0 C7.22460938 1.37695312 7.22460938 1.37695312 8.46875 3.28125 C12.90098513 9.49989798 18.4502523 14.66323015 23.875 20 C24.95619634 21.07114323 26.03692927 22.14275444 27.1171875 23.21484375 C29.73947435 25.81530944 32.36796378 28.40939811 35 31 C34.67 31.66 34.34 32.32 34 33 C33.21874756 32.19256348 32.43749512 31.38512695 31.63256836 30.55322266 C28.71760268 27.54743439 25.78585553 24.55848862 22.84887695 21.57421875 C21.58255108 20.28282193 20.32075806 18.98696338 19.0637207 17.68652344 C17.25097889 15.81280693 15.42228209 13.95599655 13.58984375 12.1015625 C13.03538071 11.52129303 12.48091766 10.94102356 11.90965271 10.34317017 C8.1369826 6.56786175 5.24699257 5.05114074 0 4 C0 2.68 0 1.36 0 0 Z " fill="#22427E" transform="translate(140,108)"/>
<path d="M0 0 C3.16842693 0.25689948 4.60962957 0.58270747 6.8125 2.9375 C8.49042652 7.26478419 8.57482537 11.40886232 8 16 C6.98046875 18.30859375 6.98046875 18.30859375 6 20 C3.525 19.01 3.525 19.01 1 18 C1.66 17.67 2.32 17.34 3 17 C3.08153933 15.41753293 3.13943557 13.83383727 3.1875 12.25 C3.22230469 11.36828125 3.25710937 10.4865625 3.29296875 9.578125 C2.94608156 6.52551769 1.88665282 5.35707806 0 3 C0 2.01 0 1.02 0 0 Z " fill="#6CBB41" transform="translate(158,103)"/>
<path d="M0 0 C8.25 0 16.5 0 25 0 C24.67 0.99 24.34 1.98 24 3 C16.41 3 8.82 3 1 3 C0.67 2.01 0.34 1.02 0 0 Z " fill="#1A3A7A" transform="translate(115,210)"/>
<path d="M0 0 C0.66 0 1.32 0 2 0 C3.85743168 6.11404596 5.42765417 11.58518742 5 18 C4.01 17.67 3.02 17.34 2 17 C2 15.35 2 13.7 2 12 C1.01 12.495 1.01 12.495 0 13 C-0.38885039 11.21128822 -0.76069196 9.41887126 -1.125 7.625 C-1.33382812 6.62726563 -1.54265625 5.62953125 -1.7578125 4.6015625 C-1.83773437 3.74304688 -1.91765625 2.88453125 -2 2 C-1.34 1.34 -0.68 0.68 0 0 Z " fill="#335089" transform="translate(211,96)"/>
<path d="M0 0 C1.32 0.66 2.64 1.32 4 2 C2.67363911 12.12222782 2.67363911 12.12222782 -0.0625 15.6875 C-2 17 -2 17 -3 17 C-2.48517081 11.147205 -1.54642808 5.6702363 0 0 Z " fill="#2A4984" transform="translate(42,97)"/>
<path d="M0 0 C6.93 0 13.86 0 21 0 C21 0.99 21 1.98 21 3 C14.07 3 7.14 3 0 3 C0 2.01 0 1.02 0 0 Z " fill="#173879" transform="translate(117,36)"/>
<path d="M0 0 C1.21816406 0.03480469 1.21816406 0.03480469 2.4609375 0.0703125 C3.68683594 0.09738281 3.68683594 0.09738281 4.9375 0.125 C5.87722656 0.15980469 5.87722656 0.15980469 6.8359375 0.1953125 C6.5059375 1.5153125 6.1759375 2.8353125 5.8359375 4.1953125 C12.4359375 4.1953125 19.0359375 4.1953125 25.8359375 4.1953125 C25.8359375 4.5253125 25.8359375 4.8553125 25.8359375 5.1953125 C22.52361052 5.28365934 19.21159315 5.33614834 15.8984375 5.3828125 C14.50915039 5.42051758 14.50915039 5.42051758 13.09179688 5.45898438 C6.78039076 5.52542023 1.67729432 4.59739108 -4.1640625 2.1953125 C-2.1640625 0.1953125 -2.1640625 0.1953125 0 0 Z " fill="#3A568D" transform="translate(110.1640625,208.8046875)"/>
<path d="M0 0 C3.53571429 0.53571429 3.53571429 0.53571429 5 2 C5.125 4.5 5.125 4.5 5 7 C4 8 4 8 1.5 8.125 C-1 8 -1 8 -2 7 C-2.1875 4.5625 -2.1875 4.5625 -2 2 C-1.34 1.34 -0.68 0.68 0 0 Z " fill="#95CE75" transform="translate(197,102)"/>
<path d="M0 0 C2.5 0.125 2.5 0.125 3.5 1.125 C3.625 3.625 3.625 3.625 3.5 6.125 C2.5 7.125 2.5 7.125 0.0625 7.3125 C-2.5 7.125 -2.5 7.125 -4.5 5.125 C-3.7519084 0.18759542 -3.7519084 0.18759542 0 0 Z " fill="#677DA7" transform="translate(63.5,102.875)"/>
<path d="M0 0 C-0.99 0.66 -1.98 1.32 -3 2 C-2.67 2.66 -2.34 3.32 -2 4 C-5.3 4.33 -8.6 4.66 -12 5 C-12 4.34 -12 3.68 -12 3 C-12.99 2.34 -13.98 1.68 -15 1 C-13.25215171 0.63536268 -11.50159498 0.2836922 -9.75 -0.0625 C-8.28820312 -0.35833984 -8.28820312 -0.35833984 -6.796875 -0.66015625 C-4.131881 -0.98397535 -2.51128277 -0.85503199 0 0 Z " fill="#2F4D87" transform="translate(151,208)"/>
<path d="M0 0 C0.98484375 0.01804687 1.9696875 0.03609375 2.984375 0.0546875 C4.10585937 0.08949219 4.10585937 0.08949219 5.25 0.125 C2.90122581 2.63035913 1.1588213 4.03064909 -2.30859375 4.390625 C-4.79963675 4.37649142 -7.26524028 4.29869194 -9.75 4.125 C-9.75 3.465 -9.75 2.805 -9.75 2.125 C-6.40060119 0.09941119 -3.88037449 -0.09238987 0 0 Z " fill="#2C4A84" transform="translate(120.75,91.875)"/>
<path d="M0 0 C0.33 1.32 0.66 2.64 1 4 C1.66 4 2.32 4 3 4 C2.6875 6.375 2.6875 6.375 2 9 C-1.4352048 11.29013653 -2.985331 11.17842973 -7 11 C-7 10.01 -7 9.02 -7 8 C-6.21625 7.79375 -5.4325 7.5875 -4.625 7.375 C-1.69083714 6.19323388 -1.69083714 6.19323388 -0.6875 2.875 C-0.460625 1.92625 -0.23375 0.9775 0 0 Z " fill="#1E3E7D" transform="translate(158,162)"/>
<path d="M0 0 C0.66 1.32 1.32 2.64 2 4 C-0.71182212 6.60334924 -1.89133813 6.99456691 -5.75 7.1875 C-6.8225 7.125625 -7.895 7.06375 -9 7 C-9.33 6.34 -9.66 5.68 -10 5 C-3.375 2 -3.375 2 0 2 C0 1.34 0 0.68 0 0 Z " fill="#2D4B85" transform="translate(147,174)"/>
<path d="M0 0 C0.33 0 0.66 0 1 0 C1.2546343 3.76956869 1.47432236 7.5403777 1.6875 11.3125 C1.76033203 12.38435547 1.83316406 13.45621094 1.90820312 14.56054688 C1.96298828 15.58857422 2.01777344 16.61660156 2.07421875 17.67578125 C2.13182373 18.62364502 2.18942871 19.57150879 2.2487793 20.5480957 C2 23 2 23 0.49536133 24.83276367 C0.00189209 25.21795166 -0.49157715 25.60313965 -1 26 C-2.125 21.25 -2.125 21.25 -1 19 C-0.84932786 17.5534758 -0.75138964 16.1012066 -0.68359375 14.6484375 C-0.64169922 13.79765625 -0.59980469 12.946875 -0.55664062 12.0703125 C-0.51732422 11.18085937 -0.47800781 10.29140625 -0.4375 9.375 C-0.39431641 8.4778125 -0.35113281 7.580625 -0.30664062 6.65625 C-0.20043139 4.43765717 -0.09838806 2.2189512 0 0 Z " fill="#193A7A" transform="translate(41,115)"/>
<path d="M0 0 C0.99 0.33 1.98 0.66 3 1 C3.17942163 4.94727588 3.09350689 7.5980513 1 11 C-1.475 10.01 -1.475 10.01 -4 9 C-3.34 8.67 -2.68 8.34 -2 8 C-1.31527335 6.11235097 -1.31527335 6.11235097 -0.875 3.9375 C-0.70742187 3.20402344 -0.53984375 2.47054687 -0.3671875 1.71484375 C-0.24601563 1.14894531 -0.12484375 0.58304687 0 0 Z " fill="#65B739" transform="translate(163,112)"/>
<path d="M0 0 C0.66 0.99 1.32 1.98 2 3 C2.66 3 3.32 3 4 3 C3.67 6.3 3.34 9.6 3 13 C2.67 12.01 2.34 11.02 2 10 C1.01 10.33 0.02 10.66 -1 11 C-0.67 7.37 -0.34 3.74 0 0 Z " fill="#324F88" transform="translate(212,133)"/>
<path d="M0 0 C0.66 0 1.32 0 2 0 C2.0825 0.78375 2.165 1.5675 2.25 2.375 C2.72806339 5.14749104 2.72806339 5.14749104 5.0625 6.3125 C5.701875 6.539375 6.34125 6.76625 7 7 C7 7.99 7 8.98 7 10 C6.01 10.33 5.02 10.66 4 11 C1.29727467 8.12835434 0.05208163 6.69008159 -0.25 2.6875 C-0.1675 1.800625 -0.085 0.91375 0 0 Z " fill="#6FBD44" transform="translate(88,154)"/>
<path d="M0 0 C0.33 0 0.66 0 1 0 C1.0928125 1.0828125 1.0928125 1.0828125 1.1875 2.1875 C2.24456647 5.84657625 4.20550071 7.49211602 7 10 C6.34 11.65 5.68 13.3 5 15 C4.71125 14.38125 4.4225 13.7625 4.125 13.125 C3.06279958 10.86674235 3.06279958 10.86674235 1 9 C1.33 8.34 1.66 7.68 2 7 C1.34 7 0.68 7 0 7 C0 4.69 0 2.38 0 0 Z " fill="#73BF4A" transform="translate(117,143)"/>
<path d="M0 0 C3 1 3 1 3.9375 2.8125 C4 5 4 5 2.0625 7.25 C1.381875 7.8275 0.70125 8.405 0 9 C-0.66 8.34 -1.32 7.68 -2 7 C-1.34 4.69 -0.68 2.38 0 0 Z " fill="#2E4C86" transform="translate(169,156)"/>
<path d="M0 0 C-0.75 2.4375 -0.75 2.4375 -2 5 C-4.125 5.8125 -4.125 5.8125 -6 6 C-6.66 4.68 -7.32 3.36 -8 2 C-5.09399739 0.74335022 -3.20395416 0 0 0 Z " fill="#324F88" transform="translate(102,39)"/>
<path d="M0 0 C3.63 0.33 7.26 0.66 11 1 C11 1.33 11 1.66 11 2 C2.96428571 4.27678571 2.96428571 4.27678571 -1 3 C-0.67 2.01 -0.34 1.02 0 0 Z " fill="#2E4C86" transform="translate(138,36)"/>
<path d="M0 0 C-1 2 -1 2 -3.75 3.125 C-6.70186896 3.91973395 -8.97219837 4.17810598 -12 4 C-8.41084094 -0.78554541 -5.58334594 -0.37222306 0 0 Z " fill="#1D3D7D" transform="translate(159,207)"/>
<path d="M0 0 C0.66 0 1.32 0 2 0 C2 2.31 2 4.62 2 7 C0.68 7 -0.64 7 -2 7 C-2.125 4.625 -2.125 4.625 -2 2 C-1.34 1.34 -0.68 0.68 0 0 Z " fill="#264582" transform="translate(212,143)"/>
<path d="M0 0 C1.98 0 3.96 0 6 0 C6 1.65 6 3.3 6 5 C3.03 4.505 3.03 4.505 0 4 C0 2.68 0 1.36 0 0 Z " fill="#2A4A81" transform="translate(140,108)"/>
<path d="M0 0 C1.125 1.75 1.125 1.75 2 4 C1.125 6.25 1.125 6.25 0 8 C-0.99 7.34 -1.98 6.68 -3 6 C-2.67 4.68 -2.34 3.36 -2 2 C-1.34 2 -0.68 2 0 2 C0 1.34 0 0.68 0 0 Z " fill="#37538B" transform="translate(45,147)"/>
<path d="M0 0 C1.875 0.1875 1.875 0.1875 4 1 C5.25 3.5625 5.25 3.5625 6 6 C4.68 6.33 3.36 6.66 2 7 C0 4 0 4 0 0 Z " fill="#69BA3C" transform="translate(104,113)"/>
<path d="M0 0 C2.475 0.495 2.475 0.495 5 1 C4.67 2.32 4.34 3.64 4 5 C2.68 4.67 1.36 4.34 0 4 C0 2.68 0 1.36 0 0 Z " fill="#F7F8FA" transform="translate(61,104)"/>
<path d="M0 0 C1.5 1.1875 1.5 1.1875 3 3 C3.1875 5.6875 3.1875 5.6875 3 8 C2.01 7.67 1.02 7.34 0 7 C-1.125 2.25 -1.125 2.25 0 0 Z " fill="#1C3C7C" transform="translate(204,80)"/>
<path d="M0 0 C2.31 0.66 4.62 1.32 7 2 C5.3125 3.5625 5.3125 3.5625 3 5 C0.25 4.6875 0.25 4.6875 -2 4 C-1.34 3.67 -0.68 3.34 0 3 C0 2.01 0 1.02 0 0 Z " fill="#2D4B86" transform="translate(156,40)"/>
<path d="M0 0 C1.41377341 2.63904371 2.37240135 5.07120629 3 8 C1.02 7.34 -0.96 6.68 -3 6 C-3 5.34 -3 4.68 -3 4 C-2.34 3.67 -1.68 3.34 -1 3 C-0.67 2.01 -0.34 1.02 0 0 Z " fill="#75C04C" transform="translate(115,171)"/>
<path d="M0 0 C1.98 0.495 1.98 0.495 4 1 C3.67 2.32 3.34 3.64 3 5 C1.68 4.67 0.36 4.34 -1 4 C-0.67 2.68 -0.34 1.36 0 0 Z " fill="#FEFEFE" transform="translate(197,104)"/>
<path d="M0 0 C-0.99 0.66 -1.98 1.32 -3 2 C-2.67 2.66 -2.34 3.32 -2 4 C-3.32 4 -4.64 4 -6 4 C-6 3.01 -6 2.02 -6 1 C-6.66 0.67 -7.32 0.34 -8 0 C-4.94736336 -0.98120464 -3.05263664 -0.98120464 0 0 Z " fill="#3E5A8F" transform="translate(151,208)"/>
<path d="M0 0 C0.33 1.32 0.66 2.64 1 4 C-0.98 4 -2.96 4 -5 4 C-5.33 3.34 -5.66 2.68 -6 2 C-4.02 1.34 -2.04 0.68 0 0 Z " fill="#1E3E7D" transform="translate(143,177)"/>
<path d="M0 0 C-0.33 1.65 -0.66 3.3 -1 5 C-1.99 5 -2.98 5 -4 5 C-4 4.01 -4 3.02 -4 2 C-5.65 2 -7.3 2 -9 2 C-9 1.67 -9 1.34 -9 1 C-2.25 0 -2.25 0 0 0 Z " fill="#77C04E" transform="translate(120,116)"/>
<path d="M0 0 C1.32 0.66 2.64 1.32 4 2 C3 5 3 5 0.9375 6.1875 C0.298125 6.455625 -0.34125 6.72375 -1 7 C-0.67 4.69 -0.34 2.38 0 0 Z " fill="#3A568D" transform="translate(42,97)"/>
<path d="M0 0 C2.3125 -0.25 2.3125 -0.25 5 0 C6.8125 2 6.8125 2 8 4 C6.02 4 4.04 4 2 4 C2 3.01 2 2.02 2 1 C1.34 0.67 0.68 0.34 0 0 Z " fill="#37548C" transform="translate(112,36)"/>
</svg>
