<?xml version="1.0" encoding="UTF-8"?>
<svg version="1.1" xmlns="http://www.w3.org/2000/svg" width="250" height="250">
<path d="M0 0 C82.5 0 165 0 250 0 C250 82.5 250 165 250 250 C167.5 250 85 250 0 250 C0 167.5 0 85 0 0 Z " fill="#FEFEFE" transform="translate(0,0)"/>
<path d="M0 0 C20.53464836 15.73504928 33.25101991 36.59663967 36.94140625 62.25390625 C39.0393342 87.85160007 33.24962055 110.36290782 17.2109375 130.58203125 C1.36498726 149.23716027 -20.57945358 160.79384378 -45.05859375 163.25390625 C-72.17473347 164.96745388 -94.74677316 154.72184561 -115.12109375 137.51171875 C-130.22920615 123.45278082 -140.2057388 101.35042215 -141.16796875 80.93310547 C-141.99269757 54.58817422 -135.91747414 33.32901469 -118.58984375 12.9453125 C-87.67991997 -19.92033177 -37.33710719 -26.20060651 0 0 Z " fill="#FBFCFC" transform="translate(177.05859375,50.74609375)"/>
<path d="M0 0 C20.53464836 15.73504928 33.25101991 36.59663967 36.94140625 62.25390625 C39.0393342 87.85160007 33.24962055 110.36290782 17.2109375 130.58203125 C1.36498726 149.23716027 -20.57945358 160.79384378 -45.05859375 163.25390625 C-72.17473347 164.96745388 -94.74677316 154.72184561 -115.12109375 137.51171875 C-130.22920615 123.45278082 -140.2057388 101.35042215 -141.16796875 80.93310547 C-141.99269757 54.58817422 -135.91747414 33.32901469 -118.58984375 12.9453125 C-87.67991997 -19.92033177 -37.33710719 -26.20060651 0 0 Z M-115.83203125 15.6171875 C-123.29691621 24.45718285 -129.43033658 34.23117819 -133.05859375 45.25390625 C-133.64447266 46.99994141 -133.64447266 46.99994141 -134.2421875 48.78125 C-140.71503745 69.92115716 -138.0277317 93.71628128 -128.05859375 113.25390625 C-123.30699523 122.0783035 -117.04367725 129.16699938 -110.05859375 136.25390625 C-109.40117188 136.92421875 -108.74375 137.59453125 -108.06640625 138.28515625 C-93.13675331 152.38182427 -72.67335493 158.65019542 -52.55859375 158.50390625 C-51.49511719 158.51164063 -50.43164062 158.519375 -49.3359375 158.52734375 C-26.17261786 158.47050125 -6.23101665 148.40335696 9.94140625 132.25390625 C11.05515625 131.15755859 11.05515625 131.15755859 12.19140625 130.0390625 C28.89577711 112.51904853 33.61291101 90.34172472 33.24609375 66.94921875 C32.48310937 44.33083062 21.04517752 24.40214132 4.98046875 8.890625 C-10.70024396 -5.1419185 -31.49878787 -12.37435813 -52.37109375 -12.18359375 C-53.55807861 -12.17457031 -54.74506348 -12.16554687 -55.96801758 -12.15625 C-79.1557282 -11.69919294 -99.83371732 -1.05014683 -115.83203125 15.6171875 Z " fill="#284682" transform="translate(177.05859375,50.74609375)"/>
<path d="M0 0 C1.52179115 -0.00472824 1.52179115 -0.00472824 3.07432556 -0.009552 C4.73051659 -0.00651566 4.73051659 -0.00651566 6.42016602 -0.00341797 C8.10892601 -0.00485306 8.10892601 -0.00485306 9.83180237 -0.00631714 C12.21843522 -0.0069992 14.60506991 -0.00514311 16.99169922 -0.00097656 C20.65474603 0.00436634 24.31766995 -0.00091814 27.98071289 -0.00732422 C30.2938642 -0.00666334 32.60701544 -0.00538199 34.92016602 -0.00341797 C36.02226913 -0.0054422 37.12437225 -0.00746643 38.25987244 -0.009552 C39.78639183 -0.00482376 39.78639183 -0.00482376 41.34375 0 C42.24230209 0.00079559 43.14085419 0.00159119 44.06663513 0.00241089 C46.23657227 0.12939453 46.23657227 0.12939453 48.23657227 1.12939453 C48.83350422 6.02423654 47.82693728 8.8065026 44.95166016 12.62969971 C41.58714386 15.57167586 37.57142108 15.12481551 33.29907227 15.05908203 C32.34137939 15.06577911 31.38368652 15.0724762 30.39697266 15.07937622 C28.37635063 15.08413019 26.35562046 15.07127823 24.33520508 15.04199219 C21.24519411 15.00449915 18.1622998 15.04163908 15.07250977 15.08642578 C13.10634825 15.08179994 11.14019115 15.07283097 9.17407227 15.05908203 C8.25311768 15.07325165 7.33216309 15.08742126 6.38330078 15.10202026 C0.16480279 14.94328309 0.16480279 14.94328309 -2.47631836 12.62750244 C-4.77977898 9.55801528 -5.70849675 7.62377338 -6.13842773 3.75439453 C-5.51282708 -0.62481006 -4.06224714 0.00359997 0 0 Z " fill="#FDFDFD" transform="translate(102.763427734375,108.87060546875)"/>
<path d="M0 0 C9.58384033 4.37157629 17.03616349 9.85313682 21 20 C22.29813586 27.55700521 21.45011291 34.13362807 17.60546875 40.7890625 C14.87438985 44.55011032 11.75862614 47.29325319 8 50 C7.32839844 50.50015625 6.65679687 51.0003125 5.96484375 51.515625 C0.36870367 55.26612452 -5.68774497 57.51639704 -12 59.75 C-12.83047852 60.04390625 -13.66095703 60.3378125 -14.51660156 60.640625 C-27.49719877 65.0508633 -40.37279131 66.0723491 -54 66.25 C-54.93303955 66.27143066 -55.8660791 66.29286133 -56.82739258 66.31494141 C-57.70935303 66.31929199 -58.59131348 66.32364258 -59.5 66.328125 C-60.2940625 66.3374707 -61.088125 66.34681641 -61.90625 66.35644531 C-64.52038016 65.91140916 -65.41359759 65.08850895 -67 63 C-67 62.34 -67 61.68 -67 61 C-66.10917725 60.98541748 -65.21835449 60.97083496 -64.30053711 60.95581055 C-60.91734282 60.89386011 -57.5348456 60.8195616 -54.15209961 60.73754883 C-52.70265513 60.70479212 -51.25309809 60.67661659 -49.8034668 60.65356445 C-29.33318437 60.31961677 -6.92765363 56.52247388 8.875 42.4375 C14.17687128 36.35594177 16.40688298 32.67702146 16.265625 24.5546875 C15.50228407 17.21314386 10.40819357 13.23738706 5.12109375 8.69921875 C2.90789882 6.87554888 2.90789882 6.87554888 0 5 C-0.1875 2.375 -0.1875 2.375 0 0 Z " fill="#67B93A" transform="translate(179,99)"/>
<path d="M0 0 C16.24443677 10.40578138 27.62211858 24.32409925 37.9375 40.3125 C38.54335937 41.22773437 39.14921875 42.14296875 39.7734375 43.0859375 C41.99414216 46.68077986 43.30132317 49.10012494 42.75 53.375 C42.481875 54.344375 42.21375 55.31375 41.9375 56.3125 C39.01504784 53.7738923 37.60013736 50.93755873 35.875 47.5 C25.42674345 27.78630839 9.06861064 6.79683669 -12.91796875 -0.28515625 C-18.8035331 -1.3893696 -25.8152634 -2.11258541 -31.39453125 0.3359375 C-36.98830841 4.74758746 -39.60283356 10.85331526 -40.5234375 17.78125 C-40.77916566 20.96057312 -40.96396122 24.12477052 -41.0625 27.3125 C-43.5375 27.8075 -43.5375 27.8075 -46.0625 28.3125 C-46.57507811 18.32671896 -45.59463918 9.29622567 -39.0625 1.3125 C-27.21616964 -10.44901177 -13.7821661 -7.84120068 0 0 Z " fill="#274682" transform="translate(119.0625,63.6875)"/>
<path d="M0 0 C0.89460938 -0.03061523 1.78921875 -0.06123047 2.7109375 -0.09277344 C3.54109375 -0.0930957 4.37125 -0.09341797 5.2265625 -0.09375 C6.32218506 -0.10438477 6.32218506 -0.10438477 7.43994141 -0.11523438 C9.375 0.5 9.375 0.5 11.13427734 3.03710938 C11.74843506 4.25624023 11.74843506 4.25624023 12.375 5.5 C11.51970703 5.51458252 10.66441406 5.52916504 9.78320312 5.54418945 C-16.94844273 6.05341507 -45.11749762 6.82535836 -66.15234375 25.87109375 C-69.6450763 29.734408 -71.33769418 33.7761651 -72.1875 38.875 C-70.90962205 47.11021344 -66.94267946 52.89177296 -60.58984375 58.125 C-58.66711799 59.47052578 -56.75171419 60.5147961 -54.625 61.5 C-54.625 63.15 -54.625 64.8 -54.625 66.5 C-62.95010344 63.89840517 -70.46289375 57.2156562 -74.66015625 49.62890625 C-76.91759443 44.41054916 -77.64439058 39.10664819 -76.625 33.5 C-71.37877019 20.38442547 -59.85909522 13.77825204 -47.57373047 8.33251953 C-32.67238057 1.96649558 -16.07759573 0.30703742 0 0 Z " fill="#66B939" transform="translate(124.625,86.5)"/>
<path d="M0 0 C0.78375 0.04125 1.5675 0.0825 2.375 0.125 C2.0346875 0.74503906 1.694375 1.36507812 1.34375 2.00390625 C0.29947605 3.91192807 -0.74043328 5.82234151 -1.77734375 7.734375 C-3.04795194 10.06606192 -4.33042992 12.38722782 -5.62890625 14.703125 C-10.19285559 22.92691671 -13.86281297 31.09557799 -16.625 40.125 C-16.9446875 41.12402344 -17.264375 42.12304688 -17.59375 43.15234375 C-20.9450457 55.20769911 -22.16751727 71.34087193 -16.96875 83.01953125 C-14.11121357 87.4968921 -10.65289692 90.44903436 -5.625 92.125 C1.69992985 92.83386418 6.66666074 91.10371641 13.359375 88.12109375 C16.58829512 87.0545463 18.17162321 87.13432607 21.375 88.125 C21.375 88.785 21.375 89.445 21.375 90.125 C19.48307525 91.11169759 17.58628022 92.0890602 15.6875 93.0625 C14.10388672 93.88041016 14.10388672 93.88041016 12.48828125 94.71484375 C5.50342081 97.87862621 -3.19098638 98.78469294 -10.453125 96.06640625 C-17.53279279 92.15563168 -20.87696239 87.40769215 -23.875 80.0625 C-30.54298929 53.94620862 -19.34068697 26.99620266 -6.2890625 4.71484375 C-3.36249722 0.16011892 -3.36249722 0.16011892 0 0 Z " fill="#13ADE1" transform="translate(98.625,97.875)"/>
<path d="M0 0 C5.9798316 4.33275518 9.39238231 10.5215593 11.2265625 17.61328125 C11.66643458 21.47611909 11.70276416 25.29087192 11.6640625 29.17578125 C11.65648926 30.23990234 11.64891602 31.30402344 11.64111328 32.40039062 C11.46084891 41.06887018 10.16886141 48.41884129 7.2265625 56.61328125 C6.79730291 57.90205291 6.36894559 59.19112539 5.94140625 60.48046875 C2.15154298 71.51680963 -2.80745683 84.89075493 -10.7734375 93.61328125 C-13.4609375 93.86328125 -13.4609375 93.86328125 -15.7734375 93.61328125 C-13.81360552 89.6316813 -11.84078644 85.68183889 -9.66015625 81.81640625 C0.93314141 62.90645116 10.92697527 38.60876379 5.46875 16.55078125 C3.22373604 10.61121675 0.64151833 5.47744125 -5.3359375 2.73828125 C-11.45998415 0.76131628 -17.7141396 1.2273721 -23.55859375 3.875 C-25.25794847 4.78849701 -26.93584291 5.74384534 -28.58203125 6.75 C-30.7734375 7.61328125 -30.7734375 7.61328125 -33.05859375 6.7578125 C-33.62449219 6.38011719 -34.19039062 6.00242187 -34.7734375 5.61328125 C-34.7734375 4.95328125 -34.7734375 4.29328125 -34.7734375 3.61328125 C-23.02622525 -2.46926739 -12.4996222 -7.04343791 0 0 Z " fill="#11ADE1" transform="translate(163.7734375,60.38671875)"/>
<path d="M0 0 C2.36980625 2.91782395 4.13919787 6.01745528 5.90380859 9.3293457 C16.2862233 28.70445769 31.44563532 47.06917343 52 56 C52.94875 56.4125 53.8975 56.825 54.875 57.25 C60.96370378 58.71128891 66.67767583 59.15153404 72.3125 56.0625 C78.01209045 51.90582899 80.44093231 46.93583714 81.74609375 40.08203125 C82.28583917 36.39942039 82.67271218 32.70763365 83 29 C84.32 29 85.64 29 87 29 C87.56717396 38.6839702 86.40245203 48.31705756 80 56 C74.87552794 61.06784806 70.14905375 63.28558375 62.9375 63.4375 C46.2431418 63.0994815 32.75837727 51.40465506 21.53613281 40.08154297 C14.79778803 33.01240672 9.25232521 25.21132288 4 17 C3.29230469 15.90816406 2.58460937 14.81632813 1.85546875 13.69140625 C-2.16886397 6.99629742 -2.16886397 6.99629742 -1.375 2.3125 C-0.92125 1.549375 -0.4675 0.78625 0 0 Z " fill="#264581" transform="translate(88,132)"/>
<path d="M0 0 C0.98790024 -0.0127597 1.97580048 -0.02551941 2.99363708 -0.03866577 C4.05929398 -0.04089142 5.12495087 -0.04311707 6.22290039 -0.04541016 C7.3189711 -0.05206696 8.41504181 -0.05872375 9.54432678 -0.06558228 C11.86351847 -0.07571223 14.18273933 -0.08039919 16.50195312 -0.08007812 C20.05330318 -0.08445141 23.60341092 -0.12076935 27.15454102 -0.15869141 C29.40648988 -0.16455938 31.65844466 -0.1685289 33.91040039 -0.17041016 C34.97403305 -0.18478119 36.03766571 -0.19915222 37.13352966 -0.21395874 C44.41012167 -0.16877974 44.41012167 -0.16877974 47.83447266 2.00683594 C49.42170153 4.79813861 49.6704571 6.12489806 49.13305664 9.29052734 C47.89892578 11.74731445 47.89892578 11.74731445 46.16821289 14.31787109 C45.22123535 15.74437988 45.22123535 15.74437988 44.25512695 17.19970703 C43.57546875 18.19905273 42.89581055 19.19839844 42.19555664 20.22802734 C40.81620131 22.29413385 39.43729401 24.36053954 38.05883789 26.42724609 C37.38546387 27.42933105 36.71208984 28.43141602 36.01831055 29.46386719 C32.88046176 34.16860861 29.87911698 38.95764076 26.86743164 43.74365234 C23.92269771 48.06790126 23.92269771 48.06790126 22.13305664 49.29052734 C19.23536828 49.17698156 17.69043052 48.77989627 15.50024414 46.85693359 C11.02444521 40.84624027 7.11707944 34.53364011 3.27807617 28.10400391 C-0.07678136 22.4935549 -3.66810913 17.19252164 -7.60131836 11.96630859 C-9.31841934 8.33601794 -8.90145452 6.11549622 -7.86694336 2.29052734 C-4.63758882 0.13762432 -3.72829253 0.03268822 0 0 Z M-6.86694336 3.29052734 C-7.41523219 7.12854915 -6.96461519 9.68887071 -4.96459961 12.94335938 C-3.32272936 15.13124122 -2.37757232 16.13135288 0.25219727 16.95111084 C2.8816538 17.21881479 5.4277016 17.26087726 8.07055664 17.22021484 C9.02824951 17.22691193 9.98594238 17.23360901 10.97265625 17.24050903 C12.99327828 17.245263 15.01400845 17.23241105 17.03442383 17.203125 C20.1244348 17.16563196 23.20732911 17.2027719 26.29711914 17.24755859 C28.26328066 17.24293276 30.22943775 17.23396378 32.19555664 17.22021484 C33.11651123 17.23438446 34.03746582 17.24855408 34.98632812 17.26315308 C39.82031484 17.18304459 39.82031484 17.18304459 43.84814453 14.79083252 C46.72342166 10.96763541 47.72998859 8.18536935 47.13305664 3.29052734 C44.65657809 2.05228807 43.00991923 2.16358514 40.24023438 2.16113281 C39.22255478 2.15798065 38.20487518 2.15482849 37.15635681 2.15158081 C36.05425369 2.15360504 34.95215057 2.15562927 33.81665039 2.15771484 C32.12645531 2.15627975 32.12645531 2.15627975 30.40211487 2.15481567 C28.01726221 2.15413431 25.6324077 2.15598553 23.24755859 2.16015625 C19.58239612 2.16551005 15.91735593 2.16020718 12.25219727 2.15380859 C9.94034804 2.15446929 7.62849888 2.15575026 5.31665039 2.15771484 C3.66045937 2.1546785 3.66045937 2.1546785 1.97080994 2.15158081 C0.44901878 2.15630905 0.44901878 2.15630905 -1.10351562 2.16113281 C-2.45015038 2.1623262 -2.45015038 2.1623262 -3.82398987 2.1635437 C-5.8609626 2.06392062 -5.8609626 2.06392062 -6.86694336 3.29052734 Z M-0.86694336 17.29052734 C-0.20694336 18.94052734 0.45305664 20.59052734 1.13305664 22.29052734 C1.42438477 23.24572266 1.71571289 24.20091797 2.01586914 25.18505859 C3.62369303 28.96192792 4.83753348 30.77240965 8.13305664 33.29052734 C15.76126341 35.4725356 24.53681166 35.65723155 32.13305664 33.29052734 C36.99536077 29.89264323 39.24623627 24.75444466 41.13305664 19.29052734 C41.13305664 18.63052734 41.13305664 17.97052734 41.13305664 17.29052734 C27.27305664 17.29052734 13.41305664 17.29052734 -0.86694336 17.29052734 Z " fill="#9C9D9E" transform="translate(103.866943359375,106.70947265625)"/>
<path d="M0 0 C3.01696452 0.31936336 3.9671248 0.96483837 6.078125 3.22265625 C7.15320312 4.62837891 7.15320312 4.62837891 8.25 6.0625 C21.90737068 23.21722006 40.08850427 34.63533051 62 38 C68.65105645 38.66109532 75.32056144 38.86312626 82 39 C82 39.33 82 39.66 82 40 C77.38 40.33 72.76 40.66 68 41 C68 41.66 68 42.32 68 43 C72.62 43 77.24 43 82 43 C82 43.33 82 43.66 82 44 C54.8609161 45.05280929 32.30264992 35.85559233 11.8671875 18.15234375 C7.20946056 13.73481349 3.20031854 8.56407964 0 3 C0 2.01 0 1.02 0 0 Z " fill="#264581" transform="translate(50,170)"/>
<path d="M0 0 C0 1.66666667 0 3.33333333 0 5 C-0.78503906 5.00257812 -1.57007812 5.00515625 -2.37890625 5.0078125 C-8.60102057 5.23684738 -13.14404448 5.5534898 -17.6015625 10.15234375 C-23.13617591 17.46483577 -23.72255252 25.02457404 -24 34 C-26.475 34.495 -26.475 34.495 -29 35 C-29.51257811 25.01421896 -28.53213918 15.98372567 -22 8 C-14.99212324 1.04229897 -9.76645182 -0.34135171 0 0 Z " fill="#2C4A85" transform="translate(102,57)"/>
<path d="M0 0 C0 0.66 0 1.32 0 2 C-12.1089927 4.8107005 -23.57514713 6.07907832 -36 6.25 C-37.40004272 6.28226685 -37.40004272 6.28226685 -38.82836914 6.31518555 C-39.71000732 6.31945557 -40.59164551 6.32372559 -41.5 6.328125 C-42.69109375 6.34214355 -42.69109375 6.34214355 -43.90625 6.35644531 C-46.52038016 5.91140916 -47.41359759 5.08850895 -49 3 C-49 2.34 -49 1.68 -49 1 C-48.07775635 0.98018066 -47.1555127 0.96036133 -46.20532227 0.93994141 C-42.74414315 0.86128318 -39.28335152 0.77457465 -35.82250977 0.68261719 C-34.33202727 0.6446185 -32.84146211 0.60971804 -31.35083008 0.578125 C-0.18123192 -0.09061596 -0.18123192 -0.09061596 0 0 Z " fill="#70BD45" transform="translate(161,159)"/>
<path d="M0 0 C1.16917969 0.34933594 2.33835937 0.69867188 3.54296875 1.05859375 C5.09111138 1.5183452 6.63929039 1.97797417 8.1875 2.4375 C8.95642578 2.66759766 9.72535156 2.89769531 10.51757812 3.13476562 C11.64389648 3.46831055 11.64389648 3.46831055 12.79296875 3.80859375 C13.82200317 4.11494751 13.82200317 4.11494751 14.87182617 4.42749023 C18.87438562 5.50423704 22.72334954 6.12944159 26.86328125 6.31640625 C27.74951172 6.35830078 28.63574219 6.40019531 29.54882812 6.44335938 C30.9168457 6.50233398 30.9168457 6.50233398 32.3125 6.5625 C33.24384766 6.60568359 34.17519531 6.64886719 35.13476562 6.69335938 C37.42304454 6.79897225 39.71142372 6.90107752 42 7 C42 7.33 42 7.66 42 8 C37.38 8.33 32.76 8.66 28 9 C28 9.66 28 10.32 28 11 C32.62 11 37.24 11 42 11 C42 11.33 42 11.66 42 12 C27.21446195 12.57357691 13.76821981 10.74648157 0 5 C0 3.35 0 1.7 0 0 Z " fill="#2E4C86" transform="translate(90,202)"/>
<path d="M0 0 C6.27 0 12.54 0 19 0 C17.05372161 4.86569598 15.07915761 7.86744637 12 12 C8.5868588 11.71704529 7.30936575 11.34467055 4.98046875 8.75 C4.38878906 7.8425 3.79710938 6.935 3.1875 6 C2.58292969 5.0925 1.97835937 4.185 1.35546875 3.25 C0 1 0 1 0 0 Z " fill="#FCFCFC" transform="translate(114,142)"/>
<path d="M0 0 C0.33 0 0.66 0 1 0 C1.33 4.29 1.66 8.58 2 13 C2.66 12.67 3.32 12.34 4 12 C4.26877138 18.71256524 3.45047925 24.15754788 1.5 30.5625 C1.26152344 31.38041016 1.02304688 32.19832031 0.77734375 33.04101562 C0.19561999 35.03051089 -0.40065559 37.01574189 -1 39 C-3.475 39.495 -3.475 39.495 -6 40 C-5.35561067 37.39546825 -4.7095496 34.7913709 -4.0625 32.1875 C-3.88009766 31.44951172 -3.69769531 30.71152344 -3.50976562 29.95117188 C-2.7577385 26.92939016 -1.98514427 23.95543282 -1 21 C-0.85284801 19.37432921 -0.75278133 17.74413143 -0.68359375 16.11328125 C-0.64169922 15.17548828 -0.59980469 14.23769531 -0.55664062 13.27148438 C-0.51732422 12.29501953 -0.47800781 11.31855469 -0.4375 10.3125 C-0.37272461 8.83040039 -0.37272461 8.83040039 -0.30664062 7.31835938 C-0.20058346 4.87904454 -0.09852286 2.43962887 0 0 Z " fill="#284682" transform="translate(210,117)"/>
<path d="M0 0 C1.32 0 2.64 0 4 0 C6.35307441 10.53280926 8.33487892 21.17701112 7 32 C5.47509766 33.7019043 5.47509766 33.7019043 4 35 C3.9498877 34.41621582 3.89977539 33.83243164 3.84814453 33.23095703 C3.61284118 30.52843666 3.36895876 27.82675227 3.125 25.125 C3.04636719 24.2071875 2.96773437 23.289375 2.88671875 22.34375 C2.38468679 16.86001624 1.60496231 11.56148965 0.39794922 6.18701172 C0 4 0 4 0 0 Z " fill="#234280" transform="translate(207,97)"/>
<path d="M0 0 C8.25 0 16.5 0 25 0 C25.33 0.99 25.66 1.98 26 3 C23.05868109 3.98043964 21.17498335 4.11621202 18.11328125 4.09765625 C17.17548828 4.09443359 16.23769531 4.09121094 15.27148438 4.08789062 C14.29501953 4.07951172 13.31855469 4.07113281 12.3125 4.0625 C10.83040039 4.05573242 10.83040039 4.05573242 9.31835938 4.04882812 C6.87884526 4.03704303 4.43945311 4.02059011 2 4 C1.34 2.68 0.68 1.36 0 0 Z " fill="#63B735" transform="translate(113,161)"/>
<path d="M0 0 C0.96744141 -0.03287109 1.93488281 -0.06574219 2.93164062 -0.09960938 C5.57364049 -0.11977731 7.97268632 -0.08995814 10.5625 0.4375 C12.72265625 2.96484375 12.72265625 2.96484375 13.5625 5.4375 C10.1668303 5.52495946 6.77145227 5.57804444 3.375 5.625 C1.93543945 5.66270508 1.93543945 5.66270508 0.46679688 5.70117188 C-8.32527807 5.79243909 -8.32527807 5.79243909 -12.4375 2.4375 C-9.07189666 -0.92810334 -4.56823796 0.02728211 0 0 Z " fill="#76C04D" transform="translate(123.4375,86.5625)"/>
<path d="M0 0 C1.32 0.33 2.64 0.66 4 1 C3.71125 2.27875 3.4225 3.5575 3.125 4.875 C2.00617536 9.90171927 0.9916404 14.94685368 0 20 C-1.32 19.67 -2.64 19.34 -4 19 C-3.59060025 12.23784552 -2.43046191 6.32837252 0 0 Z " fill="#2E4C86" transform="translate(41,92)"/>
<path d="M0 0 C-1 3 -1 3 -3 4 C-4.52148326 4.08372659 -6.04655778 4.10730027 -7.5703125 4.09765625 C-8.46621094 4.09443359 -9.36210937 4.09121094 -10.28515625 4.08789062 C-11.22230469 4.07951172 -12.15945312 4.07113281 -13.125 4.0625 C-14.06988281 4.05798828 -15.01476562 4.05347656 -15.98828125 4.04882812 C-18.32558387 4.03702357 -20.66276061 4.02055759 -23 4 C-23.33 3.01 -23.66 2.02 -24 1 C-15.98866917 0.40891367 -8.03770278 -0.14101233 0 0 Z " fill="#1A3B7B" transform="translate(141,209)"/>
<path d="M0 0 C0.66 0.33 1.32 0.66 2 1 C1.8604947 4.39612414 1.71227678 7.79181458 1.5625 11.1875 C1.52318359 12.14720703 1.48386719 13.10691406 1.44335938 14.09570312 C1.40146484 15.02705078 1.35957031 15.95839844 1.31640625 16.91796875 C1.27974854 17.77156982 1.24309082 18.6251709 1.20532227 19.50463867 C0.99468906 22.06454594 0.55158464 24.49333243 0 27 C-2.09918329 23.85122507 -2.25543871 23.070235 -2.265625 19.47265625 C-2.26820312 18.59802734 -2.27078125 17.72339844 -2.2734375 16.82226562 C-2.26570313 15.91154297 -2.25796875 15.00082031 -2.25 14.0625 C-2.25773437 13.15564453 -2.26546875 12.24878906 -2.2734375 11.31445312 C-2.27085938 10.43853516 -2.26828125 9.56261719 -2.265625 8.66015625 C-2.26336914 7.86230713 -2.26111328 7.06445801 -2.25878906 6.24243164 C-1.9743487 3.77772904 -1.23000569 2.13724176 0 0 Z " fill="#1E3E7D" transform="translate(38,110)"/>
<path d="M0 0 C0.33 0 0.66 0 1 0 C1.06058594 1.09957031 1.12117188 2.19914062 1.18359375 3.33203125 C1.64715164 11.57067673 2.1664477 19.78862311 3 28 C2.34 28 1.68 28 1 28 C0.34 28.66 -0.32 29.32 -1 30 C-1.1970602 28.43867691 -1.38220155 26.87584736 -1.5625 25.3125 C-1.66691406 24.44238281 -1.77132812 23.57226562 -1.87890625 22.67578125 C-2.00504414 19.88854068 -1.57657698 17.72272463 -1 15 C-0.78118981 12.3931873 -0.58987147 9.79779811 -0.4375 7.1875 C-0.39431641 6.49462891 -0.35113281 5.80175781 -0.30664062 5.08789062 C-0.20138547 3.39211314 -0.10027137 1.69607948 0 0 Z " fill="#335089" transform="translate(39,117)"/>
<path d="M0 0 C2 1 2 1 3.125 4.1875 C3.91680237 7.63749602 4.1714979 10.484293 4 14 C2.68 14.33 1.36 14.66 0 15 C-1.50067583 9.88004716 -2.41868183 6.28781411 -1 1 C-0.67 0.67 -0.34 0.34 0 0 Z " fill="#37548B" transform="translate(169,133)"/>
<path d="M0 0 C0.39143394 1.74639757 0.76254287 3.49735918 1.125 5.25 C1.33382812 6.22453125 1.54265625 7.1990625 1.7578125 8.203125 C2.0202996 11.23442766 1.61988849 12.48017346 0 15 C-0.66 15 -1.32 15 -2 15 C-2.50471197 13.23050388 -3.00360685 11.45934777 -3.5 9.6875 C-3.7784375 8.70136719 -4.056875 7.71523437 -4.34375 6.69921875 C-5 4 -5 4 -5 1 C-3 0 -3 0 0 0 Z " fill="#36538B" transform="translate(80,104)"/>
<path d="M0 0 C3 1 3 1 4 3 C4.06996014 4.70702735 4.08440154 6.41668003 4.0625 8.125 C4.05347656 9.03507812 4.04445313 9.94515625 4.03515625 10.8828125 C4.02355469 11.58148438 4.01195313 12.28015625 4 13 C2.35 13.33 0.7 13.66 -1 14 C-1.02705729 12.22925083 -1.04642195 10.45838289 -1.0625 8.6875 C-1.07410156 7.70136719 -1.08570312 6.71523437 -1.09765625 5.69921875 C-1 3 -1 3 0 0 Z " fill="#546C9C" transform="translate(74,78)"/>
<path d="M0 0 C1.77621773 0.37092492 3.54599105 0.77279427 5.3125 1.1875 C6.29863281 1.40792969 7.28476563 1.62835938 8.30078125 1.85546875 C11.63974203 3.27126544 12.45975378 4.78808724 14 8 C12.041036 7.69147815 10.08284287 7.3780582 8.125 7.0625 C7.03445312 6.88847656 5.94390625 6.71445313 4.8203125 6.53515625 C2 6 2 6 0 5 C0 3.35 0 1.7 0 0 Z " fill="#71BE47" transform="translate(82,154)"/>
<path d="M0 0 C2.1875 0.3125 2.1875 0.3125 4 1 C2.4323428 4.84788585 0.20670904 7.37632897 -3 10 C-6.3125 10.3125 -6.3125 10.3125 -9 10 C-8.06409496 8.8944811 -7.12620142 7.79064547 -6.1875 6.6875 C-5.66542969 6.07261719 -5.14335938 5.45773438 -4.60546875 4.82421875 C-1.53272511 1.33280444 -1.53272511 1.33280444 0 0 Z " fill="#14ADE1" transform="translate(116,74)"/>
<path d="M0 0 C0 3 0 3 -1.75 5.04296875 C-2.4925 5.75066406 -3.235 6.45835937 -4 7.1875 C-4.7425 7.90292969 -5.485 8.61835938 -6.25 9.35546875 C-6.8275 9.89816406 -7.405 10.44085938 -8 11 C-9.32 10.34 -10.64 9.68 -12 9 C-8.48417174 4.33716394 -5.96351455 1.27789598 0 0 Z " fill="#11ACE1" transform="translate(140,168)"/>
<path d="M0 0 C1.79232337 0.30871122 3.58384321 0.62209064 5.375 0.9375 C6.87160156 1.19853516 6.87160156 1.19853516 8.3984375 1.46484375 C11 2 11 2 13 3 C13 4.32 13 5.64 13 7 C4.86265342 6.65225015 4.86265342 6.65225015 1.4375 4.0625 C0 2 0 2 0 0 Z " fill="#6EBC43" transform="translate(153,90)"/>
<path d="M0 0 C4.05676492 -0.04954711 8.11341194 -0.085789 12.17041016 -0.10986328 C13.54967315 -0.11990253 14.92891496 -0.13353677 16.30810547 -0.15087891 C18.2938514 -0.17521754 20.2797545 -0.18543255 22.265625 -0.1953125 C24.05661621 -0.21102295 24.05661621 -0.21102295 25.88378906 -0.22705078 C30.07639302 0.07842726 32.06003447 1.06003447 35 4 C28.9453125 4.1953125 28.9453125 4.1953125 27 4 C26.34 3.34 25.68 2.68 25 2 C22.3784358 1.72172748 22.3784358 1.72172748 19.3359375 1.8046875 C17.65371094 1.81435547 17.65371094 1.81435547 15.9375 1.82421875 C14.761875 1.84097656 13.58625 1.85773438 12.375 1.875 C11.19164063 1.88402344 10.00828125 1.89304688 8.7890625 1.90234375 C5.85917477 1.92597188 2.9296866 1.95891486 0 2 C0 1.34 0 0.68 0 0 Z " fill="#8ECB6D" transform="translate(112,160)"/>
<path d="M0 0 C1.875 0.625 1.875 0.625 4 2 C5.85415258 6.07913567 6.21177017 9.5528265 6 14 C5.01 14 4.02 14 3 14 C-0.44419134 4.58997722 -0.44419134 4.58997722 0 0 Z " fill="#1F3F7E" transform="translate(39,144)"/>
<path d="M0 0 C1.65279526 0.02655093 3.30535788 0.07420039 4.95703125 0.140625 C5.80201172 0.15867188 6.64699219 0.17671875 7.51757812 0.1953125 C9.60204698 0.24241914 11.68593269 0.31416267 13.76953125 0.390625 C13.76953125 0.720625 13.76953125 1.050625 13.76953125 1.390625 C9.14953125 1.720625 4.52953125 2.050625 -0.23046875 2.390625 C-0.23046875 3.050625 -0.23046875 3.710625 -0.23046875 4.390625 C4.38953125 4.390625 9.00953125 4.390625 13.76953125 4.390625 C13.76953125 4.720625 13.76953125 5.050625 13.76953125 5.390625 C11.3944527 5.41782056 9.01969161 5.43755747 6.64453125 5.453125 C5.64679688 5.46569336 5.64679688 5.46569336 4.62890625 5.47851562 C0.56271771 5.49844792 -3.24247795 5.17952661 -7.23046875 4.390625 C-5.50328056 0.68846635 -3.87041905 0.10209146 0 0 Z " fill="#6A7FA9" transform="translate(118.23046875,208.609375)"/>
<path d="M0 0 C0.33 0 0.66 0 1 0 C1.33 4.29 1.66 8.58 2 13 C2.66 12.67 3.32 12.34 4 12 C4 14.97 4 17.94 4 21 C2.68 21.33 1.36 21.66 0 22 C0 14.74 0 7.48 0 0 Z " fill="#3B578E" transform="translate(210,117)"/>
<path d="M0 0 C-0.33 0.99 -0.66 1.98 -1 3 C-2.58086048 3.36504603 -4.16483907 3.71660506 -5.75 4.0625 C-6.63171875 4.25972656 -7.5134375 4.45695312 -8.421875 4.66015625 C-10.98679028 4.99825872 -12.57091639 4.81158635 -15 4 C-10.44224642 -0.86160382 -6.22129884 -0.43488691 0 0 Z " fill="#1D3D7C" transform="translate(117,36)"/>
<path d="M0 0 C4.455 0.99 4.455 0.99 9 2 C9 2.99 9 3.98 9 5 C4.99799622 6.60080151 1.95443764 5.29279692 -2 4 C-1.34 2.68 -0.68 1.36 0 0 Z " fill="#2D4B86" transform="translate(145,37)"/>
<path d="M0 0 C0.33 0.66 0.66 1.32 1 2 C1.66 2 2.32 2 3 2 C3.08121924 3.60332791 3.13929134 5.20784026 3.1875 6.8125 C3.23970703 8.15248047 3.23970703 8.15248047 3.29296875 9.51953125 C3 12 3 12 0 15 C0 10.05 0 5.1 0 0 Z " fill="#163778" transform="translate(211,117)"/>
<path d="M0 0 C-0.33 1.32 -0.66 2.64 -1 4 C-7.4 5.35384615 -7.4 5.35384615 -10.4375 3.5625 C-10.953125 3.046875 -11.46875 2.53125 -12 2 C-7.8803623 0.70756464 -4.33168317 -0.26252625 0 0 Z " fill="#6DBC42" transform="translate(97,90)"/>
<path d="M0 0 C0.05395478 1.62463842 0.09277195 3.24978541 0.125 4.875 C0.14820313 5.77992187 0.17140625 6.68484375 0.1953125 7.6171875 C0 10 0 10 -2 12 C-2.66 11.67 -3.32 11.34 -4 11 C-3.8864371 9.35333797 -3.75882619 7.70763918 -3.625 6.0625 C-3.55539063 5.14597656 -3.48578125 4.22945313 -3.4140625 3.28515625 C-3.27742187 2.53105469 -3.14078125 1.77695313 -3 1 C-1 0 -1 0 0 0 Z " fill="#5DB42D" transform="translate(200,122)"/>
<path d="M0 0 C0.66 0.99 1.32 1.98 2 3 C-0.40545638 4.20272819 -1.94996953 4.10071472 -4.625 4.0625 C-5.85089844 4.04896484 -5.85089844 4.04896484 -7.1015625 4.03515625 C-8.04128906 4.01775391 -8.04128906 4.01775391 -9 4 C-9.33 3.01 -9.66 2.02 -10 1 C-6.457201 -0.180933 -3.71640139 -0.27028374 0 0 Z " fill="#60B632" transform="translate(151,159)"/>
<path d="M0 0 C1.98 0 3.96 0 6 0 C6 0.99 6 1.98 6 3 C3.09399739 4.25664978 1.20395416 5 -2 5 C-1.34 3.35 -0.68 1.7 0 0 Z " fill="#61B632" transform="translate(168,153)"/>
<path d="M0 0 C1.45742463 -0.08096803 2.91612807 -0.13917774 4.375 -0.1875 C5.18710938 -0.22230469 5.99921875 -0.25710937 6.8359375 -0.29296875 C7.55007812 -0.19628906 8.26421875 -0.09960938 9 0 C9.66 0.99 10.32 1.98 11 3 C7.37 3 3.74 3 0 3 C0 2.01 0 1.02 0 0 Z " fill="#173879" transform="translate(120,35)"/>
<path d="M0 0 C2.64 0 5.28 0 8 0 C8 0.66 8 1.32 8 2 C11.63 2.33 15.26 2.66 19 3 C19 3.33 19 3.66 19 4 C14.05 4 9.1 4 4 4 C4 3.34 4 2.68 4 2 C2.68 1.34 1.36 0.68 0 0 Z " fill="#445E93" transform="translate(112,35)"/>
<path d="M0 0 C0 2 0 4 0 6 C-2.78823655 7.0326802 -3.8677274 7.04509293 -6.75 6.0625 C-7.4925 5.711875 -8.235 5.36125 -9 5 C-6.08596738 3.05731159 -3.14191424 1.53604696 0 0 Z " fill="#6BBB3F" transform="translate(179,148)"/>
<path d="M0 0 C1.32 0.66 2.64 1.32 4 2 C3.67 3.65 3.34 5.3 3 7 C1.35 7.33 -0.3 7.66 -2 8 C-1.34 5.36 -0.68 2.72 0 0 Z " fill="#324F88" transform="translate(206,149)"/>
<path d="M0 0 C1.32 0.33 2.64 0.66 4 1 C4 1.99 4 2.98 4 4 C1.36 4.33 -1.28 4.66 -4 5 C-3.67 4.34 -3.34 3.68 -3 3 C-2.34 3 -1.68 3 -1 3 C-0.67 2.01 -0.34 1.02 0 0 Z " fill="#61B632" transform="translate(77,95)"/>
<path d="M0 0 C0.99 0.33 1.98 0.66 3 1 C3 3.64 3 6.28 3 9 C2.01 9.33 1.02 9.66 0 10 C0 6.7 0 3.4 0 0 Z " fill="#163778" transform="translate(74,82)"/>
<path d="M0 0 C1.625 1.625 1.625 1.625 3 4 C2.1875 7.25 2.1875 7.25 1 10 C-1.17288535 7.82711465 -1.64827002 6.98970481 -2 4 C-1.0625 1.75 -1.0625 1.75 0 0 Z " fill="#314E88" transform="translate(45,155)"/>
<path d="M0 0 C2.375 0.25 2.375 0.25 5 1 C6.3125 3.0625 6.3125 3.0625 7 5 C4.36 4.67 1.72 4.34 -1 4 C-0.67 2.68 -0.34 1.36 0 0 Z " fill="#67B93A" transform="translate(89,157)"/>
<path d="M0 0 C0 1.98 0 3.96 0 6 C-1.32 6.33 -2.64 6.66 -4 7 C-4 5.02 -4 3.04 -4 1 C-2 0 -2 0 0 0 Z " fill="#2F4D87" transform="translate(173,141)"/>
<path d="M0 0 C0 0.99 0 1.98 0 3 C-2.97 3 -5.94 3 -9 3 C-9 2.34 -9 1.68 -9 1 C-5.8035914 -0.06546953 -3.34252724 -0.07427838 0 0 Z " fill="#254481" transform="translate(114,209)"/>
<path d="M0 0 C0 0.99 0 1.98 0 3 C-6.625 3.25 -6.625 3.25 -10 1 C-6.61981469 -0.04005702 -3.5219721 -0.08004482 0 0 Z " fill="#1C3C7C" transform="translate(145,37)"/>
<path d="M0 0 C2.64 0 5.28 0 8 0 C7.67 1.32 7.34 2.64 7 4 C5.68 4 4.36 4 3 4 C3 3.34 3 2.68 3 2 C2.01 1.34 1.02 0.68 0 0 Z " fill="#324F89" transform="translate(137,208)"/>
<path d="M0 0 C-0.66 1.32 -1.32 2.64 -2 4 C-3.65 4 -5.3 4 -7 4 C-6.625 2.0625 -6.625 2.0625 -6 0 C-3.50907189 -1.24546405 -2.58919267 -0.7767578 0 0 Z " fill="#314E88" transform="translate(106,38)"/>
<path d="M0 0 C-0.33 1.65 -0.66 3.3 -1 5 C-2.32 5.33 -3.64 5.66 -5 6 C-5.33 5.34 -5.66 4.68 -6 4 C-2.25 0 -2.25 0 0 0 Z " fill="#274682" transform="translate(95,40)"/>
<path d="M0 0 C-0.53069061 3.82097239 -1.49701566 6.06171403 -4 9 C-4 6.36 -4 3.72 -4 1 C-2 0 -2 0 0 0 Z " fill="#6FBD44" transform="translate(200,119)"/>
<path d="M0 0 C1.32 0 2.64 0 4 0 C4 1.32 4 2.64 4 4 C2.35 4 0.7 4 -1 4 C-1.33 3.34 -1.66 2.68 -2 2 C-1.34 1.34 -0.68 0.68 0 0 Z " fill="#63B734" transform="translate(162,93)"/>
<path d="M0 0 C0.99 1.32 1.98 2.64 3 4 C2.67 4.66 2.34 5.32 2 6 C0.68 6 -0.64 6 -2 6 C-1.34 4.02 -0.68 2.04 0 0 Z " fill="#3F5A90" transform="translate(88,132)"/>
<path d="M0 0 C0.33 0.99 0.66 1.98 1 3 C1.66 3 2.32 3 3 3 C3.33 2.34 3.66 1.68 4 1 C4 2.98 4 4.96 4 7 C2.68 6.67 1.36 6.34 0 6 C0 4.02 0 2.04 0 0 Z " fill="#39558C" transform="translate(37,105)"/>
<path d="M0 0 C2.31 0.33 4.62 0.66 7 1 C4.03312999 2.64826111 1.34373475 3.44271087 -2 4 C-1.34 2.68 -0.68 1.36 0 0 Z " fill="#3B578E" transform="translate(145,37)"/>
</svg>
