<?xml version="1.0" encoding="UTF-8"?>
<svg version="1.1" xmlns="http://www.w3.org/2000/svg" width="250" height="250">
<path d="M0 0 C82.5 0 165 0 250 0 C250 82.5 250 165 250 250 C167.5 250 85 250 0 250 C0 167.5 0 85 0 0 Z " fill="#FEFEFE" transform="translate(0,0)"/>
<path d="M0 0 C1.18078125 0.43570313 2.3615625 0.87140625 3.578125 1.3203125 C27.07814471 10.62876187 43.93971375 28.16390412 54.17480469 51.02929688 C63.45351394 73.18839187 62.28777365 98.7181676 53.30004883 120.69042969 C43.5481508 143.3994404 25.58997444 159.49849258 3 169 C-17.67782569 176.62742824 -42.89440864 177.26508227 -63.20703125 168.1640625 C-86.43801305 157.22822974 -105.29712468 139.21181199 -114.19140625 114.703125 C-121.09018396 91.64054445 -120.46482166 66.2700265 -109.27319336 44.75170898 C-97.75712649 23.67176272 -81.36404341 8.7438814 -59 0 C-57.92363281 -0.43441406 -56.84726563 -0.86882813 -55.73828125 -1.31640625 C-38.84834089 -6.94638637 -16.55368491 -6.50034944 0 0 Z " fill="#FAFBFC" transform="translate(155,40)"/>
<path d="M0 0 C1.18078125 0.43570313 2.3615625 0.87140625 3.578125 1.3203125 C27.07814471 10.62876187 43.93971375 28.16390412 54.17480469 51.02929688 C63.45351394 73.18839187 62.28777365 98.7181676 53.30004883 120.69042969 C43.5481508 143.3994404 25.58997444 159.49849258 3 169 C-17.67782569 176.62742824 -42.89440864 177.26508227 -63.20703125 168.1640625 C-86.43801305 157.22822974 -105.29712468 139.21181199 -114.19140625 114.703125 C-121.09018396 91.64054445 -120.46482166 66.2700265 -109.27319336 44.75170898 C-97.75712649 23.67176272 -81.36404341 8.7438814 -59 0 C-57.92363281 -0.43441406 -56.84726563 -0.86882813 -55.73828125 -1.31640625 C-38.84834089 -6.94638637 -16.55368491 -6.50034944 0 0 Z M-94.69775391 29.44775391 C-108.11818824 45.44458958 -114.58805761 64.88739234 -114.375 85.625 C-114.38660156 86.76195313 -114.39820313 87.89890625 -114.41015625 89.0703125 C-114.38457532 96.50583743 -113.37240232 102.9586425 -111 110 C-110.77038574 110.68787598 -110.54077148 111.37575195 -110.30419922 112.08447266 C-105.65056433 125.29887812 -98.8483557 135.98913018 -89 146 C-87.85917969 147.16015625 -87.85917969 147.16015625 -86.6953125 148.34375 C-71.32639856 163.05759548 -51.23262046 170.45123258 -30.125 170.25 C-29.05999268 170.24033203 -27.99498535 170.23066406 -26.89770508 170.22070312 C-4.25620608 169.87336096 15.60913972 161.52693391 31.875 145.5625 C49.75453467 126.85376952 56.77573335 104.30286893 56.3046875 78.8359375 C55.4187119 56.30579769 44.43069756 36.45793042 28.296875 21.01953125 C-8.23527273 -11.10142177 -62.81729537 -6.16550621 -94.69775391 29.44775391 Z " fill="#284783" transform="translate(155,40)"/>
<path d="M0 0 C4.55304389 1.25601211 5.9214227 2.0948328 8.625 6 C11.19820348 13.78394051 12.151132 21.84620241 12.625 30 C13.3675 30.09539062 14.11 30.19078125 14.875 30.2890625 C18.00989124 31.09950313 19.3051473 32.15804399 21.625 34.375 C25.01850428 37.48360187 28.19056949 39.96407212 32.4609375 41.78125 C39.34487538 44.84077795 44.23100861 49.69690777 47.5625 56.5 C48.81311035 60.61965762 48.85027367 63.71980033 48.625 68 C47.305 68 45.985 68 44.625 68 C44.42197266 66.83984375 44.42197266 66.83984375 44.21484375 65.65625 C42.68356404 58.24742364 40.78129795 52.70096297 34.625 48 C32.18070035 46.90511536 29.72358054 46.05369351 27.18359375 45.20703125 C23.15069839 43.30448977 20.60379071 40.17045073 17.73046875 36.828125 C15.73843394 34.74132555 15.73843394 34.74132555 12.86328125 34.734375 C12.12464844 34.82203125 11.38601562 34.9096875 10.625 35 C12.49906295 39.9342417 16.67553955 43.08219217 20.45703125 46.578125 C21.91907147 47.97998439 23.27956659 49.4858731 24.625 51 C24.625 52.32 24.625 53.64 24.625 55 C19.14971763 54.10713358 16.09225352 50.01979807 12.3125 46.25 C11.55904297 45.53328125 10.80558594 44.8165625 10.02929688 44.078125 C8.9687207 43.02625 8.9687207 43.02625 7.88671875 41.953125 C6.91158325 40.99647949 6.91158325 40.99647949 5.91674805 40.02050781 C4.625 38 4.625 38 4.79614258 35.37792969 C5.625 33 5.625 33 7.625 31 C7.52099671 28.04333499 7.29380114 25.23975838 6.9375 22.3125 C6.85822266 21.52166016 6.77894531 20.73082031 6.69726562 19.91601562 C6.10724168 14.77559122 5.12366144 10.55844792 2.625 6 C0.59222446 4.79894489 0.59222446 4.79894489 -1.375 4 C-4.22389201 29.12281483 -4.22389201 29.12281483 4.58984375 51.51953125 C9.0772093 56.41897126 14.24640376 60.61515992 19.62133789 64.50170898 C20.28254639 64.99614502 20.94375488 65.49058105 21.625 66 C21.625 66.33 21.625 66.66 21.625 67 C18.04489428 67.33470696 16.21597399 67.41887783 13.23144531 65.3034668 C12.10367676 64.13811401 12.10367676 64.13811401 10.953125 62.94921875 C10.12425781 62.10552734 9.29539062 61.26183594 8.44140625 60.39257812 C7.59449219 59.49990234 6.74757813 58.60722656 5.875 57.6875 C4.58142578 56.36588867 4.58142578 56.36588867 3.26171875 55.01757812 C-5.57974501 45.92014084 -5.57974501 45.92014084 -5.7890625 40.08984375 C-5.84755371 38.61680786 -5.84755371 38.61680786 -5.90722656 37.11401367 C-5.9378418 36.06576416 -5.96845703 35.01751465 -6 33.9375 C-6.03577148 32.86798096 -6.07154297 31.79846191 -6.10839844 30.6965332 C-6.20960049 27.46457327 -6.29373564 24.23251547 -6.375 21 C-6.40368164 20.06220703 -6.43236328 19.12441406 -6.46191406 18.15820312 C-6.53461625 15.66792326 -6.58497777 13.17849383 -6.625 10.6875 C-6.64643066 9.94814209 -6.66786133 9.20878418 -6.68994141 8.44702148 C-6.7086322 5.52606622 -6.70366199 3.49889709 -5.0703125 1.01953125 C-3.375 0 -3.375 0 0 0 Z " fill="#244380" transform="translate(65.375,106)"/>
<path d="M0 0 C2.45951586 2.45951586 2.23639239 3.8230564 2.25224304 7.17958069 C2.24505753 7.88473312 2.23787201 8.58988556 2.23046875 9.31640625 C2.23001053 10.04689682 2.22955231 10.77738739 2.2290802 11.53001404 C2.22605519 13.08097958 2.21816144 14.63194201 2.20581055 16.18286133 C2.18775838 18.52892137 2.18529958 20.87458143 2.18554688 23.22070312 C2.13887159 44.86112841 2.13887159 44.86112841 -1.6875 48.6875 C-2.30753906 49.32042969 -2.92757812 49.95335937 -3.56640625 50.60546875 C-4.36949219 51.39566406 -5.17257813 52.18585938 -6 53 C-7.13680766 54.20188553 -8.27067253 55.40655811 -9.40234375 56.61328125 C-10.6417669 57.91025313 -11.88266688 59.20581523 -13.125 60.5 C-13.72272217 61.13639404 -14.32044434 61.77278809 -14.9362793 62.4284668 C-19.33779144 66.90817375 -19.33779144 66.90817375 -22.9296875 67.40625 C-23.61289063 67.2721875 -24.29609375 67.138125 -25 67 C-20.78955665 61.96169682 -16.37756517 57.27893078 -11.6875 52.6875 C-10.43911894 51.46457014 -9.19291188 50.23941583 -7.94921875 49.01171875 C-7.40612061 48.48022217 -6.86302246 47.94872559 -6.3034668 47.40112305 C-3.07081215 43.92627663 -3.66487898 39.53701168 -3.46484375 35.0546875 C-3.42186661 34.1696756 -3.37888947 33.2846637 -3.33460999 32.37283325 C-3.19803459 29.54040489 -3.06769902 26.70772794 -2.9375 23.875 C-2.84611331 21.95701166 -2.7543216 20.03904258 -2.66210938 18.12109375 C-2.43670246 13.41427319 -2.21689204 8.70722031 -2 4 C-5.26460973 5.80412643 -6.88929795 6.83394693 -9 10 C-9.6893895 13.48537375 -9.92956346 17.02591735 -10.25 20.5625 C-10.4046875 22.01946289 -10.4046875 22.01946289 -10.5625 23.50585938 C-10.65015625 24.43333984 -10.7378125 25.36082031 -10.828125 26.31640625 C-10.9096582 27.16662354 -10.99119141 28.01684082 -11.07519531 28.89282227 C-11.23167983 31.22261331 -11.23167983 31.22261331 -9 33 C-8.97147003 36.37468782 -9.15551467 38.91104989 -11.27685547 41.64648438 C-12.93731213 43.26778172 -14.6517977 44.76796259 -16.4375 46.25 C-17.62595456 47.27342696 -18.81224043 48.299379 -19.99609375 49.328125 C-20.52388428 49.7705957 -21.0516748 50.21306641 -21.59545898 50.66894531 C-23.25727953 52.1450106 -23.25727953 52.1450106 -25 55 C-26.32 54.67 -27.64 54.34 -29 54 C-27.68276246 51.06936481 -26.27851354 49.05284056 -23.9609375 46.8359375 C-23.38085938 46.27132812 -22.80078125 45.70671875 -22.203125 45.125 C-21.59984375 44.5475 -20.9965625 43.97 -20.375 43.375 C-19.16998011 42.22082483 -17.96921513 41.06218537 -16.7734375 39.8984375 C-15.97558838 39.13539307 -15.97558838 39.13539307 -15.16162109 38.35693359 C-13.78322717 37.04448513 -13.78322717 37.04448513 -14 35 C-17.36349047 34.59447278 -18.63256753 34.71530067 -21.359375 36.828125 C-22.14828125 37.62734375 -22.9371875 38.4265625 -23.75 39.25 C-27.65977077 42.97359121 -30.97698946 45.16235276 -35.9609375 47.1171875 C-40.30707948 48.9988505 -43.19946835 51.78540026 -45.8125 55.75 C-47.30016698 59.82150962 -47.72255264 63.69478239 -48 68 C-49.32 68 -50.64 68 -52 68 C-52.57630643 61.75027691 -52.40720478 57.14036569 -48.6796875 51.94921875 C-43.80450497 46.29173949 -39.16968376 42.06029337 -31.97265625 39.9140625 C-28.59892983 38.35079125 -26.43687186 35.53333055 -24.0546875 32.7421875 C-21.44170551 30.52661722 -19.36044045 30.31414882 -16 30 C-15.95101562 29.09378906 -15.90203125 28.18757813 -15.8515625 27.25390625 C-14.64825254 7.64825254 -14.64825254 7.64825254 -8 1 C-5.23749964 -0.38125018 -3.05268901 -0.19079306 0 0 Z " fill="#264582" transform="translate(191,106)"/>
<path d="M0 0 C1.175625 -0.00257812 2.35125 -0.00515625 3.5625 -0.0078125 C13.34361931 0.10333658 13.34361931 0.10333658 18 3.5 C21.69480965 10.8896193 19.29509332 24.7749749 18.0234375 32.6875 C17 34.5 17 34.5 14 35.69848633 C10.71493132 37.20766203 10.71493132 37.20766203 10.13525391 40.50268555 C10.05670166 42.30153198 10.05670166 42.30153198 9.9765625 44.13671875 C9.90566406 45.43544922 9.83476562 46.73417969 9.76171875 48.07226562 C9.71551952 49.44398947 9.6699547 50.81573481 9.625 52.1875 C9.55864448 53.57109342 9.48966408 54.95456363 9.41796875 56.33789062 C9.25274714 59.72493369 9.11456202 63.11092636 9 66.5 C7.68 66.5 6.36 66.5 5 66.5 C4.61454666 40.71745421 4.61454666 40.71745421 8 33.5 C10.625 32.125 10.625 32.125 13 31.5 C13.36532144 28.64686976 13.71751313 25.79310096 14.0625 22.9375 C14.16626953 22.13763672 14.27003906 21.33777344 14.37695312 20.51367188 C14.9598048 15.58958017 15.01663615 11.36578688 14 6.5 C12.25454395 4.75454395 9.83875783 5.3697684 7.46875 5.3671875 C5.78845703 5.36525391 5.78845703 5.36525391 4.07421875 5.36328125 C2.30498047 5.36908203 2.30498047 5.36908203 0.5 5.375 C-0.67949219 5.37113281 -1.85898438 5.36726563 -3.07421875 5.36328125 C-4.19441406 5.36457031 -5.31460938 5.36585937 -6.46875 5.3671875 C-8.02239258 5.36887939 -8.02239258 5.36887939 -9.60742188 5.37060547 C-11.95297823 5.23034847 -11.95297823 5.23034847 -13 6.5 C-13.54902091 14.81605206 -12.67724997 23.21578159 -12 31.5 C-9.69 32.49 -7.38 33.48 -5 34.5 C-4.66200308 38.52045543 -4.33043881 42.54141688 -4 46.5625 C-3.85691406 48.2630957 -3.85691406 48.2630957 -3.7109375 49.99804688 C-3.2604244 55.51683235 -2.87140728 60.96247589 -3 66.5 C-4.32 66.5 -5.64 66.5 -7 66.5 C-7.33977725 63.16729126 -7.67063063 59.83375214 -8 56.5 C-8.09539062 55.56542969 -8.19078125 54.63085938 -8.2890625 53.66796875 C-8.81980465 48.24681677 -9.1027694 42.94677829 -9 37.5 C-9.763125 37.231875 -10.52625 36.96375 -11.3125 36.6875 C-14.06100014 35.47304645 -15.23594328 34.8854858 -17 32.5 C-17.7006663 28.18368165 -17.78933839 23.83619306 -17.92822266 19.47021484 C-17.99447209 17.65173552 -18.1102366 15.83524055 -18.23046875 14.01953125 C-18.27816406 12.98183594 -18.32585937 11.94414063 -18.375 10.875 C-18.42398438 9.95460938 -18.47296875 9.03421875 -18.5234375 8.0859375 C-16.59552962 -1.43850294 -7.74623695 -0.18686098 0 0 Z " fill="#274682" transform="translate(126,86.5)"/>
<path d="M0 0 C1.07636719 0.00322266 2.15273437 0.00644531 3.26171875 0.00976562 C4.38964844 0.01814453 5.51757812 0.02652344 6.6796875 0.03515625 C7.81535156 0.03966797 8.95101562 0.04417969 10.12109375 0.04882812 C12.93234388 0.0606401 15.7434898 0.07711118 18.5546875 0.09765625 C18.5546875 1.41765625 18.5546875 2.73765625 18.5546875 4.09765625 C17.86842285 4.11747559 17.1821582 4.13729492 16.47509766 4.15771484 C13.37622971 4.2527657 10.27805456 4.36252472 7.1796875 4.47265625 C6.09945312 4.50359375 5.01921875 4.53453125 3.90625 4.56640625 C2.875 4.60507813 1.84375 4.64375 0.78125 4.68359375 C-0.64840088 4.7307251 -0.64840088 4.7307251 -2.10693359 4.77880859 C-4.63426426 4.88321421 -4.63426426 4.88321421 -6.4453125 7.09765625 C-7.44830228 15.17257398 -6.04900388 24.01250382 -5.4453125 32.09765625 C-3.1353125 32.75765625 -0.8253125 33.41765625 1.5546875 34.09765625 C2.78692656 45.13279709 3.91989583 55.97909144 3.5546875 67.09765625 C2.2346875 66.76765625 0.9146875 66.43765625 -0.4453125 66.09765625 C-1.1053125 56.52765625 -1.7653125 46.95765625 -2.4453125 37.09765625 C-4.0953125 36.43765625 -5.7453125 35.77765625 -7.4453125 35.09765625 C-10.22563888 32.31732987 -10.15384309 29.40623417 -10.5703125 25.66015625 C-10.6523291 24.94239014 -10.7343457 24.22462402 -10.81884766 23.48510742 C-12.50539556 7.86446135 -12.50539556 7.86446135 -9.5703125 2.97265625 C-6.23645629 0.03101841 -4.36882758 -0.02299383 0 0 Z " fill="#11ADE1" transform="translate(95.4453125,72.90234375)"/>
<path d="M0 0 C3.56234428 -0.08741124 7.12441108 -0.14052896 10.6875 -0.1875 C11.69490234 -0.21263672 12.70230469 -0.23777344 13.74023438 -0.26367188 C23.1579348 -0.35691643 23.1579348 -0.35691643 27 3 C30.26156238 7.89234357 29.19089476 13.26699936 29 19 C28.95552734 20.78470703 28.95552734 20.78470703 28.91015625 22.60546875 C28.85730469 23.74628906 28.80445313 24.88710937 28.75 26.0625 C28.68039063 27.62677734 28.68039063 27.62677734 28.609375 29.22265625 C27.85523501 32.65979429 26.7686855 33.87439571 24 36 C21.75 36.75 21.75 36.75 20 37 C20.02320313 37.57363281 20.04640625 38.14726563 20.0703125 38.73828125 C20.27216309 48.23967703 19.09341553 57.5790537 18 67 C17.01 67 16.02 67 15 67 C14.93980021 60.66564383 14.93481378 54.33434539 15 48 C15.00870117 46.9469165 15.00870117 46.9469165 15.01757812 45.87255859 C15.04486739 44.08101807 15.11451087 42.29026108 15.1875 40.5 C15.22230469 39.4996875 15.25710937 38.499375 15.29296875 37.46875 C16 35 16 35 18.42578125 33.21875 C19.27527344 32.8165625 20.12476563 32.414375 21 32 C21.66 31.67 22.32 31.34 23 31 C24.53684496 23.40276643 24.66894641 14.69855271 24 7 C21.47871644 4.47871644 20.48760987 4.70646931 16.9921875 4.5859375 C16.00605469 4.54726562 15.01992187 4.50859375 14.00390625 4.46875 C12.97136719 4.4378125 11.93882812 4.406875 10.875 4.375 C9.83472656 4.33632812 8.79445312 4.29765625 7.72265625 4.2578125 C5.14861689 4.16335234 2.57458845 4.07778786 0 4 C0 2.68 0 1.36 0 0 Z " fill="#66B939" transform="translate(140,74)"/>
<path d="M0 0 C0.82290527 0.00202423 1.64581055 0.00404846 2.49365234 0.00613403 C3.33331543 0.00517731 4.17297852 0.00422058 5.03808594 0.00323486 C6.81689529 0.00255306 8.59570712 0.00440737 10.37451172 0.00857544 C13.10699011 0.01392371 15.83930411 0.00863048 18.57177734 0.00222778 C20.29573604 0.00288856 22.01969464 0.00416973 23.74365234 0.00613403 C24.56655762 0.0041098 25.38946289 0.00208557 26.23730469 0 C32.0037018 0.02399599 32.0037018 0.02399599 33.11865234 1.13894653 C33.19184856 3.83549507 33.21107772 6.50586111 33.18115234 9.20144653 C33.17664063 9.96005981 33.17212891 10.7186731 33.16748047 11.50027466 C33.15565914 13.37986525 33.13772312 15.25941552 33.11865234 17.13894653 C31.79865234 16.80894653 30.47865234 16.47894653 29.11865234 16.13894653 C29.11865234 12.50894653 29.11865234 8.87894653 29.11865234 5.13894653 C18.55865234 5.13894653 7.99865234 5.13894653 -2.88134766 5.13894653 C-2.88134766 8.76894653 -2.88134766 12.39894653 -2.88134766 16.13894653 C-4.20134766 16.46894653 -5.52134766 16.79894653 -6.88134766 17.13894653 C-6.90819444 14.49304639 -6.92811122 11.84741558 -6.94384766 9.20144653 C-6.95222656 8.44670044 -6.96060547 7.69195435 -6.96923828 6.91433716 C-6.97787206 4.9890034 -6.93359098 3.06359072 -6.88134766 1.13894653 C-5.03858257 -0.70381855 -2.45171007 0.01020242 0 0 Z " fill="#566E9D" transform="translate(139.88134765625,176.86105346679688)"/>
<path d="M0 0 C0.84477905 0.00202423 1.68955811 0.00404846 2.55993652 0.00613403 C3.42179565 0.00517731 4.28365479 0.00422058 5.17163086 0.00323486 C6.99751864 0.00255304 8.82340884 0.00440749 10.64929199 0.00857544 C13.45419731 0.01392367 16.25894248 0.00863054 19.06384277 0.00222778 C20.83337438 0.00288856 22.60290588 0.00416973 24.37243652 0.00613403 C25.21721558 0.0041098 26.06199463 0.00208557 26.93237305 0 C32.85123621 0.02399622 32.85123621 0.02399622 33.96618652 1.13894653 C34.03938274 3.83549507 34.0586119 6.50586111 34.02868652 9.20144653 C34.0241748 9.96005981 34.01966309 10.7186731 34.01501465 11.50027466 C34.00319332 13.37986525 33.9852573 15.25941552 33.96618652 17.13894653 C32.64618652 17.13894653 31.32618652 17.13894653 29.96618652 17.13894653 C29.96618652 12.84894653 29.96618652 8.55894653 29.96618652 4.13894653 C19.07618652 4.13894653 8.18618652 4.13894653 -3.03381348 4.13894653 C-3.03381348 8.42894653 -3.03381348 12.71894653 -3.03381348 17.13894653 C-4.35381348 17.13894653 -5.67381348 17.13894653 -7.03381348 17.13894653 C-7.06066026 14.49304639 -7.08057704 11.84741558 -7.09631348 9.20144653 C-7.10469238 8.44670044 -7.11307129 7.69195435 -7.1217041 6.91433716 C-7.13033789 4.9890034 -7.0860568 3.06359072 -7.03381348 1.13894653 C-5.16418629 -0.73068065 -2.48717787 0.0100835 0 0 Z " fill="#1A3A7A" transform="translate(86.0338134765625,176.86105346679688)"/>
<path d="M0 0 C5.50619612 3.26293103 5.50619612 3.26293103 6.55078125 6.9375 C6.81013892 10.85009577 6.20809832 12.68785252 4 16 C0.68785252 18.20809832 -1.14990423 18.81013892 -5.0625 18.55078125 C-8.74685029 17.50341554 -10.12308191 15.16729927 -12 12 C-12.73490789 7.99883483 -12.38814018 6.58221026 -10.125 3.1875 C-6.82949019 -0.20493657 -4.68335942 -0.54038763 0 0 Z " fill="#264581" transform="translate(130,65)"/>
<path d="M0 0 C3.62771552 0.88320639 4.97802955 2.36925437 6.94140625 5.47265625 C7.37062739 8.73241679 7.07375536 11.38599902 5.94140625 14.47265625 C2.67007924 17.74398326 0.93567912 18.45551361 -3.68359375 18.53515625 C-7.77463477 17.24723593 -9.01775335 16.22780259 -11.05859375 12.47265625 C-11.76522785 8.07582185 -11.5778961 6.23538158 -9.05859375 2.53515625 C-5.72572182 0.2438068 -3.96026137 -0.29307437 0 0 Z " fill="#65B838" transform="translate(153.05859375,51.52734375)"/>
<path d="M0 0 C2.75025718 1.7569363 3.35449951 2.98324911 5 6 C5.24943093 10.73918775 4.50412607 12.42385592 1.375 16 C-2 18 -2 18 -5.625 18.0625 C-9.39206021 16.87657364 -10.90469919 16.35248129 -13 13 C-13.76398394 8.71538902 -13.70980107 5.26529756 -11.5625 1.4375 C-7.71374588 -0.72155719 -4.29560364 -0.99950991 0 0 Z " fill="#12ADE1" transform="translate(108,52)"/>
<path d="M0 0 C0.33 0 0.66 0 1 0 C0.91508301 0.64211426 0.83016602 1.28422852 0.74267578 1.94580078 C-0.23975863 11.02968937 -1.02938693 20.43212159 4.20654297 28.32714844 C9.41986689 34.65281545 15.69858388 40.05296088 21.99633789 45.26367188 C22.65754639 45.83666016 23.31875488 46.40964844 24 47 C24 47.33 24 47.66 24 48 C20.41476065 48.3354591 18.5852852 48.41211337 15.59057617 46.3034668 C14.83236572 45.52656494 14.07415527 44.74966309 13.29296875 43.94921875 C12.45958984 43.10552734 11.62621094 42.26183594 10.76757812 41.39257812 C9.91615234 40.49990234 9.06472656 39.60722656 8.1875 38.6875 C6.88135742 37.36588867 6.88135742 37.36588867 5.54882812 36.01757812 C-0.84536553 29.46390341 -0.84536553 29.46390341 -2 26 C-1.94871851 24.00395301 -1.8251703 22.00940655 -1.66015625 20.01953125 C-1.56669922 18.85615234 -1.47324219 17.69277344 -1.37695312 16.49414062 C-1.27318359 15.27919922 -1.16941406 14.06425781 -1.0625 12.8125 C-0.96259766 11.58595703 -0.86269531 10.35941406 -0.75976562 9.09570312 C-0.51198235 6.06330783 -0.25850466 3.03149707 0 0 Z " fill="#2B4984" transform="translate(63,125)"/>
<path d="M0 0 C11.82282377 -0.82967184 23.2981099 3.26598744 34 8 C32.30078125 9.57421875 32.30078125 9.57421875 30 11 C27.66796875 10.70703125 27.66796875 10.70703125 25.1875 9.8125 C24.37667969 9.53019531 23.56585938 9.24789062 22.73046875 8.95703125 C21.82941406 8.64121094 20.92835938 8.32539062 20 8 C13.45440549 5.73617392 6.94495083 5.3523502 0.0625 4.875 C-1.09830078 4.78863281 -2.25910156 4.70226563 -3.45507812 4.61328125 C-6.30297446 4.40232597 -9.15118513 4.19809534 -12 4 C-12 3.67 -12 3.34 -12 3 C-11.21753906 2.95101562 -10.43507813 2.90203125 -9.62890625 2.8515625 C-8.61699219 2.77679688 -7.60507813 2.70203125 -6.5625 2.625 C-5.55316406 2.55539063 -4.54382813 2.48578125 -3.50390625 2.4140625 C-2.26447266 2.20910156 -2.26447266 2.20910156 -1 2 C-0.67 1.34 -0.34 0.68 0 0 Z " fill="#2E4C86" transform="translate(131,36)"/>
<path d="M0 0 C0.33 1.32 0.66 2.64 1 4 C-2 6 -2 6 -4.3125 6.8125 C-8.86964764 8.82612337 -12.07462826 11.59598771 -14.8125 15.75 C-16.30016698 19.82150962 -16.72255264 23.69478239 -17 28 C-18.32 28 -19.64 28 -21 28 C-21.57606135 21.75293468 -21.40751233 17.14340246 -17.68359375 11.953125 C-12.61785661 6.07639978 -7.81368915 1.32998964 0 0 Z " fill="#21417F" transform="translate(160,146)"/>
<path d="M0 0 C19.305 0.495 19.305 0.495 39 1 C39 5.62 39 10.24 39 15 C38.67 15 38.34 15 38 15 C38 11.04 38 7.08 38 3 C26.45 3 14.9 3 3 3 C3 7.29 3 11.58 3 16 C2.01 16 1.02 16 0 16 C0 10.72 0 5.44 0 0 Z " fill="#183979" transform="translate(133,178)"/>
<path d="M0 0 C4.09446251 0.49524163 5.76739276 1.33532929 8.3125 4.5625 C11.45166007 8.41384837 14.83871185 11.78166325 18.49609375 15.140625 C20 17 20 17 20 21 C14.52052221 20.11442014 11.50429491 15.97827658 7.75 12.1875 C7.00492187 11.46240234 6.25984375 10.73730469 5.4921875 9.99023438 C4.78835937 9.28576172 4.08453125 8.58128906 3.359375 7.85546875 C2.71452148 7.21246826 2.06966797 6.56946777 1.40527344 5.90698242 C0 4 0 4 0 0 Z " fill="#2D4B86" transform="translate(70,140)"/>
<path d="M0 0 C1.64510941 0.00015915 3.29022379 0.00585551 4.93530273 0.01586914 C6.23164894 0.01799156 6.23164894 0.01799156 7.55418396 0.02015686 C10.32578941 0.025773 13.09731528 0.0383282 15.86889648 0.05102539 C17.74324428 0.05603831 19.61759334 0.06060158 21.49194336 0.06469727 C26.09679192 0.07574767 30.70158069 0.09302309 35.30639648 0.11352539 C35.30639648 0.77352539 35.30639648 1.43352539 35.30639648 2.11352539 C22.76639648 2.11352539 10.22639648 2.11352539 -2.69360352 2.11352539 C-2.36360352 7.06352539 -2.03360352 12.01352539 -1.69360352 17.11352539 C-2.68360352 17.11352539 -3.67360352 17.11352539 -4.69360352 17.11352539 C-4.7204503 14.46762525 -4.74036708 11.82199443 -4.75610352 9.17602539 C-4.76448242 8.4212793 -4.77286133 7.6665332 -4.78149414 6.88891602 C-4.79012792 4.96358226 -4.74584684 3.03816958 -4.69360352 1.11352539 C-3.69360352 0.11352539 -3.69360352 0.11352539 0 0 Z " fill="#415C91" transform="translate(83.693603515625,176.886474609375)"/>
<path d="M0 0 C0.66 0.33 1.32 0.66 2 1 C-0.35653362 6.4147532 -4.70972645 10.11817455 -8.8125 14.25 C-10.02389648 15.51070312 -10.02389648 15.51070312 -11.25976562 16.796875 C-12.04673828 17.5909375 -12.83371094 18.385 -13.64453125 19.203125 C-14.35971924 19.93176758 -15.07490723 20.66041016 -15.81176758 21.41113281 C-18.42571221 23.30910801 -19.84055107 23.33654623 -23 23 C-18.64199371 17.78934031 -14.06625699 12.91287041 -9.25 8.125 C-8.57839844 7.44953125 -7.90679687 6.7740625 -7.21484375 6.078125 C-6.57160156 5.43617188 -5.92835938 4.79421875 -5.265625 4.1328125 C-4.68586914 3.55418457 -4.10611328 2.97555664 -3.50878906 2.37939453 C-2 1 -2 1 0 0 Z " fill="#1B3B7B" transform="translate(189,150)"/>
<path d="M0 0 C2 2 2 2 2.4375 5.8125 C2.34337753 9.25738255 1.98819656 10.01666367 -0.125 13 C-3.42755191 15.29742742 -5.0645403 15.45761159 -9 15 C-8 12 -8 12 -5.4375 10.6875 C-4.633125 10.130625 -3.82875 9.57375 -3 9 C-2.58253392 5.87364791 -2.58253392 5.87364791 -3 3 C-5.31 2.67 -7.62 2.34 -10 2 C-10 1.01 -10 0.02 -10 -1 C-5.93012452 -1.9249717 -3.53536724 -2.3989992 0 0 Z " fill="#264581" transform="translate(134,68)"/>
<path d="M0 0 C0 0.99 0 1.98 0 3 C-3.23751678 4.07917226 -5.57751771 4.11425601 -8.98046875 4.09765625 C-10.14384766 4.09443359 -11.30722656 4.09121094 -12.50585938 4.08789062 C-13.72080078 4.07951172 -14.93574219 4.07113281 -16.1875 4.0625 C-17.41404297 4.05798828 -18.64058594 4.05347656 -19.90429688 4.04882812 C-22.93624668 4.03703065 -25.96809906 4.02056921 -29 4 C-29.33 3.34 -29.66 2.68 -30 2 C-26.02128008 0.7573027 -21.94438449 0.65624418 -17.8125 0.4375 C-17.05525635 0.3950415 -16.2980127 0.35258301 -15.51782227 0.30883789 C-10.33805542 0.03265034 -5.18772055 -0.09432219 0 0 Z " fill="#1F3E7D" transform="translate(141,210)"/>
<path d="M0 0 C0.86238281 0.20496094 1.72476563 0.40992188 2.61328125 0.62109375 C13.07863783 2.9307659 23.30128283 3.66602498 34 4 C34 4.33 34 4.66 34 5 C32.87722656 5.06058594 31.75445312 5.12117187 30.59765625 5.18359375 C29.08592684 5.26803847 27.57420881 5.35268725 26.0625 5.4375 C24.88868774 5.5008252 24.88868774 5.5008252 23.69116211 5.56542969 C19.76821315 5.78901534 15.94327624 6.11023435 12.0625 6.75 C7.06257418 7.406853 2.64682547 5.71709417 -2 4 C-1.34 3.67 -0.68 3.34 0 3 C0 2.01 0 1.02 0 0 Z " fill="#304E87" transform="translate(98,206)"/>
<path d="M0 0 C5.56818182 0.56818182 5.56818182 0.56818182 7 2 C7.1875 4.9375 7.1875 4.9375 7 8 C5 10 5 10 2 10.3125 C1.01 10.209375 0.02 10.10625 -1 10 C-3 7 -3 7 -2.75 4.4375 C-2 2 -2 2 0 0 Z " fill="#F1F3F7" transform="translate(125,69)"/>
<path d="M0 0 C3 0.25 3 0.25 5 2.25 C5.36796448 5.12012296 5.37509409 6.65774618 3.8125 9.125 C2 10.25 2 10.25 -0.5625 10.0625 C-3 9.25 -3 9.25 -5 7.25 C-5.25 4.75 -5.25 4.75 -5 2.25 C-3 0.25 -3 0.25 0 0 Z " fill="#F6FBF3" transform="translate(151,55.75)"/>
<path d="M0 0 C3.375 -0.1875 3.375 -0.1875 7 0 C9 3 9 3 8.8125 5.5625 C8 8 8 8 5 10 C0.45945946 9.45945946 0.45945946 9.45945946 -1 8 C-1.23529412 2.47058824 -1.23529412 2.47058824 0 0 Z " fill="#EEF9FD" transform="translate(100,56)"/>
<path d="M0 0 C0.66 1.32 1.32 2.64 2 4 C2.66 4 3.32 4 4 4 C3.88566637 6.25056722 3.75813564 8.50046674 3.625 10.75 C3.55539063 12.00296875 3.48578125 13.2559375 3.4140625 14.546875 C3.04676696 17.60998121 2.60288714 19.41974266 1 22 C0.01 21.67 -0.98 21.34 -2 21 C-1.03644647 6.21867882 -1.03644647 6.21867882 0 0 Z " fill="#3A568D" transform="translate(177,115)"/>
<path d="M0 0 C0.66 7.59 1.32 15.18 2 23 C1.34 23 0.68 23 0 23 C-0.33 23.66 -0.66 24.32 -1 25 C-3.63537118 17.09388645 -3.17981101 9.23134837 -3 1 C-1 0 -1 0 0 0 Z " fill="#21407E" transform="translate(40,119)"/>
<path d="M0 0 C0.66 0.99 1.32 1.98 2 3 C1.67 3.99 1.34 4.98 1 6 C1.66 6 2.32 6 3 6 C2.67 13.26 2.34 20.52 2 28 C1.67 28 1.34 28 1 28 C0.92652344 27.04287109 0.92652344 27.04287109 0.8515625 26.06640625 C0.77679688 25.24011719 0.70203125 24.41382812 0.625 23.5625 C0.55539063 22.73878906 0.48578125 21.91507813 0.4140625 21.06640625 C0.27742188 20.38449219 0.14078125 19.70257813 0 19 C-0.66 18.67 -1.32 18.34 -2 18 C-2.23268915 11.71739294 -1.40454548 6.11980533 0 0 Z " fill="#324F89" transform="translate(39,102)"/>
<path d="M0 0 C0.66 0 1.32 0 2 0 C2 5.61 2 11.22 2 17 C0.68 16.67 -0.64 16.34 -2 16 C-2.05384521 13.70858714 -2.09272087 11.41681812 -2.125 9.125 C-2.14820313 7.84882813 -2.17140625 6.57265625 -2.1953125 5.2578125 C-2 2 -2 2 0 0 Z " fill="#6CBB41" transform="translate(144,124)"/>
<path d="M0 0 C0 5.28 0 10.56 0 16 C-1.32 16 -2.64 16 -4 16 C-4 11.05 -4 6.1 -4 1 C-1 0 -1 0 0 0 Z " fill="#264582" transform="translate(120,178)"/>
<path d="M0 0 C0.33 0.99 0.66 1.98 1 3 C-5.6 3.33 -12.2 3.66 -19 4 C-19 3.01 -19 2.02 -19 1 C-12.65758005 -0.15316726 -6.43311296 -0.09507063 0 0 Z " fill="#183879" transform="translate(131,36)"/>
<path d="M0 0 C1.32 0.66 2.64 1.32 4 2 C3.67 6.29 3.34 10.58 3 15 C1.68 15 0.36 15 -1 15 C-0.67 10.05 -0.34 5.1 0 0 Z " fill="#0FACE1" transform="translate(108,124)"/>
<path d="M0 0 C9.41002278 -0.18451025 9.41002278 -0.18451025 14 1 C14 1.33 14 1.66 14 2 C12.35 2.33 10.7 2.66 9 3 C9 3.66 9 4.32 9 5 C2.07 4.67 -4.86 4.34 -12 4 C-12 3.67 -12 3.34 -12 3 C-11.21753906 2.95101562 -10.43507813 2.90203125 -9.62890625 2.8515625 C-8.61699219 2.77679688 -7.60507813 2.70203125 -6.5625 2.625 C-5.55316406 2.55539063 -4.54382813 2.48578125 -3.50390625 2.4140625 C-2.26447266 2.20910156 -2.26447266 2.20910156 -1 2 C-0.67 1.34 -0.34 0.68 0 0 Z " fill="#445E93" transform="translate(131,36)"/>
<path d="M0 0 C2.26562673 2.26562673 2.94462749 3.84160705 3.09765625 7.04296875 C3.06510417 9.02864583 3.03255208 11.01432292 3 13 C1.68 13 0.36 13 -1 13 C-1.66 9.04 -2.32 5.08 -3 1 C-2.01 0.67 -1.02 0.34 0 0 Z " fill="#35528A" transform="translate(111,161)"/>
<path d="M0 0 C0.33 0 0.66 0 1 0 C1.33 4.95 1.66 9.9 2 15 C2.33 15 2.66 15 3 15 C2.67 23.91 2.34 32.82 2 42 C1.67 42 1.34 42 1 42 C0.32932546 27.9907504 -0.15938672 14.02603124 0 0 Z " fill="#6278A4" transform="translate(59,109)"/>
<path d="M0 0 C0.99 0 1.98 0 3 0 C4.07525194 2.65228812 5.09456151 5.28368454 6 8 C7.65 8.33 9.3 8.66 11 9 C10.67 9.66 10.34 10.32 10 11 C5.8549919 10.76086492 3.63674751 10.57307276 0.5 7.75 C-1 5 -1 5 -0.75 2.1875 C-0.5025 1.465625 -0.255 0.74375 0 0 Z " fill="#6CBC41" transform="translate(143,59)"/>
<path d="M0 0 C0.33 0 0.66 0 1 0 C1.33 1.65 1.66 3.3 2 5 C2.66 4.67 3.32 4.34 4 4 C4.49230769 11.38461538 4.49230769 11.38461538 2 14.5 C1.34 14.995 0.68 15.49 0 16 C-0.99 15.01 -1.98 14.02 -3 13 C-2.34 12.34 -1.68 11.68 -1 11 C-0.53709779 8.33757179 -0.53709779 8.33757179 -0.375 5.375 C-0.30023438 4.37210937 -0.22546875 3.36921875 -0.1484375 2.3359375 C-0.09945312 1.56507812 -0.05046875 0.79421875 0 0 Z " fill="#6EBC43" transform="translate(164,94)"/>
<path d="M0 0 C0.34734012 4.1680815 -0.35347779 5.82417335 -3 9 C-3.33 9.99 -3.66 10.98 -4 12 C-4.99 12.33 -5.98 12.66 -7 13 C-7.43535798 8.64642017 -7.38921814 5.95900264 -4.625 2.5625 C-2 0 -2 0 0 0 Z " fill="#2E4C86" transform="translate(185,107)"/>
<path d="M0 0 C0.33 0 0.66 0 1 0 C1 11.22 1 22.44 1 34 C0.67 34 0.34 34 0 34 C-0.33 25.75 -0.66 17.5 -1 9 C-1.33 9 -1.66 9 -2 9 C-2.125 5.625 -2.125 5.625 -2 2 C-1.34 1.34 -0.68 0.68 0 0 Z " fill="#466094" transform="translate(192,108)"/>
<path d="M0 0 C0.99 0 1.98 0 3 0 C2.49202991 4.3177458 1.80317221 8.03302114 0 12 C-0.99 12 -1.98 12 -3 12 C-2.14285714 3.42857143 -2.14285714 3.42857143 0 0 Z " fill="#20407E" transform="translate(208,149)"/>
<path d="M0 0 C0.33 0.66 0.66 1.32 1 2 C1.66 2 2.32 2 3 2 C3.33 1.34 3.66 0.68 4 0 C6.42857143 7.42857143 6.42857143 7.42857143 5 11 C4.67 10.67 4.34 10.34 4 10 C3.34 11.32 2.68 12.64 2 14 C-0.29612756 4.58997722 -0.29612756 4.58997722 0 0 Z " fill="#36538B" transform="translate(208,99)"/>
<path d="M0 0 C0 0.66 0 1.32 0 2 C-1.98 2.33 -3.96 2.66 -6 3 C-6.33 4.32 -6.66 5.64 -7 7 C-7.66 6.67 -8.32 6.34 -9 6 C-9.33 8.31 -9.66 10.62 -10 13 C-10.66 12.67 -11.32 12.34 -12 12 C-12.35671933 8.16526716 -12.29771416 6.44657125 -10.125 3.1875 C-6.76003405 -0.27643554 -4.71354096 -0.10246828 0 0 Z " fill="#36528B" transform="translate(130,65)"/>
<path d="M0 0 C0.33 0 0.66 0 1 0 C1.33 8.58 1.66 17.16 2 26 C1.01 26 0.02 26 -1 26 C-1.11624638 17.26860536 -0.89115181 8.68873018 0 0 Z " fill="#23427F" transform="translate(63,125)"/>
<path d="M0 0 C2 2 2 2 2.23046875 3.99609375 C2.11832409 10.36794935 1.67467806 16.66284539 1 23 C0.67 23 0.34 23 0 23 C-0.19588601 19.3545658 -0.38030536 15.7086421 -0.5625 12.0625 C-0.61857422 11.02158203 -0.67464844 9.98066406 -0.73242188 8.90820312 C-0.78076172 7.91884766 -0.82910156 6.92949219 -0.87890625 5.91015625 C-0.9260376 4.99371338 -0.97316895 4.07727051 -1.02172852 3.13305664 C-1 1 -1 1 0 0 Z " fill="#173879" transform="translate(212,108)"/>
<path d="M0 0 C1.02802734 0.00322266 2.05605469 0.00644531 3.11523438 0.00976562 C4.72301758 0.02233398 4.72301758 0.02233398 6.36328125 0.03515625 C7.44673828 0.03966797 8.53019531 0.04417969 9.64648438 0.04882812 C12.3229721 0.06061882 14.99934902 0.07707562 17.67578125 0.09765625 C17.67578125 0.42765625 17.67578125 0.75765625 17.67578125 1.09765625 C16.55300781 1.15824219 15.43023437 1.21882812 14.2734375 1.28125 C6.7123716 1.70060607 -0.80806285 2.14105459 -8.32421875 3.09765625 C-8.32421875 2.43765625 -8.32421875 1.77765625 -8.32421875 1.09765625 C-5.26502487 0.07792496 -3.2000385 -0.01767977 0 0 Z " fill="#425D92" transform="translate(114.32421875,209.90234375)"/>
<path d="M0 0 C0.33 0 0.66 0 1 0 C1.33 1.65 1.66 3.3 2 5 C2.66 5 3.32 5 4 5 C4 7.64 4 10.28 4 13 C2.68 13 1.36 13 0 13 C0 8.71 0 4.42 0 0 Z " fill="#36538B" transform="translate(131,140)"/>
<path d="M0 0 C2.99324263 1.0975223 3.84610901 1.67682892 5.25 4.625 C5.4975 5.40875 5.745 6.1925 6 7 C5.01 7.495 5.01 7.495 4 8 C2.86649466 10.01669827 2.86649466 10.01669827 2 12 C1.566875 10.3603125 1.566875 10.3603125 1.125 8.6875 C0.18106796 4.95986155 0.18106796 4.95986155 -2 2 C-1.34 2 -0.68 2 0 2 C0 1.34 0 0.68 0 0 Z " fill="#6BBB40" transform="translate(163,75)"/>
<path d="M0 0 C-1.33488128 3.59391114 -2.96022723 6.75490696 -5 10 C-5.99 9.67 -6.98 9.34 -8 9 C-7.70100785 5.41209425 -7.23013399 4.21833224 -4.5625 1.6875 C-2 0 -2 0 0 0 Z " fill="#20407E" transform="translate(57,73)"/>
<path d="M0 0 C0.75 2.125 0.75 2.125 1 4 C0.484375 3.855625 -0.03125 3.71125 -0.5625 3.5625 C-3.68509571 2.84190099 -6.82550692 2.42733561 -10 2 C-10 1.01 -10 0.02 -10 -1 C-3.25628141 -2.53266332 -3.25628141 -2.53266332 0 0 Z " fill="#1E3E7D" transform="translate(134,68)"/>
<path d="M0 0 C0.99 0 1.98 0 3 0 C4.42857143 8.57142857 4.42857143 8.57142857 2 12 C-0.13586678 8.79619983 -0.23132175 7.98060033 -0.125 4.3125 C-0.10695313 3.50425781 -0.08890625 2.69601563 -0.0703125 1.86328125 C-0.04710938 1.24839844 -0.02390625 0.63351563 0 0 Z " fill="#1F3F7D" transform="translate(72,117)"/>
<path d="M0 0 C0.66 0.33 1.32 0.66 2 1 C2.08121924 2.60332791 2.13929134 4.20784026 2.1875 5.8125 C2.23970703 7.15248047 2.23970703 7.15248047 2.29296875 8.51953125 C1.95081002 11.41647515 1.24606427 12.22555028 -1 14 C-1.02694851 12.04174127 -1.04637218 10.08337774 -1.0625 8.125 C-1.07410156 7.03445312 -1.08570313 5.94390625 -1.09765625 4.8203125 C-1 2 -1 2 0 0 Z " fill="#173879" transform="translate(143,91)"/>
<path d="M0 0 C2.4375 0.8125 2.4375 0.8125 5 2 C6.2077558 5.62326739 5.54311128 6.64146369 4 10 C3.79375 9.38125 3.5875 8.7625 3.375 8.125 C1.45224112 5.15346355 -0.66594527 4.86975341 -4 4 C-2.68 2.68 -1.36 1.36 0 0 Z " fill="#63B734" transform="translate(153,52)"/>
<path d="M0 0 C-0.99 0.66 -1.98 1.32 -3 2 C-2.67 2.66 -2.34 3.32 -2 4 C-2.08910158 6.55807762 -2.23294246 9.0762601 -2.4375 11.625 C-2.48970703 12.33140625 -2.54191406 13.0378125 -2.59570312 13.765625 C-2.72541207 15.51079987 -2.86204954 17.25545725 -3 19 C-3.33 19 -3.66 19 -4 19 C-4 14.05 -4 9.1 -4 4 C-4.99 3.67 -5.98 3.34 -7 3 C-7 2.34 -7 1.68 -7 1 C-4.53721199 -0.231394 -2.7204945 -0.07159196 0 0 Z " fill="#59719F" transform="translate(67,106)"/>
<path d="M0 0 C0.99 1.485 0.99 1.485 2 3 C2.66 3 3.32 3 4 3 C4 5.31 4 7.62 4 10 C2.68 10 1.36 10 0 10 C0 6.7 0 3.4 0 0 Z " fill="#3F5A90" transform="translate(139,164)"/>
<path d="M0 0 C0 3.96 0 7.92 0 12 C-0.99 11.67 -1.98 11.34 -3 11 C-3 7.7 -3 4.4 -3 1 C-1 0 -1 0 0 0 Z " fill="#163778" transform="translate(40,119)"/>
<path d="M0 0 C0.33 1.32 0.66 2.64 1 4 C-2 6 -2 6 -6 6 C-6.33 4.68 -6.66 3.36 -7 2 C-4.69 1.34 -2.38 0.68 0 0 Z " fill="#335089" transform="translate(160,146)"/>
<path d="M0 0 C0.66 0 1.32 0 2 0 C2 2.97 2 5.94 2 9 C1.34 9 0.68 9 0 9 C-0.33 9.66 -0.66 10.32 -1 11 C-1.02688151 9.35425434 -1.04634123 7.70838587 -1.0625 6.0625 C-1.07410156 5.14597656 -1.08570313 4.22945312 -1.09765625 3.28515625 C-1 1 -1 1 0 0 Z " fill="#163778" transform="translate(133,136)"/>
<path d="M0 0 C1.2065625 0.0309375 1.2065625 0.0309375 2.4375 0.0625 C2.1075 1.3825 1.7775 2.7025 1.4375 4.0625 C0.4475 4.0625 -0.5425 4.0625 -1.5625 4.0625 C-1.8925 5.3825 -2.2225 6.7025 -2.5625 8.0625 C-2.8925 8.0625 -3.2225 8.0625 -3.5625 8.0625 C-3.60491723 5.72955225 -3.60342937 3.39547433 -3.5625 1.0625 C-2.5625 0.0625 -2.5625 0.0625 0 0 Z " fill="#60B631" transform="translate(160.5625,106.9375)"/>
<path d="M0 0 C0.99 0.33 1.98 0.66 3 1 C2 3 1 5 0 7 C-0.99 6.67 -1.98 6.34 -3 6 C-2.42655063 3.13275314 -2.1385485 2.1385485 0 0 Z " fill="#1A3B7B" transform="translate(112,88)"/>
<path d="M0 0 C0.33 0 0.66 0 1 0 C1.33 2.31 1.66 4.62 2 7 C2.66 7 3.32 7 4 7 C4 8.98 4 10.96 4 13 C3.67 12.01 3.34 11.02 3 10 C2.01 10.33 1.02 10.66 0 11 C0 7.37 0 3.74 0 0 Z " fill="#435E92" transform="translate(132,126)"/>
<path d="M0 0 C0.66 0 1.32 0 2 0 C2 2.31 2 4.62 2 7 C0.68 7.33 -0.64 7.66 -2 8 C-1.47731534 5.23723823 -0.89130413 2.6739124 0 0 Z " fill="#335089" transform="translate(75,125)"/>
<path d="M0 0 C1.46726798 3.81489674 0.43336419 6.29011622 -1 10 C-1.66 10 -2.32 10 -3 10 C-3.36923077 3.47692308 -3.36923077 3.47692308 -1.5 1.0625 C-1.005 0.711875 -0.51 0.36125 0 0 Z " fill="#1B3B7B" transform="translate(43,98)"/>
<path d="M0 0 C1.98 0.495 1.98 0.495 4 1 C3.67 2.32 3.34 3.64 3 5 C1.68 4.67 0.36 4.34 -1 4 C-0.67 2.68 -0.34 1.36 0 0 Z " fill="#3C588E" transform="translate(144,186)"/>
<path d="M0 0 C1.98 0.495 1.98 0.495 4 1 C3.67 2.32 3.34 3.64 3 5 C1.68 4.67 0.36 4.34 -1 4 C-0.67 2.68 -0.34 1.36 0 0 Z " fill="#3C588E" transform="translate(106,186)"/>
<path d="M0 0 C0.99 0 1.98 0 3 0 C3.1875 2.8125 3.1875 2.8125 3 6 C2.01 6.99 1.02 7.98 0 9 C0 6.03 0 3.06 0 0 Z " fill="#5AB329" transform="translate(165,92)"/>
<path d="M0 0 C1.8871875 0.0309375 1.8871875 0.0309375 3.8125 0.0625 C3.8125 0.3925 3.8125 0.7225 3.8125 1.0625 C1.5025 1.3925 -0.8075 1.7225 -3.1875 2.0625 C-2.8575 3.0525 -2.5275 4.0425 -2.1875 5.0625 C-3.5075 5.0625 -4.8275 5.0625 -6.1875 5.0625 C-6.5175 3.7425 -6.8475 2.4225 -7.1875 1.0625 C-4.43671116 0.14557039 -2.82801087 -0.04636083 0 0 Z " fill="#445F93" transform="translate(115.1875,35.9375)"/>
<path d="M0 0 C2.97 0 5.94 0 9 0 C8.34 0.66 7.68 1.32 7 2 C7.33 2.66 7.66 3.32 8 4 C3.91927658 3.44855089 3.08669204 3.08669204 0 0 Z " fill="#3B578E" transform="translate(137,209)"/>
<path d="M0 0 C0.33 2.97 0.66 5.94 1 9 C-0.32 8.67 -1.64 8.34 -3 8 C-3 5.69 -3 3.38 -3 1 C-1 0 -1 0 0 0 Z " fill="#3B578E" transform="translate(143,110)"/>
<path d="M0 0 C1.2065625 0.0309375 1.2065625 0.0309375 2.4375 0.0625 C2.7675 1.7125 3.0975 3.3625 3.4375 5.0625 C0.52232708 3.98848892 -1.34060176 3.28439824 -3.5625 1.0625 C-2.5625 0.0625 -2.5625 0.0625 0 0 Z " fill="#20407E" transform="translate(66.5625,106.9375)"/>
<path d="M0 0 C1.32 0.66 2.64 1.32 4 2 C3.34 3.65 2.68 5.3 2 7 C0.4375 5.75 0.4375 5.75 -1 4 C-0.6875 1.8125 -0.6875 1.8125 0 0 Z " fill="#2B4984" transform="translate(140,88)"/>
<path d="M0 0 C0.33 0.99 0.66 1.98 1 3 C-1.97 2.67 -4.94 2.34 -8 2 C-4.77208445 -0.1519437 -3.71599191 -0.20086443 0 0 Z " fill="#1A3A7A" transform="translate(145,38)"/>
<path d="M0 0 C1.98 0 3.96 0 6 0 C6 0.99 6 1.98 6 3 C4.35 3.33 2.7 3.66 1 4 C0.67 2.68 0.34 1.36 0 0 Z " fill="#5CB42C" transform="translate(147,52)"/>
<path d="M0 0 C0.33 0.99 0.66 1.98 1 3 C1.66 3 2.32 3 3 3 C2.67 4.65 2.34 6.3 2 8 C1.01 7.34 0.02 6.68 -1 6 C-0.67 4.02 -0.34 2.04 0 0 Z " fill="#2E4C86" transform="translate(204,158)"/>
<path d="M0 0 C1 3 1 3 0 6 C-0.99 6.33 -1.98 6.66 -3 7 C-3.1875 4.625 -3.1875 4.625 -3 2 C-2.01 1.34 -1.02 0.68 0 0 Z " fill="#19397A" transform="translate(181,113)"/>
<path d="M0 0 C1.98 0.495 1.98 0.495 4 1 C3 4 3 4 0.9375 5.1875 C0.298125 5.455625 -0.34125 5.72375 -1 6 C-0.67 4.02 -0.34 2.04 0 0 Z " fill="#38548C" transform="translate(41,95)"/>
<path d="M0 0 C1.32 0.33 2.64 0.66 4 1 C3.67 2.65 3.34 4.3 3 6 C2.34 5.67 1.68 5.34 1 5 C0.375 2.4375 0.375 2.4375 0 0 Z " fill="#1D3D7C" transform="translate(204,89)"/>
<path d="M0 0 C1.32 0.66 2.64 1.32 4 2 C3.34 2 2.68 2 2 2 C2.33 2.99 2.66 3.98 3 5 C0.69 4.67 -1.62 4.34 -4 4 C-2.68 2.68 -1.36 1.36 0 0 Z " fill="#74BF4B" transform="translate(153,52)"/>
</svg>
