<?xml version="1.0" encoding="UTF-8"?>
<svg version="1.1" xmlns="http://www.w3.org/2000/svg" width="250" height="250">
<path d="M0 0 C82.5 0 165 0 250 0 C250 82.5 250 165 250 250 C167.5 250 85 250 0 250 C0 167.5 0 85 0 0 Z " fill="#FEFEFE" transform="translate(0,0)"/>
<path d="M0 0 C14.77498463 12.2464432 26.6192336 27.33627888 32 46 C32.29777344 47.00804688 32.59554687 48.01609375 32.90234375 49.0546875 C38.92244907 72.63574522 34.2297182 96.0084295 23.3046875 117.3046875 C18.86902837 124.69745272 13.01811508 130.88744945 7 137 C6.29230469 137.7321875 5.58460938 138.464375 4.85546875 139.21875 C-4.70020006 148.42727214 -18.598733 155.77544831 -31.5 158.625 C-32.5621875 158.86476562 -33.624375 159.10453125 -34.71875 159.3515625 C-58.84735717 164.11983487 -82.97364139 160.54737034 -103.625 146.8125 C-123.2345853 132.51632602 -136.14145993 114.84673351 -142 91 C-142.20367187 90.27554688 -142.40734375 89.55109375 -142.6171875 88.8046875 C-148.07237562 66.7597492 -141.98840582 42.86401421 -130.53125 23.8046875 C-126.73753733 17.86579188 -121.96612808 12.95849962 -117 8 C-116.41863281 7.34773438 -115.83726563 6.69546875 -115.23828125 6.0234375 C-86.24740692 -25.9614566 -32.76073635 -24.75148416 0 0 Z " fill="#FAFCFB" transform="translate(179,54)"/>
<path d="M0 0 C14.77498463 12.2464432 26.6192336 27.33627888 32 46 C32.29777344 47.00804688 32.59554687 48.01609375 32.90234375 49.0546875 C38.92244907 72.63574522 34.2297182 96.0084295 23.3046875 117.3046875 C18.86902837 124.69745272 13.01811508 130.88744945 7 137 C6.29230469 137.7321875 5.58460938 138.464375 4.85546875 139.21875 C-4.70020006 148.42727214 -18.598733 155.77544831 -31.5 158.625 C-32.5621875 158.86476562 -33.624375 159.10453125 -34.71875 159.3515625 C-58.84735717 164.11983487 -82.97364139 160.54737034 -103.625 146.8125 C-123.2345853 132.51632602 -136.14145993 114.84673351 -142 91 C-142.20367187 90.27554688 -142.40734375 89.55109375 -142.6171875 88.8046875 C-148.07237562 66.7597492 -141.98840582 42.86401421 -130.53125 23.8046875 C-126.73753733 17.86579188 -121.96612808 12.95849962 -117 8 C-116.41863281 7.34773438 -115.83726563 6.69546875 -115.23828125 6.0234375 C-86.24740692 -25.9614566 -32.76073635 -24.75148416 0 0 Z M-118.625 14.625 C-133.08195094 31.33599168 -139.09557835 50.26520335 -139.25 72.125 C-139.25942627 73.13860596 -139.26885254 74.15221191 -139.27856445 75.1965332 C-139.18469694 96.95077262 -129.86382958 116.79581521 -114.78515625 132.28125 C-97.56627715 149.08958079 -76.51877774 157.60848182 -52.5300293 157.34667969 C-32.88884943 156.7884273 -15.19638536 150.63375714 0 138 C0.71285156 137.43667969 1.42570313 136.87335938 2.16015625 136.29296875 C17.98766554 123.27110658 28.07945598 103.10583326 31 83 C31.25708564 79.34832096 31.28771407 75.72204298 31.25 72.0625 C31.24178223 71.09103027 31.23356445 70.11956055 31.22509766 69.11865234 C30.8456531 44.85460127 20.10073701 24.32896869 2.8671875 7.48828125 C-5.37223965 0.33771573 -14.91170882 -4.91547235 -25 -9 C-25.79664063 -9.33902344 -26.59328125 -9.67804687 -27.4140625 -10.02734375 C-59.77046812 -22.19765342 -95.63771017 -9.39811225 -118.625 14.625 Z " fill="#284682" transform="translate(179,54)"/>
<path d="M0 0 C1.25361328 0.00322266 2.50722656 0.00644531 3.79882812 0.00976562 C5.76432617 0.02233398 5.76432617 0.02233398 7.76953125 0.03515625 C9.10481606 0.04017308 10.44010266 0.04473566 11.77539062 0.04882812 C15.04431598 0.0606293 18.31315116 0.07709328 21.58203125 0.09765625 C21.58203125 1.41765625 21.58203125 2.73765625 21.58203125 4.09765625 C20.43988159 4.12738525 20.43988159 4.12738525 19.2746582 4.15771484 C15.81427653 4.25315547 12.3544827 4.36275837 8.89453125 4.47265625 C7.69634766 4.50359375 6.49816406 4.53453125 5.26367188 4.56640625 C3.52827148 4.62441406 3.52827148 4.62441406 1.7578125 4.68359375 C0.69473877 4.71501465 -0.36833496 4.74643555 -1.46362305 4.77880859 C-7.7791572 5.4604124 -11.49849592 8.59112864 -16.234375 12.5390625 C-18.41796875 14.09765625 -18.41796875 14.09765625 -22.41796875 15.09765625 C-22.41796875 20.70765625 -22.41796875 26.31765625 -22.41796875 32.09765625 C-20.76796875 32.42765625 -19.11796875 32.75765625 -17.41796875 33.09765625 C-15.03125 34.69140625 -15.03125 34.69140625 -12.73046875 36.59765625 C-7.72931521 40.69944269 -4.7709362 41.27592789 1.65234375 41.4140625 C2.84668533 41.44523415 2.84668533 41.44523415 4.06515503 41.47703552 C6.6123581 41.54249774 9.1596655 41.6014004 11.70703125 41.66015625 C13.43230252 41.70334465 15.15756318 41.74695904 16.8828125 41.79101562 C21.1157781 41.8981757 25.34884878 41.99945248 29.58203125 42.09765625 C30.07703125 44.07765625 30.07703125 44.07765625 30.58203125 46.09765625 C25.33516643 46.24698685 20.08956232 46.35532916 14.84106445 46.42724609 C13.0592695 46.45725188 11.27762016 46.49807136 9.49633789 46.55029297 C-8.40431341 47.06159693 -8.40431341 47.06159693 -14.74633789 41.68994141 C-15.29797607 41.1644873 -15.84961426 40.6390332 -16.41796875 40.09765625 C-18.84668475 38.14406675 -20.42437615 37.09552045 -23.41796875 36.09765625 C-23.41796875 37.41765625 -23.41796875 38.73765625 -23.41796875 40.09765625 C-30.34796875 40.09765625 -37.27796875 40.09765625 -44.41796875 40.09765625 C-44.08796875 38.77765625 -43.75796875 37.45765625 -43.41796875 36.09765625 C-38.13796875 36.09765625 -32.85796875 36.09765625 -27.41796875 36.09765625 C-27.41796875 26.85765625 -27.41796875 17.61765625 -27.41796875 8.09765625 C-29.39796875 8.09765625 -31.37796875 8.09765625 -33.41796875 8.09765625 C-33.41796875 6.77765625 -33.41796875 5.45765625 -33.41796875 4.09765625 C-31.77222309 4.07077474 -30.12635462 4.05131502 -28.48046875 4.03515625 C-27.56394531 4.02355469 -26.64742187 4.01195312 -25.703125 4 C-23.41796875 4.09765625 -23.41796875 4.09765625 -22.41796875 5.09765625 C-22.37733043 6.7638274 -22.37524775 8.4315372 -22.41796875 10.09765625 C-17.91163656 8.11926651 -14.60533531 5.70529155 -11.03125 2.40234375 C-7.63389201 -0.34515641 -4.17559869 -0.01889411 0 0 Z " fill="#2B4984" transform="translate(145.41796875,143.90234375)"/>
<path d="M0 0 C0.99 0 1.98 0 3 0 C3.09918586 5.30186559 3.17161755 10.60318618 3.21972656 15.90576172 C3.23979033 17.70794081 3.26704813 19.51005521 3.30175781 21.31201172 C3.35050829 23.90869136 3.37302082 26.50450729 3.390625 29.1015625 C3.41127014 29.9017984 3.43191528 30.7020343 3.45318604 31.52651978 C3.45529974 36.84594423 2.44908792 39.73336861 -1 44 C-1.47824219 44.59167969 -1.95648438 45.18335938 -2.44921875 45.79296875 C-2.85785156 46.25316406 -3.26648438 46.71335938 -3.6875 47.1875 C-6.14282565 49.8313911 -6.14282565 49.8313911 -7 53 C-5.68 53.33 -4.36 53.66 -3 54 C-3 60.6 -3 67.2 -3 74 C-4.32 74 -5.64 74 -7 74 C-7 68.39 -7 62.78 -7 57 C-16.24 57 -25.48 57 -35 57 C-35 59.31 -35 61.62 -35 64 C-36.32 64 -37.64 64 -39 64 C-39.02688151 62.35425434 -39.04634123 60.70838587 -39.0625 59.0625 C-39.07410156 58.14597656 -39.08570313 57.22945312 -39.09765625 56.28515625 C-39 54 -39 54 -38 53 C-36.33382885 52.95936168 -34.66611905 52.957279 -33 53 C-34.53454853 49.60784009 -36.13832046 46.68647449 -38.5625 43.875 C-42.47508259 39.260159 -43.25057116 36.56282737 -43.1953125 30.484375 C-43.18886719 29.23398438 -43.18242187 27.98359375 -43.17578125 26.6953125 C-43.15902344 25.39335938 -43.14226562 24.09140625 -43.125 22.75 C-43.11597656 21.43257812 -43.10695312 20.11515625 -43.09765625 18.7578125 C-43.07408533 15.50502538 -43.04118022 12.25260411 -43 9 C-41.68 9 -40.36 9 -39 9 C-38.98541748 9.75619629 -38.97083496 10.51239258 -38.95581055 11.29150391 C-38.88108 14.73650277 -38.78450072 18.18055921 -38.6875 21.625 C-38.66494141 22.81480469 -38.64238281 24.00460938 -38.61914062 25.23046875 C-38.3354732 34.46255406 -36.69540873 39.60830793 -30.20703125 46.19140625 C-29 48 -29 48 -29 53 C-23.06 53 -17.12 53 -11 53 C-10.67 51.02 -10.34 49.04 -10 47 C-8.40625 44.76953125 -8.40625 44.76953125 -6.5 42.8125 C-2.01722758 38.15519341 -1.83288914 34.36621498 -1.71875 28.0859375 C-1.70034058 27.31569244 -1.68193115 26.54544739 -1.66296387 25.75186157 C-1.5842764 22.45613476 -1.51633941 19.16020799 -1.44775391 15.86425781 C-1.39616271 13.45887728 -1.33888022 11.05367967 -1.28125 8.6484375 C-1.26767456 7.89742767 -1.25409912 7.14641785 -1.2401123 6.37265015 C-1.11285487 1.11285487 -1.11285487 1.11285487 0 0 Z " fill="#509535" transform="translate(186,75)"/>
<path d="M0 0 C4.80129731 -0.14968073 9.60120176 -0.25783045 14.40429688 -0.32958984 C16.03376965 -0.35953865 17.66308433 -0.40031422 19.29199219 -0.45263672 C29.23035662 -0.76359168 37.08827798 -0.88867168 45 6 C45.68304199 6.70592285 46.36608398 7.4118457 47.06982422 8.13916016 C48.95551133 10.22449427 48.95551133 10.22449427 52 11 C52.33 9.68 52.66 8.36 53 7 C59.93 7 66.86 7 74 7 C74 7.99 74 8.98 74 10 C68.06 10 62.12 10 56 10 C56 19.57 56 29.14 56 39 C58.31 39 60.62 39 63 39 C62.67 40.32 62.34 41.64 62 43 C60.52093108 43.02689216 59.04172517 43.04634621 57.5625 43.0625 C56.73878906 43.07410156 55.91507813 43.08570313 55.06640625 43.09765625 C53 43 53 43 52 42 C51.95919217 40.00041636 51.95745644 37.99954746 52 36 C48.79766616 38.05864319 45.80294937 40.11680146 42.9375 42.625 C38.222451 46.43716728 34.62095881 47.25233136 28.60546875 47.1953125 C27.40341797 47.18886719 26.20136719 47.18242188 24.96289062 47.17578125 C23.71701172 47.15902344 22.47113281 47.14226562 21.1875 47.125 C19.28967773 47.11146484 19.28967773 47.11146484 17.35351562 47.09765625 C14.23548436 47.07412394 11.11783903 47.04124545 8 47 C7.67 45.68 7.34 44.36 7 43 C8.20946289 43.00169189 8.20946289 43.00169189 9.44335938 43.00341797 C13.12973674 42.99124297 16.81407857 42.93350669 20.5 42.875 C21.7684375 42.87757812 23.036875 42.88015625 24.34375 42.8828125 C32.50955411 42.71269158 37.11558043 41.69608139 43 36 C48.29847328 32 48.29847328 32 52 32 C52 26.39 52 20.78 52 15 C49.525 14.505 49.525 14.505 47 14 C44.71875 12.44140625 44.71875 12.44140625 42.5 10.5625 C36.90205746 5.84169986 32.33761894 4.70280727 25.07421875 4.5859375 C24.32662796 4.56657135 23.57903717 4.5472052 22.80879211 4.5272522 C20.43514194 4.46776082 18.06144246 4.42119408 15.6875 4.375 C14.07224518 4.33679211 12.45701013 4.29773875 10.84179688 4.2578125 C6.8946929 4.1620847 2.94749361 4.07794233 -1 4 C-0.67 2.68 -0.34 1.36 0 0 Z " fill="#12ADE1" transform="translate(75,61)"/>
<path d="M0 0 C0.99 0 1.98 0 3 0 C3 5.94 3 11.88 3 18 C12.57 18 22.14 18 32 18 C32 15.69 32 13.38 32 11 C33.32 11 34.64 11 36 11 C36 14.3 36 17.6 36 21 C33.69 21 31.38 21 29 21 C30.95460819 25.4521631 33.30128534 28.69373024 36.59765625 32.19140625 C39.8082754 36.33212119 40.24394976 40.26330061 40.1953125 45.39453125 C40.18886719 46.59658203 40.18242188 47.79863281 40.17578125 49.03710938 C40.15902344 50.28298828 40.14226562 51.52886719 40.125 52.8125 C40.11597656 54.07771484 40.10695312 55.34292969 40.09765625 56.64648438 C40.07412394 59.76451564 40.04124545 62.88216097 40 66 C38.02 66.495 38.02 66.495 36 67 C35.9906543 66.18321777 35.98130859 65.36643555 35.97167969 64.52490234 C35.91784493 60.80766494 35.83422006 57.091668 35.75 53.375 C35.73582031 52.08980469 35.72164062 50.80460937 35.70703125 49.48046875 C35.57876956 40.41138003 35.57876956 40.41138003 31 33 C30.43796875 32.26394531 29.8759375 31.52789062 29.296875 30.76953125 C28.25781683 29.45496523 27.21610723 28.142491 26.171875 26.83203125 C25 25 25 25 25 22 C19.39 22 13.78 22 8 22 C7.67 23.65 7.34 25.3 7 27 C5.1875 29.53515625 5.1875 29.53515625 3 32.0625 C-1.82523823 37.65460645 -2.14850989 41.56411585 -2.31640625 48.828125 C-2.33718735 49.57713074 -2.35796844 50.32613647 -2.37937927 51.09783936 C-2.44457088 53.48180288 -2.50361783 55.86587312 -2.5625 58.25 C-2.60571416 59.86980254 -2.64932937 61.48959443 -2.69335938 63.109375 C-2.80022096 67.07280832 -2.90157333 71.0363486 -3 75 C-4.32 74.67 -5.64 74.34 -7 74 C-7.09951569 69.16200639 -7.17177037 64.32461975 -7.21972656 59.48583984 C-7.23973571 57.8428305 -7.26695213 56.19989141 -7.30175781 54.55712891 C-7.35075305 52.18374212 -7.37307504 49.81130351 -7.390625 47.4375 C-7.41127014 46.71320801 -7.43191528 45.98891602 -7.45318604 45.24267578 C-7.45625829 38.12323021 -4.65166099 32.32492106 0.1875 27.125 C1.77379533 25.39814685 2.94845835 24.1030833 4 22 C2.68 21.67 1.36 21.34 0 21 C0 14.07 0 7.14 0 0 Z " fill="#63B735" transform="translate(67,102)"/>
<path d="M0 0 C0.87462891 0.00451172 1.74925781 0.00902344 2.65039062 0.01367188 C4.78779047 0.02535166 6.92515463 0.04328311 9.0625 0.0625 C9.0625 0.7225 9.0625 1.3825 9.0625 2.0625 C2.7925 2.3925 -3.4775 2.7225 -9.9375 3.0625 C-8.6175 3.7225 -7.2975 4.3825 -5.9375 5.0625 C-6.8346875 5.13726562 -7.731875 5.21203125 -8.65625 5.2890625 C-30.93474649 7.63659002 -51.35608972 18.21115606 -65.96484375 35.4296875 C-80.75828574 55.17380612 -84.10314362 74.92721552 -84.9375 99.0625 C-85.2675 99.0625 -85.5975 99.0625 -85.9375 99.0625 C-86.2675 93.7825 -86.5975 88.5025 -86.9375 83.0625 C-87.2675 83.0625 -87.5975 83.0625 -87.9375 83.0625 C-88.2675 88.3425 -88.5975 93.6225 -88.9375 99.0625 C-89.2675 99.0625 -89.5975 99.0625 -89.9375 99.0625 C-90.43620435 74.12728275 -85.82417143 50.34072239 -68.3125 31.5 C-66.54153158 29.66544909 -64.74214397 27.86437186 -62.9375 26.0625 C-62.35613281 25.41023438 -61.77476563 24.75796875 -61.17578125 24.0859375 C-46.17753328 7.53875209 -21.66648746 -0.21419341 0 0 Z " fill="#22417F" transform="translate(124.9375,35.9375)"/>
<path d="M0 0 C1.25361328 0.00322266 2.50722656 0.00644531 3.79882812 0.00976562 C5.76432617 0.02233398 5.76432617 0.02233398 7.76953125 0.03515625 C9.10481606 0.04017308 10.44010266 0.04473566 11.77539062 0.04882812 C15.04431598 0.0606293 18.31315116 0.07709328 21.58203125 0.09765625 C21.58203125 1.41765625 21.58203125 2.73765625 21.58203125 4.09765625 C20.82059814 4.11747559 20.05916504 4.13729492 19.2746582 4.15771484 C15.81427653 4.25315547 12.3544827 4.36275837 8.89453125 4.47265625 C7.69634766 4.50359375 6.49816406 4.53453125 5.26367188 4.56640625 C3.52827148 4.62441406 3.52827148 4.62441406 1.7578125 4.68359375 C0.69473877 4.71501465 -0.36833496 4.74643555 -1.46362305 4.77880859 C-7.7791572 5.4604124 -11.49849592 8.59112864 -16.234375 12.5390625 C-18.41796875 14.09765625 -18.41796875 14.09765625 -22.41796875 15.09765625 C-22.41796875 20.70765625 -22.41796875 26.31765625 -22.41796875 32.09765625 C-22.74796875 32.09765625 -23.07796875 32.09765625 -23.41796875 32.09765625 C-23.41796875 26.48765625 -23.41796875 20.87765625 -23.41796875 15.09765625 C-24.07796875 15.09765625 -24.73796875 15.09765625 -25.41796875 15.09765625 C-25.74796875 22.02765625 -26.07796875 28.95765625 -26.41796875 36.09765625 C-26.74796875 36.09765625 -27.07796875 36.09765625 -27.41796875 36.09765625 C-27.41796875 26.85765625 -27.41796875 17.61765625 -27.41796875 8.09765625 C-29.39796875 8.09765625 -31.37796875 8.09765625 -33.41796875 8.09765625 C-33.41796875 6.77765625 -33.41796875 5.45765625 -33.41796875 4.09765625 C-31.77222309 4.07077474 -30.12635462 4.05131502 -28.48046875 4.03515625 C-27.56394531 4.02355469 -26.64742188 4.01195312 -25.703125 4 C-23.41796875 4.09765625 -23.41796875 4.09765625 -22.41796875 5.09765625 C-22.37733043 6.7638274 -22.37524775 8.4315372 -22.41796875 10.09765625 C-17.91163656 8.11926651 -14.60533531 5.70529155 -11.03125 2.40234375 C-7.63389201 -0.34515641 -4.17559869 -0.01889411 0 0 Z " fill="#254481" transform="translate(145.41796875,143.90234375)"/>
<path d="M0 0 C1.32 0 2.64 0 4 0 C4 0.66 4 1.32 4 2 C9.61 2 15.22 2 21 2 C21 2.33 21 2.66 21 3 C15.39 3 9.78 3 4 3 C3.67 4.65 3.34 6.3 3 8 C1.1875 10.53515625 1.1875 10.53515625 -1 13.0625 C-5.82523823 18.65460645 -6.14850989 22.56411585 -6.31640625 29.828125 C-6.33718735 30.57713074 -6.35796844 31.32613647 -6.37937927 32.09783936 C-6.44457088 34.48180288 -6.50361783 36.86587312 -6.5625 39.25 C-6.60571416 40.86980254 -6.64932937 42.48959443 -6.69335938 44.109375 C-6.80022096 48.07280832 -6.90157333 52.0363486 -7 56 C-8.32 55.67 -9.64 55.34 -11 55 C-11.09951569 50.16200639 -11.17177037 45.32461975 -11.21972656 40.48583984 C-11.23973571 38.8428305 -11.26695213 37.19989141 -11.30175781 35.55712891 C-11.35075305 33.18374212 -11.37307504 30.81130351 -11.390625 28.4375 C-11.41127014 27.71320801 -11.43191528 26.98891602 -11.45318604 26.24267578 C-11.45625829 19.12323021 -8.65166099 13.32492106 -3.8125 8.125 C-2.22620467 6.39814685 -1.05154165 5.1030833 0 3 C-0.99 2.67 -1.98 2.34 -3 2 C-2.01 2 -1.02 2 0 2 C0 1.34 0 0.68 0 0 Z " fill="#6ABB3F" transform="translate(71,121)"/>
<path d="M0 0 C0.99 0 1.98 0 3 0 C3.09918586 5.30186559 3.17161755 10.60318618 3.21972656 15.90576172 C3.23979033 17.70794081 3.26704813 19.51005521 3.30175781 21.31201172 C3.35050829 23.90869136 3.37302082 26.50450729 3.390625 29.1015625 C3.41127014 29.9017984 3.43191528 30.7020343 3.45318604 31.52651978 C3.45529974 36.84594423 2.44908792 39.73336861 -1 44 C-1.47824219 44.59167969 -1.95648438 45.18335938 -2.44921875 45.79296875 C-2.85785156 46.25316406 -3.26648438 46.71335938 -3.6875 47.1875 C-6.14282565 49.8313911 -6.14282565 49.8313911 -7 53 C-5.515 53.495 -5.515 53.495 -4 54 C-5.2065625 53.7215625 -5.2065625 53.7215625 -6.4375 53.4375 C-7.283125 53.293125 -8.12875 53.14875 -9 53 C-9.33 53.33 -9.66 53.66 -10 54 C-11.34267413 54.08631874 -12.68974322 54.10706473 -14.03515625 54.09765625 C-14.84404297 54.09443359 -15.65292969 54.09121094 -16.48632812 54.08789062 C-17.33646484 54.07951172 -18.18660156 54.07113281 -19.0625 54.0625 C-19.91650391 54.05798828 -20.77050781 54.05347656 -21.65039062 54.04882812 C-23.76695663 54.03700373 -25.88348685 54.01906769 -28 54 C-28 53.67 -28 53.34 -28 53 C-22.39 53 -16.78 53 -11 53 C-10.67 51.02 -10.34 49.04 -10 47 C-8.40625 44.76953125 -8.40625 44.76953125 -6.5 42.8125 C-2.01722758 38.15519341 -1.83288914 34.36621498 -1.71875 28.0859375 C-1.70034058 27.31569244 -1.68193115 26.54544739 -1.66296387 25.75186157 C-1.5842764 22.45613476 -1.51633941 19.16020799 -1.44775391 15.86425781 C-1.39616271 13.45887728 -1.33888022 11.05367967 -1.28125 8.6484375 C-1.26767456 7.89742767 -1.25409912 7.14641785 -1.2401123 6.37265015 C-1.11285487 1.11285487 -1.11285487 1.11285487 0 0 Z " fill="#599B40" transform="translate(186,75)"/>
<path d="M0 0 C-1.49300256 4.11915577 -3.53526732 7.63911924 -5.8125 11.375 C-13.56942795 24.54820597 -15.92653176 37.88272215 -16.5625 53 C-16.60568359 53.96550781 -16.64886719 54.93101563 -16.69335938 55.92578125 C-16.79841713 58.28374425 -16.90056914 60.64179416 -17 63 C-17.33 63 -17.66 63 -18 63 C-18.33 57.72 -18.66 52.44 -19 47 C-19.33 47 -19.66 47 -20 47 C-20.33 52.28 -20.66 57.56 -21 63 C-21.33 63 -21.66 63 -22 63 C-22.38991338 43.50433098 -20.00317801 26.51977952 -10.4375 9.1875 C-10.06165771 8.49946289 -9.68581543 7.81142578 -9.29858398 7.10253906 C-6.90351105 2.94695379 -5.05243844 0 0 0 Z " fill="#284783" transform="translate(57,72)"/>
<path d="M0 0 C0.99 0.33 1.98 0.66 3 1 C3.01458252 1.75619629 3.02916504 2.51239258 3.04418945 3.29150391 C3.11892 6.73650277 3.21549928 10.18055921 3.3125 13.625 C3.33505859 14.81480469 3.35761719 16.00460938 3.38085938 17.23046875 C3.66680929 26.53683869 5.35408192 31.65914023 11.890625 38.2890625 C13 40 13 40 12.796875 42.0859375 C12 44 12 44 10 46 C6.875 46.125 6.875 46.125 4 46 C4 45.67 4 45.34 4 45 C5.65 45 7.3 45 9 45 C7.46545147 41.60784009 5.86167954 38.68647449 3.4375 35.875 C-0.45699414 31.28149409 -1.2521612 28.56832158 -1.23046875 22.51953125 C-1.22853516 21.27365234 -1.22660156 20.02777344 -1.22460938 18.74414062 C-1.21236328 17.44669922 -1.20011719 16.14925781 -1.1875 14.8125 C-1.18685547 13.50345703 -1.18621094 12.19441406 -1.18554688 10.84570312 C-1.14021767 1.14021767 -1.14021767 1.14021767 0 0 Z " fill="#56993C" transform="translate(144,83)"/>
<path d="M0 0 C0.99 0 1.98 0 3 0 C4.97265625 2.01171875 4.97265625 2.01171875 7.0625 4.6875 C7.75472656 5.55761719 8.44695312 6.42773438 9.16015625 7.32421875 C12.39906114 12.03472799 13.2493482 15.6937654 13.1953125 21.39453125 C13.18564453 23.19760742 13.18564453 23.19760742 13.17578125 25.03710938 C13.15902344 26.28298828 13.14226562 27.52886719 13.125 28.8125 C13.11597656 30.07771484 13.10695313 31.34292969 13.09765625 32.64648438 C13.07412394 35.76451564 13.04124545 38.88216097 13 42 C11.02 42.495 11.02 42.495 9 43 C8.9906543 42.18321777 8.98130859 41.36643555 8.97167969 40.52490234 C8.91784493 36.80766494 8.83422006 33.091668 8.75 29.375 C8.73582031 28.08980469 8.72164062 26.80460937 8.70703125 25.48046875 C8.59144297 16.40720006 8.59144297 16.40720006 4 9 C3.49855469 8.40832031 2.99710937 7.81664062 2.48046875 7.20703125 C2.05378906 6.74683594 1.62710938 6.28664062 1.1875 5.8125 C0.465625 4.884375 -0.25625 3.95625 -1 3 C-0.67 2.01 -0.34 1.02 0 0 Z " fill="#69BA3C" transform="translate(94,126)"/>
<path d="M0 0 C0.33 0 0.66 0 1 0 C1 2.31 1 4.62 1 7 C1.66 7 2.32 7 3 7 C3 12.61 3 18.22 3 24 C4.65 24.33 6.3 24.66 8 25 C7.67 25.99 7.34 26.98 7 28 C5.68 28 4.36 28 3 28 C3 29.32 3 30.64 3 32 C-3.93 32 -10.86 32 -18 32 C-17.67 30.68 -17.34 29.36 -17 28 C-11.39 28 -5.78 28 0 28 C0 18.76 0 9.52 0 0 Z " fill="#1F3E7D" transform="translate(119,152)"/>
<path d="M0 0 C1.32 0 2.64 0 4 0 C4 12.54 4 25.08 4 38 C2.68 38 1.36 38 0 38 C0 25.46 0 12.92 0 0 Z " fill="#589A3D" transform="translate(164,62)"/>
<path d="M0 0 C12.21 0 24.42 0 37 0 C37.495 1.98 37.495 1.98 38 4 C25.46 4 12.92 4 0 4 C0 2.68 0 1.36 0 0 Z " fill="#274682" transform="translate(151,165)"/>
<path d="M0 0 C12.54 0 25.08 0 38 0 C37.67 1.32 37.34 2.64 37 4 C24.79 4 12.58 4 0 4 C0 2.68 0 1.36 0 0 Z " fill="#1AAFE2" transform="translate(61,83)"/>
<path d="M0 0 C0.87462891 0.00451172 1.74925781 0.00902344 2.65039062 0.01367188 C4.78779047 0.02535166 6.92515463 0.04328311 9.0625 0.0625 C9.0625 0.7225 9.0625 1.3825 9.0625 2.0625 C2.7925 2.3925 -3.4775 2.7225 -9.9375 3.0625 C-8.6175 3.7225 -7.2975 4.3825 -5.9375 5.0625 C-6.89269531 5.17207031 -7.84789063 5.28164063 -8.83203125 5.39453125 C-16.76519989 6.36739241 -24.28077923 7.67474924 -31.9375 10.0625 C-32.5975 8.7425 -33.2575 7.4225 -33.9375 6.0625 C-31.25175618 5.24378619 -28.5641428 4.43241012 -25.875 3.625 C-24.74674805 3.27985352 -24.74674805 3.27985352 -23.59570312 2.92773438 C-15.67206158 0.56093235 -8.23510304 -0.08141167 0 0 Z " fill="#314F88" transform="translate(124.9375,35.9375)"/>
<path d="M0 0 C10.56 0 21.12 0 32 0 C32 1.32 32 2.64 32 4 C21.44 4 10.88 4 0 4 C0 2.68 0 1.36 0 0 Z " fill="#0CACE1" transform="translate(67,72)"/>
<path d="M0 0 C10.56 0 21.12 0 32 0 C31.67 1.32 31.34 2.64 31 4 C20.77 4 10.54 4 0 4 C0 2.68 0 1.36 0 0 Z " fill="#284682" transform="translate(151,176)"/>
<path d="M0 0 C10.56 0 21.12 0 32 0 C31.67 1.32 31.34 2.64 31 4 C20.77 4 10.54 4 0 4 C0 2.68 0 1.36 0 0 Z " fill="#2D4A85" transform="translate(151,155)"/>
<path d="M0 0 C1.32 0 2.64 0 4 0 C4 10.56 4 21.12 4 32 C2.68 31.67 1.36 31.34 0 31 C0 20.77 0 10.54 0 0 Z " fill="#65B838" transform="translate(92,152)"/>
<path d="M0 0 C10.23 0 20.46 0 31 0 C31.33 1.32 31.66 2.64 32 4 C21.44 4 10.88 4 0 4 C0 2.68 0 1.36 0 0 Z " fill="#0FADE1" transform="translate(67,93)"/>
<path d="M0 0 C1.32 0 2.64 0 4 0 C4 10.23 4 20.46 4 31 C2.68 31 1.36 31 0 31 C0 20.77 0 10.54 0 0 Z " fill="#65B837" transform="translate(71,152)"/>
<path d="M0 0 C1.32 0.33 2.64 0.66 4 1 C4 10.9 4 20.8 4 31 C2.68 31.33 1.36 31.66 0 32 C0 21.44 0 10.88 0 0 Z " fill="#5F9E46" transform="translate(154,68)"/>
<path d="M0 0 C1.32 0.33 2.64 0.66 4 1 C4 10.9 4 20.8 4 31 C2.68 31.33 1.36 31.66 0 32 C0 21.44 0 10.88 0 0 Z " fill="#599B40" transform="translate(175,68)"/>
<path d="M0 0 C1.64574566 -0.02688151 3.29161413 -0.04634123 4.9375 -0.0625 C5.85402344 -0.07410156 6.77054687 -0.08570313 7.71484375 -0.09765625 C10 0 10 0 11 1 C11.04063832 2.66617115 11.042721 4.33388095 11 6 C11.66 6 12.32 6 13 6 C13 7.32 13 8.64 13 10 C12.01 10.495 12.01 10.495 11 11 C11 16.61 11 22.22 11 28 C10.67 28 10.34 28 10 28 C10 22.39 10 16.78 10 11 C9.34 11 8.68 11 8 11 C7.67 17.93 7.34 24.86 7 32 C6.67 32 6.34 32 6 32 C6 22.76 6 13.52 6 4 C4.02 4 2.04 4 0 4 C0 2.68 0 1.36 0 0 Z " fill="#496296" transform="translate(112,148)"/>
<path d="M0 0 C0.99 0 1.98 0 3 0 C3 12.54 3 25.08 3 38 C2.01 38 1.02 38 0 38 C0 25.46 0 12.92 0 0 Z " fill="#59B329" transform="translate(82,152)"/>
<path d="M0 0 C-0.46252663 4.95048029 -1.75883629 7.45437394 -5 11.1875 C-8.09845425 14.74601536 -8.09845425 14.74601536 -10 19 C-9.01 19.33 -8.02 19.66 -7 20 C-7.804375 19.814375 -8.60875 19.62875 -9.4375 19.4375 C-10.7059375 19.2209375 -10.7059375 19.2209375 -12 19 C-12.33 19.33 -12.66 19.66 -13 20 C-14.34267413 20.08631874 -15.68974322 20.10706473 -17.03515625 20.09765625 C-17.84404297 20.09443359 -18.65292969 20.09121094 -19.48632812 20.08789062 C-20.33646484 20.07951172 -21.18660156 20.07113281 -22.0625 20.0625 C-22.91650391 20.05798828 -23.77050781 20.05347656 -24.65039062 20.04882812 C-26.76695663 20.03700373 -28.88348685 20.01906769 -31 20 C-31 19.67 -31 19.34 -31 19 C-25.39 19 -19.78 19 -14 19 C-13.67 17.02 -13.34 15.04 -13 13 C-11.40625 10.76953125 -11.40625 10.76953125 -9.5 8.8125 C-7.17698996 6.3990449 -6.07631165 5.22893496 -5 2 C-2 0 -2 0 0 0 Z " fill="#63A14B" transform="translate(189,109)"/>
<path d="M0 0 C0.99 0 1.98 0 3 0 C3 5.94 3 11.88 3 18 C12.57 18 22.14 18 32 18 C32 18.33 32 18.66 32 19 C22.76 19 13.52 19 4 19 C4 19.66 4 20.32 4 21 C2.68 21 1.36 21 0 21 C0 14.07 0 7.14 0 0 Z " fill="#5AB329" transform="translate(67,102)"/>
<path d="M0 0 C-1.38986563 4.16959689 -3.46175145 4.57930024 -7.3125 6.5625 C-9.03919922 7.46162109 -9.03919922 7.46162109 -10.80078125 8.37890625 C-13.19706814 9.59314197 -15.5936977 10.80576108 -18 12 C-18 11.01 -18 10.02 -18 9 C-18.66 8.67 -19.32 8.34 -20 8 C-17.70870707 6.68684387 -15.4169845 5.37444807 -13.125 4.0625 C-12.47402344 3.68931641 -11.82304688 3.31613281 -11.15234375 2.93164062 C-3.95491652 -1.18647496 -3.95491652 -1.18647496 0 0 Z " fill="#294783" transform="translate(93,44)"/>
<path d="M0 0 C0.66 0.99 1.32 1.98 2 3 C2.66 3 3.32 3 4 3 C3.67 11.91 3.34 20.82 3 30 C2.67 30 2.34 30 2 30 C1.67 24.72 1.34 19.44 1 14 C0.67 14 0.34 14 0 14 C-0.33 19.28 -0.66 24.56 -1 30 C-1.33 30 -1.66 30 -2 30 C-2.20430975 19.78451249 -2.2054634 10.04273512 0 0 Z " fill="#5D74A1" transform="translate(37,105)"/>
<path d="M0 0 C0.66 0.99 1.32 1.98 2 3 C4.13042345 5.51700916 6.26603147 8.02868453 8.41796875 10.52734375 C10 13 10 13 9.86328125 15.19140625 C9 17 9 17 7 19 C3.875 19.125 3.875 19.125 1 19 C1 18.67 1 18.34 1 18 C2.65 18 4.3 18 6 18 C3.87258608 13.29729554 1.37939175 9.83606631 -2 6 C-1.01 5.34 -0.02 4.68 1 4 C0.01 3.67 -0.98 3.34 -2 3 C-1.34 2.67 -0.68 2.34 0 2 C0 1.34 0 0.68 0 0 Z " fill="#61A049" transform="translate(147,110)"/>
<path d="M0 0 C0.25477428 3.4361064 0.47439003 6.87357801 0.6875 10.3125 C0.76033203 11.28896484 0.83316406 12.26542969 0.90820312 13.27148438 C0.96298828 14.20927734 1.01777344 15.14707031 1.07421875 16.11328125 C1.13182373 16.97735596 1.18942871 17.84143066 1.2487793 18.73168945 C1 21 1 21 -0.50463867 22.80541992 C-0.99810791 23.19963135 -1.49157715 23.59384277 -2 24 C-2.96088383 21.11734851 -3.11670941 19.32337729 -3.09765625 16.33203125 C-3.09443359 15.43935547 -3.09121094 14.54667969 -3.08789062 13.62695312 C-3.07951172 12.69818359 -3.07113281 11.76941406 -3.0625 10.8125 C-3.05798828 9.87212891 -3.05347656 8.93175781 -3.04882812 7.96289062 C-3.03704626 5.64186288 -3.02059558 3.32096356 -3 1 C-1 0 -1 0 0 0 Z " fill="#183979" transform="translate(39,117)"/>
<path d="M0 0 C-1.16723633 1.49536133 -1.16723633 1.49536133 -3 3 C-5.4519043 3.2487793 -5.4519043 3.2487793 -8.32421875 3.07421875 C-9.35224609 3.01943359 -10.38027344 2.96464844 -11.43945312 2.90820312 C-13.04723633 2.79895508 -13.04723633 2.79895508 -14.6875 2.6875 C-15.77095703 2.62626953 -16.85441406 2.56503906 -17.97070312 2.50195312 C-20.64828378 2.3486115 -23.32415282 2.18075343 -26 2 C-26.33 1.34 -26.66 0.68 -27 0 C-23.81310715 -0.19892707 -20.62548809 -0.38204784 -17.4375 -0.5625 C-16.54224609 -0.61857422 -15.64699219 -0.67464844 -14.72460938 -0.73242188 C-9.63581532 -1.01202594 -5.01473048 -0.92865379 0 0 Z " fill="#173879" transform="translate(141,38)"/>
<path d="M0 0 C3.1043078 3.1043078 2.84736884 6.74020297 3 11 C2.81692817 13.39736919 2.45328007 15.63287075 2 18 C1.34 18 0.68 18 0 18 C-0.66 12.39 -1.32 6.78 -2 1 C-1.34 0.67 -0.68 0.34 0 0 Z " fill="#21417F" transform="translate(210,103)"/>
<path d="M0 0 C0.33 0 0.66 0 1 0 C1 1.65 1 3.3 1 5 C1.66 5 2.32 5 3 5 C3 6.32 3 7.64 3 9 C2.01 9.495 2.01 9.495 1 10 C1 15.61 1 21.22 1 27 C0.67 27 0.34 27 0 27 C0 21.39 0 15.78 0 10 C-0.66 10 -1.32 10 -2 10 C-2.17942163 6.05272412 -2.09350689 3.4019487 0 0 Z " fill="#677CA7" transform="translate(122,149)"/>
<path d="M0 0 C0.66 0 1.32 0 2 0 C-0.29562982 10.98971722 -0.29562982 10.98971722 -2 15 C-2.99 15.33 -3.98 15.66 -5 16 C-5.1875 13.1875 -5.1875 13.1875 -5 10 C-4.02246356 8.97803008 -3.0194119 7.98020375 -2 7 C-1.25613932 4.69011685 -0.57809297 2.35684056 0 0 Z " fill="#1D3D7C" transform="translate(43,93)"/>
<path d="M0 0 C1.32 0 2.64 0 4 0 C4 0.66 4 1.32 4 2 C9.61 2 15.22 2 21 2 C21 2.33 21 2.66 21 3 C15.39 3 9.78 3 4 3 C3.67 3.99 3.34 4.98 3 6 C1.02 5.01 -0.96 4.02 -3 3 C-2.01 2.67 -1.02 2.34 0 2 C0 1.34 0 0.68 0 0 Z " fill="#8AC968" transform="translate(71,121)"/>
<path d="M0 0 C1.32 0.33 2.64 0.66 4 1 C4 3.97 4 6.94 4 10 C2.68 10 1.36 10 0 10 C0 6.7 0 3.4 0 0 Z " fill="#599B3F" transform="translate(147,129)"/>
<path d="M0 0 C2.12508244 3.18762365 2.5020163 5.26512223 3 9 C1.68 9.33 0.36 9.66 -1 10 C-1.66 7.36 -2.32 4.72 -3 2 C-2.01 2 -1.02 2 0 2 C0 1.34 0 0.68 0 0 Z " fill="#314E88" transform="translate(208,94)"/>
<path d="M0 0 C0.99 1.32 1.98 2.64 3 4 C-0.3 4.33 -3.6 4.66 -7 5 C-7 4.34 -7 3.68 -7 3 C-7.99 2.34 -8.98 1.68 -10 1 C-3.375 0 -3.375 0 0 0 Z " fill="#335089" transform="translate(144,209)"/>
<path d="M0 0 C0.33 1.32 0.66 2.64 1 4 C-5.52307692 3.38461538 -5.52307692 3.38461538 -7.9375 1.4375 C-8.288125 0.963125 -8.63875 0.48875 -9 0 C-5.93109813 -1.53445094 -3.29905734 -0.54984289 0 0 Z " fill="#244381" transform="translate(97,206)"/>
<path d="M0 0 C4.455 0.99 4.455 0.99 9 2 C6.39308158 4.60691842 4.62392206 4.70416963 1 5 C0.01 4.34 -0.98 3.68 -2 3 C-1.34 3 -0.68 3 0 3 C0 2.01 0 1.02 0 0 Z " fill="#324F89" transform="translate(98,207)"/>
<path d="M0 0 C0.99 0.33 1.98 0.66 3 1 C2.25 7.75 2.25 7.75 0 10 C0 9.34 0 8.68 0 8 C-0.66 8 -1.32 8 -2 8 C-1.34 5.36 -0.68 2.72 0 0 Z " fill="#1D3E7D" transform="translate(208,145)"/>
<path d="M0 0 C0.66 0 1.32 0 2 0 C1.88541307 1.43836751 1.75790884 2.87570966 1.625 4.3125 C1.55539063 5.11300781 1.48578125 5.91351563 1.4140625 6.73828125 C1 9 1 9 -1 12 C-1.2226746 10.56465159 -1.42761906 9.12654475 -1.625 7.6875 C-1.74101563 6.88699219 -1.85703125 6.08648437 -1.9765625 5.26171875 C-2 3 -2 3 0 0 Z " fill="#36528A" transform="translate(39,138)"/>
<path d="M0 0 C1.32 0.33 2.64 0.66 4 1 C3 4 3 4 1 5 C0.27306096 6.97888961 -0.39816251 8.97954558 -1 11 C-1.66 11 -2.32 11 -3 11 C-2.44894091 7.0507432 -1.61064629 3.65079826 0 0 Z " fill="#36538B" transform="translate(42,90)"/>
<path d="M0 0 C0.763125 0.20625 1.52625 0.4125 2.3125 0.625 C2.6425 1.945 2.9725 3.265 3.3125 4.625 C-2.83984375 4.0390625 -2.83984375 4.0390625 -4.6875 3.625 C-5.0175 2.965 -5.3475 2.305 -5.6875 1.625 C-2.6875 -0.375 -2.6875 -0.375 0 0 Z " fill="#324F88" transform="translate(143.6875,38.375)"/>
<path d="M0 0 C-1.3125 1.5 -1.3125 1.5 -3 3 C-3.99 3 -4.98 3 -6 3 C-6 2.34 -6 1.68 -6 1 C-8.64 1 -11.28 1 -14 1 C-14 0.67 -14 0.34 -14 0 C-9.02936879 -0.91297308 -4.97063121 -0.91297308 0 0 Z " fill="#21407F" transform="translate(141,38)"/>
<path d="M0 0 C2.31 0.66 4.62 1.32 7 2 C7 2.99 7 3.98 7 5 C4.125 4.6875 4.125 4.6875 1 4 C0.34 3.01 -0.32 2.02 -1 1 C-0.67 0.67 -0.34 0.34 0 0 Z " fill="#1F3F7E" transform="translate(146,39)"/>
<path d="M0 0 C-0.33 0.99 -0.66 1.98 -1 3 C-2.98 3.33 -4.96 3.66 -7 4 C-7.33 3.01 -7.66 2.02 -8 1 C-2.25 -1.125 -2.25 -1.125 0 0 Z " fill="#1E3E7D" transform="translate(152,208)"/>
<path d="M0 0 C2.31 0 4.62 0 7 0 C7 0.66 7 1.32 7 2 C8.32 2.66 9.64 3.32 11 4 C8.69 4 6.38 4 4 4 C4 3.34 4 2.68 4 2 C2.68 1.34 1.36 0.68 0 0 Z " fill="#4D6698" transform="translate(108,37)"/>
</svg>
