<?xml version="1.0" encoding="UTF-8"?>
<svg version="1.1" xmlns="http://www.w3.org/2000/svg" width="250" height="250">
<path d="M0 0 C82.5 0 165 0 250 0 C250 82.5 250 165 250 250 C167.5 250 85 250 0 250 C0 167.5 0 85 0 0 Z " fill="#FEFEFE" transform="translate(0,0)"/>
<path d="M0 0 C1.16466797 -0.020625 2.32933594 -0.04125 3.52929688 -0.0625 C11.44114676 -0.09776173 18.38210652 0.91807995 25.9375 3.25 C26.68281982 3.47977539 27.42813965 3.70955078 28.19604492 3.94628906 C51.18653801 11.46853689 69.43144037 26.96136224 80.9375 48.25 C91.47217729 69.72453448 93.92189894 94.15629231 86.62841797 117.17895508 C82.2428881 129.74839728 75.93809698 140.38037987 66.9375 150.25 C66.25171875 151.02859375 65.5659375 151.8071875 64.859375 152.609375 C51.15767944 167.32601097 30.32207926 177.81586216 10.28125 178.59765625 C-7.01760924 178.95029042 -22.28306447 177.88942327 -38.0625 170.25 C-38.98675781 169.80785156 -39.91101563 169.36570313 -40.86328125 168.91015625 C-48.03940102 165.24597062 -54.04415825 160.57972271 -60.0625 155.25 C-60.69929688 154.69699219 -61.33609375 154.14398438 -61.9921875 153.57421875 C-76.3009007 140.28755649 -86.78566469 118.95752592 -88.26904297 99.54736328 C-88.36562404 96.73650393 -88.39144848 93.93745119 -88.375 91.125 C-88.36762817 89.61993896 -88.36762817 89.61993896 -88.36010742 88.08447266 C-87.99944333 64.95388225 -79.7120103 43.42122789 -63.58203125 26.61328125 C-45.55301866 9.70234696 -24.94049491 0.10790912 0 0 Z " fill="#FBFCFD" transform="translate(124.0625,39.75)"/>
<path d="M0 0 C2.5713019 1.41584345 3.95179389 2.79817844 6 5 C6 5.99 6 6.98 6 8 C23.16 8 40.32 8 58 8 C58 9.32 58 10.64 58 12 C52.06 12 46.12 12 40 12 C40.73863281 13.76859375 41.47726563 15.5371875 42.23828125 17.359375 C45.23085525 24.54224752 48.19620426 31.73609618 51.15087891 38.93463135 C51.9859513 40.9658285 52.82465721 42.99549254 53.6640625 45.02490234 C55.23232966 48.82162386 56.77358714 52.62878552 58.3125 56.4375 C58.79823486 57.60829102 59.28396973 58.77908203 59.78442383 59.98535156 C60.22294678 61.08202148 60.66146973 62.17869141 61.11328125 63.30859375 C61.50298096 64.26564209 61.89268066 65.22269043 62.29418945 66.20874023 C63.28612108 70.13151931 62.89896631 73.4043348 60.90625 76.94140625 C55.28532469 83.42108404 48.50376694 87.51478125 39.8984375 88.2734375 C30.57433188 88.54220329 24.0931954 87.33443258 16.90234375 81.21484375 C14.21902228 78.61968068 12.07591363 76.11387044 10 73 C10.39292556 68.55094172 12.25089777 64.46286137 13.87890625 60.33984375 C14.16699661 59.60091385 14.45508698 58.86198395 14.75190735 58.10066223 C15.68472266 55.71133511 16.6234657 53.32438902 17.5625 50.9375 C18.20161241 49.30447066 18.84044657 47.6713324 19.47900391 46.03808594 C23.92910716 34.66914994 28.43426492 23.32302299 33 12 C24.09 12 15.18 12 6 12 C5.34 13.65 4.68 15.3 4 17 C3.14735062 17.41312943 2.29470123 17.82625885 1.41621399 18.25190735 C-1.45775579 19.89832595 -1.45775579 19.89832595 -1.63923645 23.92936707 C-1.67153487 25.6091085 -1.67611478 27.28951341 -1.65942383 28.96948242 C-1.66990753 29.88675613 -1.68039124 30.80402985 -1.69119263 31.74909973 C-1.72002362 34.78489677 -1.71364164 37.81955889 -1.70703125 40.85546875 C-1.72014139 42.95869889 -1.7354435 45.06191642 -1.75285339 47.16511536 C-1.79279608 52.70375169 -1.80289983 58.24205937 -1.80688477 63.78082275 C-1.81619872 69.43145782 -1.85360133 75.08189835 -1.88867188 80.73242188 C-1.95334243 91.82165108 -1.98390965 102.91059376 -2 114 C7.24 114 16.48 114 26 114 C25.505 115.98 25.505 115.98 25 118 C5.86 118 -13.28 118 -33 118 C-32.67 116.35 -32.34 114.7 -32 113 C-23.42 113 -14.84 113 -6 113 C-6 81.98 -6 50.96 -6 19 C-7.32 18.67 -8.64 18.34 -10 18 C-13 14.67857143 -13 14.67857143 -13 12 C-26.365 12.495 -26.365 12.495 -40 13 C-38.37191406 17.07021484 -38.37191406 17.07021484 -36.7109375 21.22265625 C-34.54557292 26.63606771 -32.38020833 32.04947917 -30.21484375 37.46289062 C-29.68579437 38.78478897 -29.68579437 38.78478897 -29.14605713 40.13339233 C-28.44007894 41.89931331 -27.73544506 43.66577232 -27.03216553 45.43276978 C-25.43144647 49.45039468 -23.8162892 53.459036 -22.13769531 57.44482422 C-21.71407211 58.46327675 -21.71407211 58.46327675 -21.28189087 59.50230408 C-20.53466196 61.29426315 -19.77680627 63.08178088 -19.01806641 64.86889648 C-17.95377396 68.14217001 -17.70260366 70.58269574 -18 74 C-22.02248696 80.68827714 -28.64833575 85.56995198 -36 88 C-45.44384441 88.96365759 -54.15848666 88.98907768 -62 83 C-65.18826527 80.29074712 -68.10202734 77.756048 -70 74 C-69.68529731 67.06090334 -67.41619329 61.28175114 -64.81640625 54.89453125 C-64.19305641 53.33118294 -64.19305641 53.33118294 -63.55711365 51.73625183 C-62.23437562 48.42473029 -60.89867769 45.1186184 -59.5625 41.8125 C-58.66775603 39.57912189 -57.77386694 37.34540109 -56.88085938 35.11132812 C-54.91346596 30.19426229 -52.9379514 25.280554 -50.95509338 20.3697052 C-49.96569758 17.91489144 -48.98295926 15.45739816 -48 13 C-53.61 12.67 -59.22 12.34 -65 12 C-65.33 10.68 -65.66 9.36 -66 8 C-48.51 8 -31.02 8 -13 8 C-12.67 6.35 -12.34 4.7 -12 3 C-8.81910531 -0.68983785 -4.57257576 -0.95480988 0 0 Z " fill="#67B939" transform="translate(128,69)"/>
<path d="M0 0 C2.31 0 4.62 0 7 0 C10.74756835 8.96573898 14.46104325 17.94500816 18.15087891 26.93463135 C18.9859513 28.9658285 19.82465721 30.99549254 20.6640625 33.02490234 C22.23232966 36.82162386 23.77358714 40.62878552 25.3125 44.4375 C25.79823486 45.60829102 26.28396973 46.77908203 26.78442383 47.98535156 C27.22294678 49.08202148 27.66146973 50.17869141 28.11328125 51.30859375 C28.50298096 52.26564209 28.89268066 53.22269043 29.29418945 54.20874023 C30.28612108 58.13151931 29.89896631 61.4043348 27.90625 64.94140625 C22.28532469 71.42108404 15.50376694 75.51478125 6.8984375 76.2734375 C-2.42566812 76.54220329 -8.9068046 75.33443258 -16.09765625 69.21484375 C-18.78097772 66.61968068 -20.92408637 64.11387044 -23 61 C-22.60707444 56.55094172 -20.74910223 52.46286137 -19.12109375 48.33984375 C-18.83300339 47.60091385 -18.54491302 46.86198395 -18.24809265 46.10066223 C-17.31527734 43.71133511 -16.3765343 41.32438902 -15.4375 38.9375 C-14.79838759 37.30447066 -14.15955343 35.6713324 -13.52099609 34.03808594 C-9.07098157 22.66937663 -4.57827452 11.3177221 0 0 Z " fill="#66B939" transform="translate(161,81)"/>
<path d="M0 0 C1.16466797 -0.020625 2.32933594 -0.04125 3.52929688 -0.0625 C11.44114676 -0.09776173 18.38210652 0.91807995 25.9375 3.25 C26.68281982 3.47977539 27.42813965 3.70955078 28.19604492 3.94628906 C51.18653801 11.46853689 69.43144037 26.96136224 80.9375 48.25 C91.47217729 69.72453448 93.92189894 94.15629231 86.62841797 117.17895508 C82.2428881 129.74839728 75.93809698 140.38037987 66.9375 150.25 C66.25171875 151.02859375 65.5659375 151.8071875 64.859375 152.609375 C51.15767944 167.32601097 30.32207926 177.81586216 10.28125 178.59765625 C-7.01760924 178.95029042 -22.28306447 177.88942327 -38.0625 170.25 C-38.98675781 169.80785156 -39.91101563 169.36570313 -40.86328125 168.91015625 C-48.03940102 165.24597062 -54.04415825 160.57972271 -60.0625 155.25 C-60.69929688 154.69699219 -61.33609375 154.14398438 -61.9921875 153.57421875 C-76.3009007 140.28755649 -86.78566469 118.95752592 -88.26904297 99.54736328 C-88.36562404 96.73650393 -88.39144848 93.93745119 -88.375 91.125 C-88.36762817 89.61993896 -88.36762817 89.61993896 -88.36010742 88.08447266 C-87.99944333 64.95388225 -79.7120103 43.42122789 -63.58203125 26.61328125 C-45.55301866 9.70234696 -24.94049491 0.10790912 0 0 Z M-27.0625 8.25 C-28.65578125 8.79333984 -28.65578125 8.79333984 -30.28125 9.34765625 C-51.5585815 17.43633253 -67.88315161 34.44355778 -77.55859375 54.71484375 C-86.39973572 75.49726837 -87.16937253 100.2691223 -78.80615234 121.39013672 C-69.13509953 144.18424826 -51.77841117 160.34310499 -29.2265625 170.03125 C-9.0092701 177.81865152 15.35465126 176.4114434 35.125 168 C57.48790009 157.936029 72.59217645 141.20262513 81.8125 118.625 C89.10099792 98.08468769 88.35368931 73.86913607 79.25219727 54.06274414 C68.9983696 32.95809373 52.21841656 17.01519861 30.36328125 8.43359375 C11.96934091 2.07856077 -8.62897693 1.91866606 -27.0625 8.25 Z " fill="#274682" transform="translate(124.0625,39.75)"/>
<path d="M0 0 C2.5713019 1.41584345 3.95179389 2.79817844 6 5 C6 5.99 6 6.98 6 8 C23.16 8 40.32 8 58 8 C58 9.32 58 10.64 58 12 C40.84 12 23.68 12 6 12 C5.34 13.65 4.68 15.3 4 17 C3.14735062 17.41312943 2.29470123 17.82625885 1.41621399 18.25190735 C-1.45775579 19.89832595 -1.45775579 19.89832595 -1.63923645 23.92936707 C-1.67153487 25.6091085 -1.67611478 27.28951341 -1.65942383 28.96948242 C-1.66990753 29.88675613 -1.68039124 30.80402985 -1.69119263 31.74909973 C-1.72002362 34.78489677 -1.71364164 37.81955889 -1.70703125 40.85546875 C-1.72014139 42.95869889 -1.7354435 45.06191642 -1.75285339 47.16511536 C-1.79279608 52.70375169 -1.80289983 58.24205937 -1.80688477 63.78082275 C-1.81619872 69.43145782 -1.85360133 75.08189835 -1.88867188 80.73242188 C-1.95334243 91.82165108 -1.98390965 102.91059376 -2 114 C7.24 114 16.48 114 26 114 C25.505 115.98 25.505 115.98 25 118 C5.86 118 -13.28 118 -33 118 C-32.67 116.35 -32.34 114.7 -32 113 C-23.42 113 -14.84 113 -6 113 C-6 81.98 -6 50.96 -6 19 C-7.32 18.67 -8.64 18.34 -10 18 C-13 14.67857143 -13 14.67857143 -13 12 C-30.16 12 -47.32 12 -65 12 C-65.33 10.68 -65.66 9.36 -66 8 C-48.51 8 -31.02 8 -13 8 C-12.67 6.35 -12.34 4.7 -12 3 C-8.81910531 -0.68983785 -4.57257576 -0.95480988 0 0 Z " fill="#4C6698" transform="translate(128,69)"/>
<path d="M0 0 C3.5502205 2.76424798 4.68724448 6.74976662 6.21484375 10.81640625 C6.51185684 11.58750229 6.80886993 12.35859833 7.11488342 13.15306091 C8.06329617 15.62006061 9.00063528 18.09109471 9.9375 20.5625 C10.56370329 22.19885485 11.19064886 23.83492585 11.81835938 25.47070312 C12.72917497 27.84458143 13.6389722 30.21880177 14.54403687 32.59487915 C16.41878389 37.5140236 18.34958143 42.40519071 20.37329102 47.26538086 C21 49 21 49 21 51 C7.47 51 -6.06 51 -20 51 C-13.08978155 32.57275081 -13.08978155 32.57275081 -10.60546875 26.2890625 C-10.32778152 25.58397552 -10.0500943 24.87888855 -9.76399231 24.1524353 C-9.19266104 22.70261041 -8.62070525 21.25303145 -8.0480957 19.80371094 C-7.16899644 17.57815581 -6.29238818 15.35163008 -5.41601562 13.125 C-4.85430951 11.7004645 -4.29246608 10.27598314 -3.73046875 8.8515625 C-3.47009323 8.19024323 -3.20971771 7.52892395 -2.94145203 6.8475647 C-1.11555268 2.23110536 -1.11555268 2.23110536 0 0 Z " fill="#FCFDFB" transform="translate(164,85)"/>
<path d="M0 0 C0.66 0 1.32 0 2 0 C4.71307474 6.77815281 7.41816697 13.55945059 10.11767578 20.34301758 C11.03737875 22.65137132 11.95892139 24.95899295 12.88232422 27.26586914 C14.20762222 30.57769061 15.52632888 33.89206989 16.84375 37.20703125 C17.46715271 38.75871758 17.46715271 38.75871758 18.10314941 40.3417511 C18.4835437 41.3025206 18.86393799 42.2632901 19.25585938 43.25317383 C19.76215881 44.52225334 19.76215881 44.52225334 20.27868652 45.81697083 C21 48 21 48 21 51 C7.8 51 -5.4 51 -19 51 C-18.27392851 47.36964257 -17.56035561 44.57628732 -16.23413086 41.2097168 C-15.87383286 40.28913986 -15.51353485 39.36856293 -15.14231873 38.42008972 C-14.75375198 37.4397023 -14.36518524 36.45931488 -13.96484375 35.44921875 C-13.56672989 34.43527542 -13.16861603 33.42133209 -12.75843811 32.37666321 C-11.48868397 29.14539521 -10.21317319 25.91643518 -8.9375 22.6875 C-8.07448909 20.49429039 -7.21185443 18.30093269 -6.34960938 16.10742188 C-4.23743232 10.73655657 -2.12052705 5.36757363 0 0 Z " fill="#FCFDFB" transform="translate(83,85)"/>
<path d="M0 0 C0.33 0 0.66 0 1 0 C1.495 6.435 1.495 6.435 2 13 C2.66 12.67 3.32 12.34 4 12 C4.27704243 18.85680004 3.43460516 24.55673788 1.5 31.125 C1.23227783 32.04007324 0.96455566 32.95514648 0.6887207 33.89794922 C-3.35039864 47.05012295 -9.6973403 57.79915246 -19 68 C-19.68578125 68.77859375 -20.3715625 69.5571875 -21.078125 70.359375 C-33.42900605 83.62513613 -51.30425642 92.68326747 -69 96 C-71.33256212 96.05998676 -73.66795857 96.07763518 -76 96 C-76 95.34 -76 94.68 -76 94 C-81.61 93.67 -87.22 93.34 -93 93 C-93 92.67 -93 92.34 -93 92 C-91.71867187 91.96261719 -90.43734375 91.92523438 -89.1171875 91.88671875 C-64.75310309 91.03109219 -41.65986009 84.91474467 -24 67 C-6.24745231 47.60821902 -1.07848626 25.54309564 0 0 Z " fill="#264582" transform="translate(210,122)"/>
<path d="M0 0 C0 31.35 0 62.7 0 95 C9.24 95 18.48 95 28 95 C27.505 96.98 27.505 96.98 27 99 C7.86 99 -11.28 99 -31 99 C-31 97.68 -31 96.36 -31 95 C-21.76 95 -12.52 95 -3 95 C-3 63.98 -3 32.96 -3 1 C-1 0 -1 0 0 0 Z " fill="#203F7E" transform="translate(126,88)"/>
<path d="M0 0 C14.52 0 29.04 0 44 0 C42.26841019 3.46317963 41.52247052 4.72088638 38.75 7.0625 C38.18796875 7.54847656 37.6259375 8.03445312 37.046875 8.53515625 C29.72264741 13.77673134 22.78042832 14.12592876 14 13 C8.19908723 10.77742806 3.28290942 7.37203359 0 2 C0 1.34 0 0.68 0 0 Z " fill="#F0F2F6" transform="translate(143,140)"/>
<path d="M0 0 C14.52 0 29.04 0 44 0 C41.13684149 5.72631702 37.30189231 9.57407283 31.50390625 12.26953125 C24.89515413 14.19751354 16.91048556 14.29594964 10.5625 11.4375 C6.50948857 8.99518858 2.92706072 5.71370828 0 2 C0 1.34 0 0.68 0 0 Z " fill="#F1F3F7" transform="translate(62,140)"/>
<path d="M0 0 C0.84224121 0.00142502 1.68448242 0.00285004 2.55224609 0.00431824 C3.50663574 0.00124161 4.46102539 -0.00183502 5.44433594 -0.00500488 C6.47768066 0.00218063 7.51102539 0.00936615 8.57568359 0.01676941 C9.63352051 0.01722763 10.69135742 0.01768585 11.78125 0.01815796 C14.02068196 0.02118271 16.26011178 0.02907562 18.49951172 0.04142761 C21.93643611 0.05966257 25.37309093 0.06193749 28.81005859 0.06169128 C30.98193593 0.06660716 33.15381144 0.07243579 35.32568359 0.07926941 C36.35902832 0.08038223 37.39237305 0.08149506 38.45703125 0.0826416 C39.88861572 0.09221138 39.88861572 0.09221138 41.34912109 0.10197449 C42.1913623 0.10578629 43.03360352 0.10959808 43.90136719 0.11352539 C45.95068359 0.24723816 45.95068359 0.24723816 47.95068359 1.24723816 C48.51385464 4.46535842 48.42587049 6.52825973 46.60302734 9.28630066 C41.08427747 15.76325106 34.99519538 20.73249206 26.31396484 21.61833191 C16.42331641 21.92133037 9.1751014 20.98347267 1.56787109 14.08708191 C-3.90682114 8.37394489 -3.90682114 8.37394489 -4.38525391 4.59098816 C-3.94713019 1.53431108 -3.13725438 0.37849158 0 0 Z M-0.04931641 4.24723816 C1.76838956 7.88265008 2.81924139 9.31669368 5.76318359 11.87223816 C6.42962891 12.46262878 7.09607422 13.05301941 7.78271484 13.66130066 C14.19040591 18.34872872 21.31101204 17.94725331 28.95068359 17.24723816 C34.41976558 15.67615094 38.27407906 12.57265526 41.95068359 8.24723816 C42.61068359 6.92723816 43.27068359 5.60723816 43.95068359 4.24723816 C29.43068359 4.24723816 14.91068359 4.24723816 -0.04931641 4.24723816 Z " fill="#294881" transform="translate(62.04931640625,135.7527618408203)"/>
<path d="M0 0 C3.32310483 1.16757737 5.83361132 2.14948857 8 5 C8 5.99 8 6.98 8 8 C25.16 8 42.32 8 60 8 C60 9.32 60 10.64 60 12 C42.84 12 25.68 12 8 12 C7.34 13.65 6.68 15.3 6 17 C5.34 17.33 4.68 17.66 4 18 C3.01 17.34 2.02 16.68 1 16 C0.195625 16.04125 -0.60875 16.0825 -1.4375 16.125 C-4 16 -4 16 -6.3125 14.3125 C-8 12 -8 12 -8.5625 9.5 C-7.76606624 5.9602944 -5.9167492 5.0349413 -3 3 C-1.9826127 2.01769502 -0.97403883 1.02530403 0 0 Z " fill="#324F89" transform="translate(126,69)"/>
<path d="M0 0 C7.08413941 -0.02529271 14.16826723 -0.04284261 21.25244141 -0.05493164 C23.66390417 -0.05996974 26.07536386 -0.06680034 28.48681641 -0.07543945 C31.94694779 -0.08752787 35.4070389 -0.09323344 38.8671875 -0.09765625 C39.95055389 -0.10281754 41.03392029 -0.10797882 42.15011597 -0.11329651 C43.1510025 -0.11337204 44.15188904 -0.11344757 45.18310547 -0.11352539 C46.06690887 -0.115746 46.95071228 -0.11796661 47.86129761 -0.12025452 C50 0 50 0 52 1 C51.75559337 6.01033585 50.17138598 8.74173894 46.8828125 12.32421875 C39.27137206 19.09871657 31.51898334 20.43242041 21.61328125 20.33984375 C12.8378026 19.51447441 6.51749117 14.61471952 1 8 C-1 5 -1 5 -0.625 2.3125 C-0.41875 1.549375 -0.2125 0.78625 0 0 Z M4 3 C6.00273918 8.11823826 6.00273918 8.11823826 9.875 11.1875 C10.55304688 11.67605469 11.23109375 12.16460937 11.9296875 12.66796875 C18.62553622 16.97605255 25.24339231 16.77887262 33 16 C39.2189745 13.95912527 43.77022642 9.88050798 48 5 C48 4.34 48 3.68 48 3 C33.48 3 18.96 3 4 3 Z " fill="#254481" transform="translate(139,137)"/>
<path d="M0 0 C25.41 0 50.82 0 77 0 C76.67 1.32 76.34 2.64 76 4 C51.25 4 26.5 4 1 4 C0.67 2.68 0.34 1.36 0 0 Z " fill="#314E87" transform="translate(86,194)"/>
<path d="M0 0 C2.31201172 0.10571289 2.31201172 0.10571289 5 1 C6.62158203 3.70874023 6.62158203 3.70874023 8.0078125 7.30859375 C8.25997528 7.94934341 8.51213806 8.59009308 8.77194214 9.2502594 C9.57510784 11.30593923 10.3497313 13.37116076 11.125 15.4375 C11.65321025 16.79429756 12.1831411 18.15042661 12.71484375 19.50585938 C15.47237557 26.61365477 17.80214114 33.67380381 20 41 C4.82 40.67 -10.36 40.34 -26 40 C-26 39.67 -26 39.34 -26 39 C-12.47 39 1.06 39 15 39 C10.06727324 26.91177833 10.06727324 26.91177833 5.12695312 14.82666016 C4.51144247 13.31424001 3.89619023 11.80171466 3.28125 10.2890625 C2.95737305 9.50039795 2.63349609 8.7117334 2.29980469 7.89916992 C0 2.2281436 0 2.2281436 0 0 Z " fill="#69BA3C" transform="translate(170,97)"/>
<path d="M0 0 C1.85044922 0.02030273 1.85044922 0.02030273 3.73828125 0.04101562 C6.74266604 0.07595033 9.74608409 0.12499855 12.75 0.1875 C12.75 0.5175 12.75 0.8475 12.75 1.1875 C10.11 1.5175 7.47 1.8475 4.75 2.1875 C5.245 3.1775 5.245 3.1775 5.75 4.1875 C4.63625 4.21328125 3.5225 4.2390625 2.375 4.265625 C-11.32542974 4.72059293 -23.79724521 6.88628602 -36.4296875 12.453125 C-38.25 13.1875 -38.25 13.1875 -40.25 13.1875 C-40.58 11.8675 -40.91 10.5475 -41.25 9.1875 C-39.00399921 8.23939311 -36.75381912 7.30420613 -34.5 6.375 C-33.88511719 6.11396484 -33.27023438 5.85292969 -32.63671875 5.58398438 C-21.78487551 1.14459396 -11.69151958 -0.24754032 0 0 Z " fill="#2C4A85" transform="translate(125.25,39.8125)"/>
<path d="M0 0 C1.15757813 0.27714844 2.31515625 0.55429688 3.5078125 0.83984375 C5.04684999 1.20583437 6.58591389 1.57171391 8.125 1.9375 C8.88554688 2.11990234 9.64609375 2.30230469 10.4296875 2.49023438 C17.76929332 4.23022713 24.84495364 5.19620588 32.375 5.5625 C33.20644531 5.60568359 34.03789062 5.64886719 34.89453125 5.69335938 C36.92953228 5.79861805 38.96474703 5.89973072 41 6 C40.67 6.99 40.34 7.98 40 9 C25.27814772 9.41478994 12.06719977 8.88002405 -2 4 C-1.34 3.67 -0.68 3.34 0 3 C0 2.01 0 1.02 0 0 Z " fill="#2D4B85" transform="translate(94,209)"/>
<path d="M0 0 C15.84 0 31.68 0 48 0 C47.34 0.33 46.68 0.66 46 1 C46 1.66 46 2.32 46 3 C31.48 3 16.96 3 2 3 C2 2.34 2 1.68 2 1 C1.34 0.67 0.68 0.34 0 0 Z " fill="#153678" transform="translate(141,137)"/>
<path d="M0 0 C2.475 0.495 2.475 0.495 5 1 C5.56317104 4.21812026 5.4751869 6.28102157 3.65234375 9.0390625 C-0.9824466 14.47857469 -6.05611436 18.8634198 -13 21 C-15.8125 21.125 -15.8125 21.125 -18 21 C-18 20.01 -18 19.02 -18 18 C-20.31 18 -22.62 18 -25 18 C-25 17.67 -25 17.34 -25 17 C-24.29875 16.97421875 -23.5975 16.9484375 -22.875 16.921875 C-14.72128313 16.43442453 -9.35447874 14.78350363 -3.0625 9.5625 C-0.47446967 6.34706838 0 4.03733914 0 0 Z " fill="#284780" transform="translate(105,136)"/>
<path d="M0 0 C14.52 0 29.04 0 44 0 C44.495 1.485 44.495 1.485 45 3 C30.48 3 15.96 3 1 3 C0.67 2.01 0.34 1.02 0 0 Z " fill="#153677" transform="translate(61,137)"/>
<path d="M0 0 C1.32 0.66 2.64 1.32 4 2 C3.56459142 3.33401777 3.12652414 4.66716774 2.6875 6 C2.44386719 6.7425 2.20023438 7.485 1.94921875 8.25 C0.703648 11.85856712 -0.659591 15.425576 -2 19 C11.53 18.67 25.06 18.34 39 18 C39 18.66 39 19.32 39 20 C23.82 20 8.64 20 -7 20 C-3.625 8.75 -3.625 8.75 -1.8125 4.375 C-1.46832031 3.53710938 -1.12414062 2.69921875 -0.76953125 1.8359375 C-0.51558594 1.23007813 -0.26164062 0.62421875 0 0 Z " fill="#73AE68" transform="translate(66,117)"/>
<path d="M0 0 C0.99 0.66 1.98 1.32 3 2 C3.64825345 7.94232331 3.64825345 7.94232331 1.8125 10.9375 C-0.70554428 12.41359492 -2.12476676 12.49089348 -5 12 C-7.77389443 9.97580677 -8.85519403 8.84814923 -9.4375 5.4375 C-9 3 -9 3 -7.875 1.1875 C-5.15523346 -0.53501881 -3.15413751 -0.32855599 0 0 Z " fill="#F1F3F7" transform="translate(127,73)"/>
<path d="M0 0 C1.32 0 2.64 0 4 0 C4.86343824 2.12124966 5.71550648 4.24713072 6.5625 6.375 C7.03816406 7.55835938 7.51382813 8.74171875 8.00390625 9.9609375 C9 13 9 13 8 15 C-6.85 14.67 -21.7 14.34 -37 14 C-37 13.67 -37 13.34 -37 13 C-23.47 13 -9.94 13 4 13 C2.68 9.7 1.36 6.4 0 3 C0 2.01 0 1.02 0 0 Z " fill="#75A777" transform="translate(181,123)"/>
<path d="M0 0 C0 0.99 0 1.98 0 3 C-12.48519362 7.59225513 -12.48519362 7.59225513 -19 7 C-19 6.34 -19 5.68 -19 5 C-24.61 4.67 -30.22 4.34 -36 4 C-36 3.67 -36 3.34 -36 3 C-35.44650879 2.98018066 -34.89301758 2.96036133 -34.32275391 2.93994141 C-21.02050931 2.5474488 -21.02050931 2.5474488 -7.921875 0.41015625 C-5.26623643 -0.15659588 -2.7017804 -0.14219897 0 0 Z " fill="#2A4884" transform="translate(153,211)"/>
<path d="M0 0 C10.89 0 21.78 0 33 0 C33.495 1.485 33.495 1.485 34 3 C16.84 3 -0.32 3 -18 3 C-18 2.67 -18 2.34 -18 2 C-12.06 2 -6.12 2 0 2 C0 1.34 0 0.68 0 0 Z " fill="#496396" transform="translate(81,78)"/>
<path d="M0 0 C17.16 0 34.32 0 52 0 C52.495 1.485 52.495 1.485 53 3 C49.85418577 3.02888514 46.70840531 3.04675923 43.5625 3.0625 C42.21575195 3.07506836 42.21575195 3.07506836 40.84179688 3.08789062 C39.56079102 3.09272461 39.56079102 3.09272461 38.25390625 3.09765625 C37.46314697 3.10289307 36.6723877 3.10812988 35.85766602 3.11352539 C34 3 34 3 33 2 C30.55391002 1.84019563 28.13268942 1.74070553 25.68359375 1.68359375 C24.58701195 1.6524221 24.58701195 1.6524221 23.46827698 1.62062073 C21.12478344 1.55504976 18.78117461 1.49620568 16.4375 1.4375 C14.85220145 1.39432192 13.26691471 1.35070787 11.68164062 1.30664062 C7.78787963 1.1993608 3.89400228 1.0981151 0 1 C0 0.67 0 0.34 0 0 Z " fill="#173879" transform="translate(134,77)"/>
<path d="M0 0 C17.49 0 34.98 0 53 0 C53 0.33 53 0.66 53 1 C41.78 1 30.56 1 19 1 C19 1.66 19 2.32 19 3 C12.73 3 6.46 3 0 3 C0 2.01 0 1.02 0 0 Z " fill="#183879" transform="translate(62,77)"/>
<path d="M0 0 C1.80307617 0.00483398 1.80307617 0.00483398 3.64257812 0.00976562 C4.88845703 0.01814453 6.13433594 0.02652344 7.41796875 0.03515625 C8.68318359 0.03966797 9.94839844 0.04417969 11.25195312 0.04882812 C14.36983985 0.06059374 17.48763008 0.07703353 20.60546875 0.09765625 C20.60546875 0.42765625 20.60546875 0.75765625 20.60546875 1.09765625 C17.96546875 1.42765625 15.32546875 1.75765625 12.60546875 2.09765625 C12.93546875 2.75765625 13.26546875 3.41765625 13.60546875 4.09765625 C2.71546875 4.59265625 2.71546875 4.59265625 -8.39453125 5.09765625 C-8.39453125 4.10765625 -8.39453125 3.11765625 -8.39453125 2.09765625 C-9.38453125 1.76765625 -10.37453125 1.43765625 -11.39453125 1.09765625 C-7.53246051 0.18948827 -3.96304469 -0.0187822 0 0 Z " fill="#2B4984" transform="translate(117.39453125,39.90234375)"/>
<path d="M0 0 C0.98291016 0.00322266 1.96582031 0.00644531 2.97851562 0.00976562 C4.51475586 0.02233398 4.51475586 0.02233398 6.08203125 0.03515625 C7.11779297 0.03966797 8.15355469 0.04417969 9.22070312 0.04882812 C11.77870391 0.06061615 14.33658858 0.0770711 16.89453125 0.09765625 C16.56453125 1.08765625 16.23453125 2.07765625 15.89453125 3.09765625 C12.45710207 3.15568323 9.01979872 3.19126111 5.58203125 3.22265625 C4.60556641 3.23941406 3.62910156 3.25617188 2.62304688 3.2734375 C1.68525391 3.27988281 0.74746094 3.28632813 -0.21875 3.29296875 C-1.08282471 3.30344238 -1.94689941 3.31391602 -2.8371582 3.32470703 C-5.10546875 3.09765625 -5.10546875 3.09765625 -8.10546875 1.09765625 C-5.10530963 0.09760321 -3.13123119 -0.0180996 0 0 Z " fill="#173879" transform="translate(118.10546875,214.90234375)"/>
<path d="M0 0 C0.99 0.33 1.98 0.66 3 1 C3.80450651 5.42478581 4.14080668 9.7512354 4.25 14.25 C4.27578125 15.26578125 4.3015625 16.2815625 4.328125 17.328125 C4 20 4 20 1 23 C0.67 15.41 0.34 7.82 0 0 Z " fill="#173879" transform="translate(210,114)"/>
<path d="M0 0 C3.68931338 6.32453722 4.25454902 12.87262743 4 20 C3.67 20 3.34 20 3 20 C3 17.69 3 15.38 3 13 C1.68 13.33 0.36 13.66 -1 14 C-1.66 10.37 -2.32 6.74 -3 3 C-2.01 2.67 -1.02 2.34 0 2 C0 1.34 0 0.68 0 0 Z " fill="#324F88" transform="translate(210,102)"/>
<path d="M0 0 C4.75 0.875 4.75 0.875 7 2 C9.0374763 2.22858114 11.08040303 2.41024278 13.125 2.5625 C14.76855469 2.68818359 14.76855469 2.68818359 16.4453125 2.81640625 C17.28835937 2.87699219 18.13140625 2.93757812 19 3 C19 3.33 19 3.66 19 4 C16.69 4.33 14.38 4.66 12 5 C12 5.66 12 6.32 12 7 C10.741875 6.87625 9.48375 6.7525 8.1875 6.625 C7.12595703 6.52058594 7.12595703 6.52058594 6.04296875 6.4140625 C4 6 4 6 1 4 C0.3125 1.875 0.3125 1.875 0 0 Z " fill="#284783" transform="translate(150,150)"/>
<path d="M0 0 C-0.125 2.3125 -0.125 2.3125 -1 5 C-3.87533026 6.91688684 -5.81641969 8.06397731 -9.3125 7.875 C-11 7 -11 7 -12 4 C-10.3767313 3.3291288 -8.75132422 2.66342971 -7.125 2 C-6.22007812 1.62875 -5.31515625 1.2575 -4.3828125 0.875 C-2 0 -2 0 0 0 Z " fill="#2F4D87" transform="translate(163,206)"/>
<path d="M0 0 C0.33 0 0.66 0 1 0 C1.33 4.29 1.66 8.58 2 13 C2.66 12.67 3.32 12.34 4 12 C4 14.97 4 17.94 4 21 C2.35 21.33 0.7 21.66 -1 22 C-0.67 14.74 -0.34 7.48 0 0 Z " fill="#456093" transform="translate(210,122)"/>
<path d="M0 0 C4.8333472 -0.08333357 9.23692563 0.04738513 14 1 C10.45719682 3.12568191 7.08564707 3.62857754 3 4 C2.01 3.67 1.02 3.34 0 3 C0 2.01 0 1.02 0 0 Z " fill="#234380" transform="translate(103,213)"/>
<path d="M0 0 C0 0.66 0 1.32 0 2 C-2.40545638 3.20272819 -3.94996953 3.10071472 -6.625 3.0625 C-7.85089844 3.04896484 -7.85089844 3.04896484 -9.1015625 3.03515625 C-10.04128906 3.01775391 -10.04128906 3.01775391 -11 3 C-11.33 2.01 -11.66 1.02 -12 0 C-3.42857143 -1.28571429 -3.42857143 -1.28571429 0 0 Z " fill="#193A7A" transform="translate(173,154)"/>
<path d="M0 0 C0 0.99 0 1.98 0 3 C-5.94 2.67 -11.88 2.34 -18 2 C-18 1.67 -18 1.34 -18 1 C-11.93303301 0.22959149 -6.11485027 -0.09706112 0 0 Z " fill="#173879" transform="translate(139,41)"/>
<path d="M0 0 C0.66 0.33 1.32 0.66 2 1 C1.88490339 2.41750563 1.75746342 3.83401169 1.625 5.25 C1.55539063 6.03890625 1.48578125 6.8278125 1.4140625 7.640625 C0.98492887 10.085877 0.21399362 11.84836903 -1 14 C-1.22331199 12.41870971 -1.42804644 10.83478911 -1.625 9.25 C-1.74101563 8.36828125 -1.85703125 7.4865625 -1.9765625 6.578125 C-2.00207817 3.77140122 -1.44843844 2.36615134 0 0 Z " fill="#345189" transform="translate(39,138)"/>
<path d="M0 0 C0.66 0.33 1.32 0.66 2 1 C1.67 6.61 1.34 12.22 1 18 C0.67 18 0.34 18 0 18 C-0.19384179 15.18780295 -0.38036603 12.37545804 -0.5625 9.5625 C-0.61857422 8.76005859 -0.67464844 7.95761719 -0.73242188 7.13085938 C-0.8616295 5.08937889 -0.9351273 3.04453631 -1 1 C-0.67 0.67 -0.34 0.34 0 0 Z " fill="#173879" transform="translate(38,115)"/>
<path d="M0 0 C6.6 0 13.2 0 20 0 C20 0.66 20 1.32 20 2 C21.32 2.66 22.64 3.32 24 4 C21.69 4 19.38 4 17 4 C17 3.34 17 2.68 17 2 C11.39 1.67 5.78 1.34 0 1 C0 0.67 0 0.34 0 0 Z " fill="#677CA7" transform="translate(117,214)"/>
<path d="M0 0 C0.66 0.33 1.32 0.66 2 1 C2.75 4.4375 2.75 4.4375 3 8 C2.34 8.66 1.68 9.32 1 10 C0.34 9.67 -0.32 9.34 -1 9 C-0.67 6.03 -0.34 3.06 0 0 Z " fill="#294783" transform="translate(40,145)"/>
<path d="M0 0 C1.32 0.66 2.64 1.32 4 2 C4 2.99 4 3.98 4 5 C2.02 5.66 0.04 6.32 -2 7 C-1.34 4.69 -0.68 2.38 0 0 Z " fill="#6BBB3F" transform="translate(161,81)"/>
<path d="M0 0 C-1.0197307 3.77300358 -1.65872662 4.80206144 -5.125 6.8125 C-6.07375 7.204375 -7.0225 7.59625 -8 8 C-6.65580512 3.85539913 -4.87800266 0 0 0 Z " fill="#1E3E7D" transform="translate(57,76)"/>
<path d="M0 0 C0 0.33 0 0.66 0 1 C-1.98 1.33 -3.96 1.66 -6 2 C-6 2.99 -6 3.98 -6 5 C-7.32 5 -8.64 5 -10 5 C-10 4.01 -10 3.02 -10 2 C-10.99 1.67 -11.98 1.34 -13 1 C-8.59085217 -0.10228696 -4.51617599 -0.07654536 0 0 Z " fill="#4C6597" transform="translate(119,40)"/>
<path d="M0 0 C2 2 2 2 2.1953125 3.9453125 C2.13020833 5.96354167 2.06510417 7.98177083 2 10 C0.68 9.34 -0.64 8.68 -2 8 C-1.34 5.36 -0.68 2.72 0 0 Z " fill="#37548B" transform="translate(206,154)"/>
<path d="M0 0 C2.97 0.33 5.94 0.66 9 1 C5.09567131 2.95216435 2.27786748 3.50639991 -2 4 C-1.34 2.68 -0.68 1.36 0 0 Z " fill="#35528A" transform="translate(139,41)"/>
<path d="M0 0 C0.66 0 1.32 0 2 0 C3.125 3.75 3.125 3.75 2 6 C0.68 6 -0.64 6 -2 6 C-1.125 1.125 -1.125 1.125 0 0 Z " fill="#60B03C" transform="translate(142,131)"/>
<path d="M0 0 C0.99 0.33 1.98 0.66 3 1 C3 2.98 3 4.96 3 7 C1.68 6.67 0.36 6.34 -1 6 C-0.67 4.02 -0.34 2.04 0 0 Z " fill="#254481" transform="translate(38,110)"/>
<path d="M0 0 C0.99 1.32 1.98 2.64 3 4 C2.34 5.32 1.68 6.64 1 8 C0.34 8 -0.32 8 -1 8 C-1.93065133 5.39417629 -2.14917407 4.35801776 -1.0625 1.75 C-0.711875 1.1725 -0.36125 0.595 0 0 Z " fill="#314E88" transform="translate(205,90)"/>
<path d="M0 0 C0.99 0.33 1.98 0.66 3 1 C1.68 3.31 0.36 5.62 -1 8 C-1.12375 7.360625 -1.2475 6.72125 -1.375 6.0625 C-1.684375 5.0415625 -1.684375 5.0415625 -2 4 C-2.66 3.67 -3.32 3.34 -4 3 C-2 1 -2 1 0 0 Z " fill="#2F4D87" transform="translate(51,82)"/>
<path d="M0 0 C3.3 0 6.6 0 10 0 C10 0.66 10 1.32 10 2 C10.66 2.66 11.32 3.32 12 4 C10.35 4 8.7 4 7 4 C7 3.01 7 2.02 7 1 C4.69 1 2.38 1 0 1 C0 0.67 0 0.34 0 0 Z " fill="#425D92" transform="translate(80,153)"/>
<path d="M0 0 C0.66 0.33 1.32 0.66 2 1 C1.1875 4.4375 1.1875 4.4375 0 8 C-0.99 8.33 -1.98 8.66 -3 9 C-2.01 6.03 -1.02 3.06 0 0 Z " fill="#6BBB3F" transform="translate(75,95)"/>
<path d="M0 0 C0.66 0.33 1.32 0.66 2 1 C1.1875 4.4375 1.1875 4.4375 0 8 C-0.99 8.33 -1.98 8.66 -3 9 C-2.01 6.03 -1.02 3.06 0 0 Z " fill="#6BBB3F" transform="translate(158,89)"/>
<path d="M0 0 C4.29 0.33 8.58 0.66 13 1 C13 1.33 13 1.66 13 2 C8.38 2.33 3.76 2.66 -1 3 C-0.67 2.01 -0.34 1.02 0 0 Z " fill="#38558C" transform="translate(156,152)"/>
<path d="M0 0 C0.66 0.33 1.32 0.66 2 1 C3.28317892 4.84953676 3.06643637 7.94738135 3 12 C2.67 12 2.34 12 2 12 C2 9.69 2 7.38 2 5 C1.01 4.67 0.02 4.34 -1 4 C-0.67 2.68 -0.34 1.36 0 0 Z " fill="#425D92" transform="translate(211,110)"/>
<path d="M0 0 C1.98 0 3.96 0 6 0 C6 0.99 6 1.98 6 3 C4.02 3 2.04 3 0 3 C0 2.01 0 1.02 0 0 Z " fill="#163778" transform="translate(81,154)"/>
<path d="M0 0 C1.98 0 3.96 0 6 0 C6 0.99 6 1.98 6 3 C4.02 3 2.04 3 0 3 C0 2.01 0 1.02 0 0 Z " fill="#234876" transform="translate(81,78)"/>
<path d="M0 0 C1.32 0.33 2.64 0.66 4 1 C3.67 1.99 3.34 2.98 3 4 C1.35 3.67 -0.3 3.34 -2 3 C-1.34 2.01 -0.68 1.02 0 0 Z " fill="#1F3F7D" transform="translate(91,152)"/>
<path d="M0 0 C1.98 0.495 1.98 0.495 4 1 C3.67 2.32 3.34 3.64 3 5 C3 4.34 3 3.68 3 3 C2.34 3 1.68 3 1 3 C1 3.66 1 4.32 1 5 C0.34 5 -0.32 5 -1 5 C-0.67 3.35 -0.34 1.7 0 0 Z " fill="#365487" transform="translate(139,137)"/>
<path d="M0 0 C1.32 0 2.64 0 4 0 C4.33 1.65 4.66 3.3 5 5 C3.35 4.67 1.7 4.34 0 4 C0 2.68 0 1.36 0 0 Z " fill="#5DA944" transform="translate(185,133)"/>
<path d="M0 0 C1.65 0 3.3 0 5 0 C5.33 0.99 5.66 1.98 6 3 C4.02 3 2.04 3 0 3 C0 2.01 0 1.02 0 0 Z " fill="#244977" transform="translate(162,78)"/>
<path d="M0 0 C1.65 0 3.3 0 5 0 C4.67 1.32 4.34 2.64 4 4 C2.68 3.67 1.36 3.34 0 3 C0 2.01 0 1.02 0 0 Z " fill="#244381" transform="translate(96,44)"/>
<path d="M0 0 C-1.6875 1.5625 -1.6875 1.5625 -4 3 C-6.75 2.6875 -6.75 2.6875 -9 2 C-5.5647952 -0.29013653 -4.014669 -0.17842973 0 0 Z " fill="#254481" transform="translate(150,43)"/>
</svg>
